<svg id="Слой_1" xmlns="http://www.w3.org/2000/svg" viewBox="0 0 67.8 72.6"><style>.st0{fill:#fff}</style><path class="st0" d="M66.6 4.8h-8.5V1.2c0-.7-.5-1.2-1.2-1.2h-8.5c-.7 0-1.2.5-1.2 1.2v3.6H20.6V1.2C20.6.5 20 0 19.4 0h-8.5c-.7 0-1.2.5-1.2 1.2v3.6H1.2C.5 4.8 0 5.4 0 6.1v65.4c0 .7.5 1.2 1.2 1.2h65.4c.7 0 1.2-.5 1.2-1.2V6.1c0-.7-.5-1.3-1.2-1.3zm-17-2.4h6.1v7.3h-6.1V2.4zm-37.5 0h6.1v7.3h-6.1V2.4zM2.4 7.3h7.3v3.6c0 .7.5 1.2 1.2 1.2h8.5c.7 0 1.2-.5 1.2-1.2V7.3h26.6v3.6c0 .7.5 1.2 1.2 1.2h8.5c.7 0 1.2-.5 1.2-1.2V7.3h7.3v10.9h-63V7.3zm0 62.9V20.6h62.9v49.6H2.4zm0 0"/><path class="st0" d="M43.6 27.8H10.9V63h46V27.8H43.6zm-8.5 2.5h8.5v8.5h-8.5v-8.5zm8.5 19.3h-8.5v-8.5h8.5v8.5zm-19.4-8.4h8.5v8.5h-8.5v-8.5zm0-10.9h8.5v8.5h-8.5v-8.5zm-10.9 0h8.5v8.5h-8.5v-8.5zm0 10.9h8.5v8.5h-8.5v-8.5zm8.5 19.3h-8.5V52h8.5v8.5zm10.9 0h-8.5V52h8.5v8.5zm10.9 0h-8.5V52h8.5v8.5zm10.9 0H46V52h8.5v8.5zm0-10.9H46v-8.5h8.5v8.5zm0-19.3v8.5H46v-8.5h8.5zm0 0"/></svg>