<svg id="Слой_1" xmlns="http://www.w3.org/2000/svg" viewBox="0 0 54.8 37.5"><style>.st0{fill:#fff}</style><path class="st0" d="M1.8 32.9v1.8c0 .5.4.9.9.9H52c.5 0 .9-.4.9-.9v-1.8H35.6v.9c0 .5-.4.9-.9.9H20.1c-.5 0-.9-.4-.9-.9v-.9H1.8zm50.3 4.6H2.7c-1.6 0-2.7-1.2-2.7-2.7V32c0-.5.4-.9.9-.9h19.2c.5 0 .9.4.9.9v.9h12.8V32c0-.5.4-.9.9-.9h19.2c.5 0 .9.4.9.9v2.7c0 1.6-1.2 2.8-2.7 2.8z"/><path class="st0" d="M21 32.9h12.8V32c0-.5.4-.9.9-.9h14.6V2.7c0-.5-.4-.9-.9-.9h-42c-.5 0-.9.4-.9.9V31h14.6c.5 0 .9.4.9.9v1zm13.7 1.8H20.1c-.5 0-.9-.4-.9-.9v-.9H4.6c-.5 0-.9-.4-.9-.9V2.7C3.7 1.2 4.8 0 6.4 0h42c1.6 0 2.7 1.2 2.7 2.7V32c0 .5-.4.9-.9.9H35.6v.9c0 .5-.3.9-.9.9z"/></svg>