<svg id="Слой_1" xmlns="http://www.w3.org/2000/svg" viewBox="0 0 55.9 55.9"><style>.st0{fill:#fff}</style><path class="st0" d="M11 1h34c6 0 11 4.9 11 10.9v34c0 6-4.9 10.9-11 10.9H11c-6 0-11-4.9-11-10.9v-34C0 5.9 4.9 1 11 1zm30.5 33.8c0-2.1-.6-3.7-1.7-4.9-1.1-1.2-2.6-2-4.5-2.4v-.2c1.3-.5 2.3-1.4 3.1-2.6.7-1.2 1.1-2.5 1.1-3.9 0-1.3-.3-2.4-.8-3.4s-1.3-1.8-2.4-2.3c-1-.5-2.1-.9-3.2-1.1-1.1-.2-2.8-.3-5.1-.3H17.1V44h12.3c2.1 0 3.8-.2 5.2-.6 1.4-.4 2.6-1 3.8-1.9 1-.8 1.7-1.7 2.3-2.8.5-1 .8-2.4.8-3.9zm-9.8-12.4c0-.5-.1-1-.4-1.5-.3-.5-.6-.9-1.2-1.1-.5-.2-1.1-.3-1.8-.4h-3.6v6.4h3.7c.5 0 1.1-.2 1.6-.4.6-.3 1-.7 1.2-1.2.4-.6.5-1.2.5-1.8zm1.9 12.3c0-.9-.2-1.7-.6-2.2-.4-.5-.9-.9-1.7-1.2-.5-.2-1.1-.3-1.9-.3h-4.6v7.6h4.5c.8 0 1.5-.2 2.3-.5.7-.3 1.2-.7 1.5-1.3.4-.7.5-1.4.5-2.1zm0 0"/></svg>