<svg xmlns="http://www.w3.org/2000/svg" viewBox="0 0 76.398 76.398" width="512" height="512"><path d="M58.828 16.208l-3.686 4.735a27.664 27.664 0 0 1 10.345 26.123C63.121 62.112 48.954 72.432 33.908 70.06 18.863 67.69 8.547 53.522 10.912 38.477c1.146-7.289 5.063-13.694 11.028-18.037 5.207-3.79 11.433-5.613 17.776-5.252l-5.187 5.442 3.848 3.671 8.188-8.596.002.003 3.668-3.852-3.845-3.668-.002.001L37.795 0l-3.671 3.852 5.6 5.334c-7.613-.36-15.065 1.853-21.316 6.403-7.26 5.286-12.027 13.083-13.423 21.956-2.879 18.313 9.676 35.558 27.989 38.442 1.763.277 3.514.411 5.245.411 16.254-.001 30.591-11.85 33.195-28.4a33.663 33.663 0 0 0-12.586-31.79z" fill="#FFF"/></svg>