<svg id="Слой_1" xmlns="http://www.w3.org/2000/svg" viewBox="0 0 53.2 43.2"><style>.st0{fill:#fff}</style><path class="st0" d="M53.2 5.1c-1.9.9-4.1 1.5-6.3 1.7 2.3-1.4 4-3.5 4.8-6-2.1 1.3-4.4 2.2-7 2.6-2-2.1-4.8-3.4-8-3.4-6 0-10.9 4.9-10.9 10.9 0 .9.1 1.7.3 2.5-9-.5-17-4.8-22.4-11.4-.9 1.6-1.5 3.5-1.5 5.5 0 3.8 1.9 7.1 4.9 9.1-1.8 0-3.5-.5-4.9-1.4v.1C2.2 20.6 6 25 11 26c-1 .3-2 .4-3 .4-.7 0-1.4-.1-2.1-.2 1.4 4.3 5.4 7.5 10.2 7.6-3.7 2.9-8.4 4.7-13.6 4.7-.9 0-1.7 0-2.6-.1 4.8 3.1 10.6 4.9 16.7 4.9 20.1 0 31.1-16.6 31.1-31v-1.4c2.2-1.7 4.1-3.6 5.5-5.8zm0 0"/></svg>