<svg id="Слой_1" xmlns="http://www.w3.org/2000/svg" viewBox="0 0 56.6 56.6"><style>.st0{fill:#262626}</style><path class="st0" d="M39.8 0H16.9C7.6 0 0 7.6 0 16.9v22.9c0 9.3 7.6 16.9 16.9 16.9h22.9c9.3 0 16.9-7.6 16.9-16.9V16.9C56.6 7.6 49.1 0 39.8 0zm11.1 39.8c0 6.2-5 11.2-11.2 11.2H16.9c-6.2 0-11.2-5-11.2-11.2V16.9c0-6.2 5-11.2 11.2-11.2h22.9c6.2 0 11.2 5 11.2 11.2v22.9zm0 0"/><path class="st0" d="M28.3 13.7c-8.1 0-14.6 6.6-14.6 14.6 0 8.1 6.6 14.6 14.6 14.6S43 36.4 43 28.3s-6.6-14.6-14.7-14.6zm0 23.6c-4.9 0-9-4-9-9 0-4.9 4-9 9-9 4.9 0 9 4 9 9s-4 9-9 9zm18.2-23.5c0 1.9-1.6 3.5-3.5 3.5s-3.5-1.6-3.5-3.5 1.6-3.5 3.5-3.5 3.5 1.5 3.5 3.5zm0 0"/></svg>