<svg id="Слой_1" xmlns="http://www.w3.org/2000/svg" viewBox="0 0 251.3 62.8"><style>.st0{fill-rule:evenodd;clip-rule:evenodd}.st0,.st1{fill:#0d0f0f}.st2{fill-rule:evenodd;clip-rule:evenodd;fill:#74b65f}</style><path class="st0" d="M247.2 56.9v.5h1.7v5.3h.5v-5.3h1.7v-.5h-3.9zm-3.5 0v5.8h3v-.5h-2.4V60h2.2v-.5h-2.2v-2.1h2.3v-.5h-2.9zm-5 0v.5h1.7v5.3h.5v-5.3h1.7v-.5h-3.9zm-5.2 0v5.8h.6l2.8-4.5.3-.5v5h.5v-5.8h-.6l-2.8 4.5-.3.6v-5h-.5v-.1zm-1.1 5.2c-.4.2-1 .3-1.5.3-1.2 0-2.3-.9-2.3-2.4s.9-2.6 2.3-2.6c.2 0 .7 0 1.3.2v-.5c-.4-.2-.8-.2-1.3-.2-2.1 0-3 1.5-3 3s.9 2.9 2.9 2.9c.6 0 1.1-.1 1.4-.2v-.5h.2zm-7.8-4.7h.8c.1 0 1.3 0 1.3 1.2 0 1.1-.9 1.2-1.3 1.2h-.8v-2.4zm-.5-.5v5.8h.5v-2.4h1c1.1 0 1.7-.7 1.7-1.7s-.7-1.7-1.7-1.7h-1.5zm-4.2 0v5.8h3v-.5h-2.4V60h2.2v-.5h-2.2v-2.1h2.3v-.5h-2.9zm-4.2 3.1h.9c.8 0 1.3.4 1.3 1.1 0 1.1-.9 1.1-1.4 1.1h-.9V60h.1zm0-2.6h.9c.6 0 1.2.3 1.2 1 0 .6-.4 1.1-1.2 1.1h-.9v-2.1zm-.6-.5v5.8h1.5c.3 0 1.9 0 1.9-1.6 0-.7-.5-1.2-1.2-1.4.8-.2 1-.8 1-1.3 0-.8-.5-1.5-1.7-1.5h-1.5zm-5.9 0v5.8h.6l2.8-4.5.3-.5v5h.5v-5.8h-.6l-2.8 4.5-.3.6v-5h-.5v-.1zm-5.7 0v5.8h.5V60h3v2.8h.5V57h-.5v2.6h-3V57h-.5v-.1zm-5.7 0l2.1 4.4-.1.3c-.2.5-.3.7-.6.7-.2 0-.3 0-.5-.1v.5c.2.1.4.1.6.1.7 0 .9-.5 1.1-1l2-4.9h-.6l-1.3 3.1-.3.7-.3-.7-1.5-3.1h-.6zm-6.1-1.3l-.2.3c.3.4.7.6 1.2.6s.9-.2 1.2-.6l-.2-.3c-.4.4-.7.5-1 .5-.2 0-.6-.1-1-.5zm-1.1 1.3v5.8h.6l2.8-4.5.3-.5v5h.5v-5.8h-.6l-2.8 4.5-.3.6v-5h-.5v-.1zm-5.9 0v5.8h.6l2.8-4.5.3-.5v5h.5v-5.8h-.6l-2.8 4.5-.3.6v-5h-.5v-.1zm-5.3 0v5.8h.5v-2.9l.1.2 2.8 2.8h.8l-3.1-3 2.8-2.7h-.7l-2.5 2.5-.2.2v-2.6h-.5v-.3zm-1 5.2c-.4.2-1 .3-1.5.3-1.2 0-2.3-.9-2.3-2.4s.9-2.6 2.3-2.6c.2 0 .7 0 1.3.2v-.5c-.4-.2-.8-.2-1.3-.2-2.1 0-3 1.5-3 3s.9 2.9 2.9 2.9c.6 0 1.1-.1 1.4-.2v-.5h.2zm-8.2-5.2v5.8h3v-.5h-2.4V60h2.2v-.5h-2.2v-2.1h2.3v-.5h-2.9zm-5.6 0v1.9c0 .5.1 1.5 1.9 1.5.4 0 .8 0 1.2-.1h.3v2.5h.5v-5.8h-.5v2.8h-.3c-.4.1-.7.1-1.1.1-.3 0-1.4 0-1.4-1v-1.9h-.6zm-5.5 0v5.8h.6l2.8-4.5.3-.5v5h.5v-5.8h-.6l-2.8 4.5-.3.6v-5h-.5v-.1zm-5.8 0v5.8h.5V60h3v2.8h.5V57h-.5v2.6h-3V57h-.5v-.1zm-5.8 0l2 2.7-2.1 3.1h.7l1.5-2.1.3-.6.3.6 1.5 2.1h.7l-2.2-3.1 2-2.7h-.6L150 59l-.2.3-.2-.3-1.5-2.1h-.6zm-3.7 0v5.8h3v-.5h-2.4V60h2.2v-.5h-2.2v-2.1h2.3v-.5h-2.9zm-4.9 0v.5h1.7v5.3h.5v-5.3h1.7v-.5h-3.9zm-5.3 0v5.8h.6l2.8-4.5.3-.5v5h.5v-5.8h-.6l-2.8 4.5-.3.6v-5h-.5v-.1zm-4.9 0v2c0 1 .1 3.4-.9 3.4h-.3v.5c.2 0 .3.1.4.1 1.4 0 1.4-1.9 1.4-3.8v-1.5h2.2v5.3h.5v-5.8h-3.3v-.2zm-6.5 2.9c0-1.7 1-2.5 2-2.5s2 .8 2 2.5-1 2.5-2 2.5-2-.7-2-2.5zm-.6 0c0 1.9 1.1 2.9 2.6 2.9s2.6-1 2.6-2.9c0-1.6-.8-3-2.6-3-1.7.1-2.6 1.5-2.6 3zm-5.4-2.9v5.8h.5v-5.3h3v5.3h.5v-5.8h-4zm-6.6-1.3l-.2.3c.3.4.7.6 1.2.6s.9-.2 1.2-.6l-.2-.3c-.4.4-.7.5-1 .5-.3 0-.7-.1-1-.5zm-1.2 1.3v5.8h.6l2.8-4.5.3-.5v5h.5v-5.8h-.6l-2.8 4.5-.3.6v-5h-.5v-.1zm-5.9 0v5.8h.6l2.8-4.5.3-.5v5h.5v-5.8h-.6l-2.8 4.5-.3.6v-5h-.5v-.1zm-5.2 0v5.8h.5v-2.9l.2.2 2.8 2.8h.8l-3.1-3 2.8-2.7h-.7L98 59.4l-.2.2V57h-.5v-.1zm-1.1 5.2c-.4.2-1 .3-1.5.3-1.2 0-2.3-.9-2.3-2.4s.9-2.6 2.3-2.6c.2 0 .7 0 1.3.2v-.5c-.4-.2-.8-.2-1.3-.2-2.1 0-3 1.5-3 3s.9 2.9 2.9 2.9c.6 0 1.1-.1 1.4-.2l.2-.5zm-8.7.1l-.2-.8-1.9-4.5h-.9v5.8h.5v-5.3l.3.8 1.9 4.5h.6l1.9-4.5.3-.8v5.3h.5v-5.8h-.9l-1.9 4.5-.2.8zm-8.9-2.4c0-1.7 1-2.5 2-2.5s2 .8 2 2.5-1 2.5-2 2.5-2-.7-2-2.5zm-.6 0c0 1.9 1.1 2.9 2.6 2.9s2.6-1 2.6-2.9c0-1.6-.9-3-2.6-3-1.8.1-2.6 1.5-2.6 3zm-4.6-2.9v.5h1.7v5.3h.5v-5.3h1.7v-.5h-3.9z"/><path class="st1" d="M83.9 26.2c0 .1 0 .2-.1.2 0 0-.1.1-.3.1h-1.7c-.2 0-.3-.1-.3-.3v-8.7h-4.3v8.7c0 .1 0 .2-.1.2 0 0-.1.1-.3.1h-1.7c-.2 0-.3-.1-.3-.3v-9.7c0-.4.1-.6.2-.8.2-.2.4-.3.8-.3h7.1c.4 0 .6.1.8.3.1.2.2.4.2.8v9.7zm9.9-3.9c0 1.4-.3 2.5-1 3.2-.7.8-1.7 1.1-3 1.1-1.4 0-2.4-.4-3-1.1-.6-.8-1-1.8-1-3.2 0-.7.1-1.3.3-1.8.2-.5.4-1 .8-1.4.3-.4.8-.7 1.3-.9s1.1-.3 1.7-.3c1.3 0 2.3.4 3 1.2s.9 1.9.9 3.2zm-2.4.1c0-.4 0-.7-.1-1-.1-.3-.1-.6-.3-.8-.1-.2-.3-.4-.5-.5-.2-.1-.5-.2-.7-.2-.6 0-1 .2-1.2.6s-.4 1-.4 1.7c0 .8.1 1.4.4 1.8.2.4.7.6 1.2.6.3 0 .5-.1.8-.2.2-.1.4-.3.5-.5.1-.2.2-.5.3-.8v-.7zm10.6-4.2c.4 0 .6.1.8.2.1.2.2.4.2.7v7.1c0 .1 0 .2-.1.2 0 0-.1.1-.3.1H101c-.1 0-.2 0-.3-.1 0 0-.1-.1-.1-.2v-6.1h-2v.8c-.1.9-.1 1.7-.2 2.4s-.2 1.2-.4 1.7-.5.9-.9 1.2-.9.5-1.5.7c-.1.1-.3.1-.3 0-.1 0-.1-.1-.2-.2l-.4-1.1c-.1-.1-.1-.2-.1-.3 0-.1.1-.1.2-.2.3-.1.5-.3.7-.4.2-.2.3-.4.4-.7.1-.3.2-.7.3-1.2s.1-1.1.2-1.9l.1-1.7c0-.3.1-.6.2-.7.1-.1.4-.2.7-.2h4.6zm3.1.3c0-.2.1-.3.3-.3h1.9s.1.1.1.2v4.9h.1c.2-.3.4-.6.5-.8.1-.2.2-.4.3-.5.1-.1.2-.3.2-.4s.1-.2.2-.3c.2-.3.4-.7.7-1.1.3-.4.6-.9.9-1.5.1-.1.1-.2.2-.3l.2-.2c.1 0 .1-.1.2-.1h1.1c.3 0 .5.1.7.2.1.1.2.4.2.7v7.2c0 .1 0 .2-.1.2h-2.1s-.1-.1-.1-.2v-4.8h-.1c-.2.4-.5.7-.7 1.1s-.4.7-.7 1.1c-.2.4-.5.8-.7 1.2-.2.4-.5.8-.7 1.2-.1.2-.3.4-.4.4s-.3.1-.6.1h-.7c-.4 0-.6-.1-.7-.2-.1-.1-.2-.4-.2-.7v-7.1zm12.2 7.7c0 .1 0 .2-.1.3s-.1.1-.3.1h-1.6c-.2 0-.4-.1-.4-.3v-5.6c0-.3 0-.6.1-.9s.2-.6.4-.8c.2-.2.4-.4.8-.5.3-.1.8-.2 1.3-.2h3.7c.1 0 .2 0 .2.1 0 0 .1.1.1.3v1.1c0 .1 0 .2-.1.3 0 .1-.1.1-.2.1h-3c-.4 0-.6.1-.7.2-.1.1-.2.4-.2.6v5.2zm13.1-3.9c0 1.4-.3 2.5-1 3.2-.7.8-1.7 1.1-3 1.1-1.4 0-2.4-.4-3-1.1-.6-.8-1-1.8-1-3.2 0-.7.1-1.3.3-1.8.2-.5.4-1 .8-1.4.3-.4.8-.7 1.3-.9s1.1-.3 1.7-.3c1.3 0 2.3.4 3 1.2s.9 1.9.9 3.2zm-2.4.1c0-.4 0-.7-.1-1-.1-.3-.1-.6-.3-.8-.1-.2-.3-.4-.5-.5-.2-.1-.5-.2-.7-.2-.6 0-1 .2-1.2.6s-.4 1-.4 1.7c0 .8.1 1.4.4 1.8.2.4.7.6 1.2.6.3 0 .5-.1.8-.2.2-.1.4-.3.5-.5.1-.2.2-.5.3-.8v-.7zm6.4 4.1s-.1.1-.3.1h-1.6c-.2 0-.3-.1-.3-.3v-7.7c0-.2.1-.3.3-.3h1.6c.1 0 .2 0 .3.1 0 0 .1.1.1.2v2.7h3v-2.7c0-.2.1-.3.4-.3h1.6c.1 0 .2 0 .3.1 0 0 .1.1.1.2v7.7c0 .1 0 .2-.1.3 0 0-.1.1-.3.1h-1.6c-.2 0-.4-.1-.4-.3V23h-3v3.2c0 .2 0 .2-.1.3zm12-8c0-.2.1-.3.3-.3h1.9s.1.1.1.2v4.9h.1c.2-.3.4-.6.5-.8.1-.2.2-.4.3-.5.1-.1.2-.3.2-.4s.1-.2.2-.3c.2-.3.4-.7.7-1.1.3-.4.6-.9.9-1.5.1-.1.1-.2.2-.3l.2-.2c.1 0 .1-.1.2-.1h1.1c.3 0 .5.1.7.2.1.1.2.4.2.7v7.2c0 .1 0 .2-.1.2H152s-.1-.1-.1-.2v-4.8h-.1c-.2.4-.5.7-.7 1.1s-.4.7-.7 1.1c-.2.4-.5.8-.7 1.2-.2.4-.5.8-.7 1.2-.1.2-.3.4-.4.4s-.3.1-.6.1h-.7c-.4 0-.6-.1-.7-.2-.1-.1-.2-.4-.2-.7v-7.1zm12.1 8s-.1.1-.3.1h-1.6c-.2 0-.3-.1-.3-.3v-7.7c0-.2.1-.3.3-.3h1.6c.1 0 .2 0 .3.1 0 0 .1.1.1.2v2.7h3v-2.7c0-.2.1-.3.4-.3h1.6c.1 0 .2 0 .3.1 0 0 .1.1.1.2v7.7c0 .1 0 .2-.1.3 0 0-.1.1-.3.1H162c-.2 0-.4-.1-.4-.3V23h-3v3.2c0 .2 0 .2-.1.3zm11.8-3.6h-.6c-.3 0-.6.1-.8.2-.2.1-.4.4-.5.7l-.7 2.4c0 .1-.1.1-.1.2h-2c-.1 0-.2 0-.2-.1v-.2l.8-2.7c.1-.2.1-.3.2-.5s.1-.3.2-.4c.1-.1.2-.2.4-.3.1-.1.3-.2.6-.2-.3-.1-.6-.3-.7-.6-.2-.3-.3-.6-.4-.9l-.6-2.1v-.2c0-.1.1-.1.2-.1h2s.1.1.1.2l.5 1.7c.1.4.3.7.6.9.2.1.5.2.8.2h.5v-2.8c0-.1 0-.2.1-.2h2.1s.1.1.1.2v2.8h.5c.3 0 .5-.1.8-.2.2-.1.4-.4.6-.9l.5-1.7c0-.1.1-.2.1-.2h2c.1 0 .2 0 .2.1v.2l-.6 2.1c-.1.3-.2.6-.4.9-.2.3-.4.5-.7.6.2.1.4.1.6.2.1.1.3.2.4.3.1.1.2.3.2.4s.1.3.2.5l.8 2.7v.2c0 .1-.1.1-.2.1h-2c-.1 0-.1-.1-.1-.2l-.7-2.4c-.1-.3-.3-.6-.5-.7-.2-.1-.5-.2-.8-.2h-.6v3.3c0 .1 0 .2-.1.2H171s-.1-.1-.1-.2v-3.3zm12.3-4.9c1.2 0 2.2.3 2.8.9.6.6.9 1.5.9 2.7 0 .6-.1.9-.3 1.1-.2.2-.5.3-.9.3H181c0 .3.1.6.2.8s.2.4.4.5l.6.3c.2.1.5.1.7.1.3 0 .6 0 .9-.1l.9-.3c.1 0 .2-.1.3 0 0 0 .1.1.1.2l.5 1.1c0 .1.1.2 0 .2 0 .1-.1.1-.2.2-.4.3-.8.4-1.4.5-.5.1-1 .2-1.4.2-1.4 0-2.4-.3-3.1-1s-1-1.8-1-3.3c0-.7.1-1.3.3-1.9.2-.5.4-1 .8-1.4.3-.4.8-.7 1.2-.9.7-.1 1.2-.2 1.8-.2zm.1 1.9c-.4 0-.8.2-1.1.5s-.4.7-.5 1.2h3c0-.2 0-.4-.1-.7 0-.2-.1-.4-.2-.5-.1-.1-.2-.3-.4-.3-.2-.2-.4-.2-.7-.2zm7.6 6.6s-.1.1-.3.1h-1.6c-.2 0-.3-.1-.3-.3v-7.7c0-.2.1-.3.3-.3h1.6c.1 0 .2 0 .3.1 0 0 .1.1.1.2v2.7h3v-2.7c0-.2.1-.3.4-.3h1.6c.1 0 .2 0 .3.1 0 0 .1.1.1.2v7.7c0 .1 0 .2-.1.3 0 0-.1.1-.3.1h-1.6c-.2 0-.4-.1-.4-.3V23h-3v3.2c-.1.2-.1.2-.1.3zm11-8.5c1.2 0 2.2.3 2.8.9.6.6.9 1.5.9 2.7 0 .6-.1.9-.3 1.1-.2.2-.5.3-.9.3h-4.1c0 .3.1.6.2.8s.2.4.4.5l.6.3c.2.1.5.1.7.1.3 0 .6 0 .9-.1l.9-.3c.1 0 .2-.1.3 0 0 0 .1.1.1.2l.5 1.1c0 .1.1.2 0 .2 0 .1-.1.1-.2.2-.4.3-.8.4-1.4.5-.5.1-1 .2-1.4.2-1.4 0-2.4-.3-3.1-1s-1-1.8-1-3.3c0-.7.1-1.3.3-1.9.2-.5.4-1 .8-1.4.3-.4.8-.7 1.2-.9.6-.1 1.2-.2 1.8-.2zm0 1.9c-.4 0-.8.2-1.1.5s-.4.7-.5 1.2h3c0-.2 0-.4-.1-.7 0-.2-.1-.4-.2-.5-.1-.1-.2-.3-.4-.3-.2-.2-.4-.2-.7-.2zm7.7 9.6c0 .1 0 .2-.1.2h-2.2c-.1 0-.1-.1-.1-.2V19.1c0-.1 0-.2.1-.3 0-.1.1-.1.3-.2.5-.2 1.1-.4 1.7-.5s1.2-.1 1.8-.1c.8 0 1.4.1 1.9.3.5.2.9.5 1.2.9.3.4.5.8.7 1.4s.2 1.1.2 1.7c0 .6-.1 1.2-.2 1.7s-.4 1-.7 1.4c-.3.4-.7.7-1.2.9-.5.2-1 .3-1.7.3h-.9c-.3 0-.6-.1-.9-.2v3.1zm3.1-7.2c0-.4 0-.8-.1-1.1s-.2-.5-.4-.7c-.2-.2-.4-.3-.6-.4s-.5-.1-.8-.1h-.6c-.3 0-.4.1-.6.1v4.3c.3.1.5.1.7.1h.6c.5 0 1-.2 1.3-.5.3-.2.5-.8.5-1.7zm6.4 4.2s-.1.1-.3.1h-1.6c-.2 0-.3-.1-.3-.3v-7.7c0-.2.1-.3.3-.3h1.6c.1 0 .2 0 .3.1 0 0 .1.1.1.2v2.7h3v-2.7c0-.2.1-.3.4-.3h1.6c.1 0 .2 0 .3.1 0 0 .1.1.1.2v7.7c0 .1 0 .2-.1.3 0 0-.1.1-.3.1H222c-.2 0-.4-.1-.4-.3V23h-3v3.2c0 .2-.1.2-.1.3zm15.1-4.2c0 1.4-.3 2.5-1 3.2-.7.8-1.7 1.1-3 1.1-1.4 0-2.4-.4-3-1.1-.6-.8-1-1.8-1-3.2 0-.7.1-1.3.3-1.8.2-.5.4-1 .8-1.4.3-.4.8-.7 1.3-.9s1.1-.3 1.7-.3c1.3 0 2.3.4 3 1.2s.9 1.9.9 3.2zm-2.4.1c0-.4 0-.7-.1-1-.1-.3-.1-.6-.3-.8-.1-.2-.3-.4-.5-.5-.2-.1-.5-.2-.7-.2-.6 0-1 .2-1.2.6s-.4 1-.4 1.7c0 .8.1 1.4.4 1.8.2.4.7.6 1.2.6.3 0 .5-.1.8-.2.2-.1.4-.3.5-.5.1-.2.2-.5.3-.8v-.7zm6.4 3.8c0 .1 0 .2-.1.3s-.1.1-.3.1h-1.6c-.2 0-.4-.1-.4-.3v-5.6c0-.3 0-.6.1-.9s.2-.6.4-.8c.2-.2.4-.4.8-.5.3-.1.8-.2 1.3-.2h3.7c.1 0 .2 0 .2.1 0 0 .1.1.1.3v1.1c0 .1 0 .2-.1.3 0 .1-.1.1-.2.1h-3c-.4 0-.6.1-.7.2-.1.1-.2.4-.2.6v5.2zm13.2-3.9c0 1.4-.3 2.5-1 3.2-.7.8-1.7 1.1-3 1.1-1.4 0-2.4-.4-3-1.1-.6-.8-1-1.8-1-3.2 0-.7.1-1.3.3-1.8.2-.5.4-1 .8-1.4.3-.4.8-.7 1.3-.9s1.1-.3 1.7-.3c1.3 0 2.3.4 3 1.2s.9 1.9.9 3.2zm-2.4.1c0-.4 0-.7-.1-1-.1-.3-.1-.6-.3-.8-.1-.2-.3-.4-.5-.5-.2-.1-.5-.2-.7-.2-.6 0-1 .2-1.2.6s-.4 1-.4 1.7c0 .8.1 1.4.4 1.8.2.4.7.6 1.2.6.3 0 .5-.1.8-.2.2-.1.4-.3.5-.5.1-.2.2-.5.3-.8v-.7zM82.3 41c0 .1 0 .2-.1.2 0 0-.1.1-.3.1h-1.7c-.2 0-.3-.1-.3-.3v-6.2h-3V41c0 .1 0 .2-.1.2 0 0-.1.1-.3.1H75c-.2 0-.3-.1-.3-.3v-7.1c0-.3.1-.5.2-.6.1-.2.4-.3.7-.3h5.9c.4 0 .6.1.7.3.1.2.2.4.2.6V41zm4.4 3.3c0 .1 0 .2-.1.2h-2.2c-.1 0-.1-.1-.1-.2V33.9c0-.1 0-.2.1-.3 0-.1.1-.1.3-.2.5-.2 1.1-.4 1.7-.5s1.2-.1 1.8-.1c.8 0 1.4.1 1.9.3.5.2.9.5 1.2.9.3.4.5.8.7 1.4s.2 1.1.2 1.7c0 .6-.1 1.2-.2 1.7s-.4 1-.7 1.4c-.3.4-.7.7-1.2.9-.5.2-1 .3-1.7.3h-.9c-.3 0-.6-.1-.9-.2v3.1zm3.1-7.2c0-.4 0-.8-.1-1.1s-.2-.5-.4-.7c-.2-.2-.4-.3-.6-.4s-.5-.1-.8-.1h-.6c-.3 0-.4.1-.6.1v4.3c.3.1.5.1.7.1h.6c.5 0 1-.2 1.3-.5.3-.2.5-.9.5-1.7zm7.8-4.3c1.2 0 2.2.3 2.8.9.6.6.9 1.5.9 2.7 0 .6-.1.9-.3 1.1-.2.2-.5.3-.9.3H96c0 .3.1.6.2.8s.2.4.4.5l.6.3c.2.1.5.1.7.1.3 0 .6 0 .9-.1l.9-.3c.1 0 .2-.1.3 0 0 0 .1.1.1.2l.5 1.1c0 .1.1.2 0 .2 0 .1-.1.1-.2.2-.4.3-.8.4-1.4.5-.5.1-1 .2-1.4.2-1.4 0-2.4-.3-3.1-1s-1-1.8-1-3.3c0-.7.1-1.3.3-1.9.2-.5.4-1 .8-1.4.3-.4.8-.7 1.2-.9.6-.1 1.2-.2 1.8-.2zm0 1.9c-.4 0-.8.2-1.1.5s-.4.7-.5 1.2h3c0-.2 0-.4-.1-.7 0-.2-.1-.4-.2-.5-.1-.1-.2-.3-.4-.3-.1-.2-.4-.2-.7-.2zm5.5 4.8c.3-.3.5-.6.6-1.1.1-.4.2-1 .3-1.5l.4-3c0-.3.1-.5.3-.7.1-.2.4-.2.8-.2h4.2c.4 0 .7.1.8.2s.2.4.2.7v5.6h.5c.2 0 .4.1.4.2.1.1.1.3.1.4l-.2 3.3c0 .2-.1.2-.3.2h-1.4c-.1 0-.2 0-.2-.1 0 0-.1-.1-.1-.2l-.1-2.2h-5.3c0 .4 0 .7-.1 1.1 0 .4 0 .7-.1 1.1 0 .1 0 .2-.1.2s-.1.1-.2.1h-1.4c-.2 0-.2-.1-.2-.2l-.2-3.3c0-.2 0-.3.1-.4.1-.1.2-.2.4-.2h.8zm5.3-4.6h-2c-.1 1.3-.3 2.3-.4 3.1-.1.7-.3 1.3-.5 1.6h2.9v-4.7zM121 41c0 .1 0 .2-.1.2 0 0-.1.1-.3.1H119c-.2 0-.3-.1-.3-.3v-6.2h-3V41c0 .1 0 .2-.1.2 0 0-.1.1-.3.1h-1.6c-.2 0-.3-.1-.3-.3v-7.1c0-.3.1-.5.2-.6.1-.2.4-.3.7-.3h5.9c.4 0 .6.1.7.3.1.2.2.4.2.6V41zm4.4 3.3c0 .1 0 .2-.1.2h-2.2c-.1 0-.1-.1-.1-.2V33.9c0-.1 0-.2.1-.3 0-.1.1-.1.3-.2.5-.2 1.1-.4 1.7-.5s1.2-.1 1.8-.1c.8 0 1.4.1 1.9.3.5.2.9.5 1.2.9.3.4.5.8.7 1.4s.2 1.1.2 1.7c0 .6-.1 1.2-.2 1.7s-.4 1-.7 1.4c-.3.4-.7.7-1.2.9-.5.2-1 .3-1.7.3h-.9c-.3 0-.6-.1-.9-.2v3.1zm3.1-7.2c0-.4 0-.8-.1-1.1s-.2-.5-.4-.7c-.2-.2-.4-.3-.6-.4s-.5-.1-.8-.1h-.6c-.3 0-.4.1-.6.1v4.3c.3.1.5.1.7.1h.6c.5 0 1-.2 1.3-.5.4-.2.5-.9.5-1.7zm4.2-3.9c0-.2.1-.3.3-.3h1.9s.1.1.1.2V38h.1c.2-.3.4-.6.5-.8.1-.2.2-.4.3-.5.1-.1.2-.3.2-.4s.1-.2.2-.3c.2-.3.4-.7.7-1.1.3-.4.6-.9.9-1.5.1-.1.1-.2.2-.3l.2-.2c.1 0 .1-.1.2-.1h1.1c.3 0 .5.1.7.2.1.1.2.4.2.7V41c0 .1 0 .2-.1.2h-2.1s-.1-.1-.1-.2v-4.8h-.1c-.2.4-.5.7-.7 1.1s-.4.7-.7 1.1c-.2.4-.5.8-.7 1.2-.2.4-.5.8-.7 1.2-.1.2-.3.4-.4.4s-.3.1-.6.1h-.7c-.4 0-.6-.1-.7-.2-.1-.1-.2-.4-.2-.7v-7.2zm12.1 8s-.1.1-.3.1H143c-.2 0-.3-.1-.3-.3v-7.7c0-.2.1-.3.3-.3h1.6c.1 0 .2 0 .3.1 0 0 .1.1.1.2V36h3v-2.7c0-.2.1-.3.4-.3h1.6c.1 0 .2 0 .3.1 0 0 .1.1.1.2V41c0 .1 0 .2-.1.3 0 0-.1.1-.3.1h-1.6c-.2 0-.4-.1-.4-.3v-3.2h-3V41c-.1.1-.1.2-.2.2zm7.4-8c0-.2.1-.3.3-.3h1.9s.1.1.1.2V38h.1c.2-.3.4-.6.5-.8.1-.2.2-.4.3-.5.1-.1.2-.3.2-.4s.1-.2.2-.3c.2-.3.4-.7.7-1.1.3-.4.6-.9.9-1.5.1-.1.1-.2.2-.3l.2-.2c.1 0 .1-.1.2-.1h1.1c.3 0 .5.1.7.2.1.1.2.4.2.7V41c0 .1 0 .2-.1.2h-2.1s-.1-.1-.1-.2v-4.8h-.1c-.2.4-.5.7-.7 1.1s-.4.7-.7 1.1c-.2.4-.5.8-.7 1.2-.2.4-.5.8-.7 1.2-.1.2-.3.4-.4.4s-.3.1-.6.1h-.7c-.4 0-.6-.1-.7-.2-.1-.1-.2-.4-.2-.7v-7.2zm17.6 3.4l-.7 1.5-.8 1.7c-.1.2-.2.4-.3.4-.1.1-.3.1-.5.1h-.8c-.2 0-.4 0-.5-.1-.1-.1-.2-.2-.3-.4l-.8-1.7-.6-1.5h-.1V41c0 .1 0 .2-.1.3h-2.2c-.1 0-.1-.1-.1-.3v-7.1c0-.6.3-.9 1-.9h1c.2 0 .4 0 .6.1.2.1.3.2.4.5l1.1 2.4.8 1.8h.1l.9-2 1.1-2.2c.1-.3.3-.5.4-.6s.4-.2.7-.2h.9c.6 0 1 .3 1 .9V41c0 .1 0 .2-.1.3h-2.2c-.1 0-.1-.1-.1-.3l.2-4.4zm11.4 3.7c0 .1 0 .3-.1.3 0 .1-.1.2-.3.3-.2.1-.5.2-.8.3s-.6.1-.9.2c-.3 0-.6.1-.9.1h-.8c-.7 0-1.3-.1-1.8-.2s-.8-.3-1.1-.6c-.3-.2-.5-.5-.6-.8-.1-.3-.2-.7-.2-1 0-.4.1-.8.2-1.1.1-.3.3-.6.6-.9.3-.3.6-.5 1-.6.4-.1.9-.2 1.5-.2h1.7v-.7c0-.1-.1-.3-.2-.4s-.2-.2-.4-.2c-.2-.1-.4-.1-.7-.1h-.5c-.2 0-.4 0-.6.1-.2 0-.4.1-.6.1-.2 0-.4.1-.5.1h-.3c-.1 0-.1-.1-.1-.2l-.3-1.1v-.2s.1-.1.2-.1c.5-.2 1-.3 1.5-.4.5-.1 1-.1 1.6-.1 1.2 0 2 .2 2.5.7s.8 1.2.8 2.2v4.5zm-2.3-2.8h-1.8c-.2 0-.3.1-.5.2-.1.1-.3.2-.4.3-.1.1-.1.3-.1.6 0 .4.1.6.4.8.2.1.6.2 1 .2h.6c.1 0 .2 0 .4-.1.1 0 .2-.1.3-.1v-1.9zm8.4-2.7V41c0 .1 0 .2-.1.3 0 0-.1.1-.3.1h-1.6c-.2 0-.4-.1-.4-.3V35h-2.3c-.2 0-.3-.1-.3-.3v-1.2c0-.1 0-.2.1-.3 0 0 .1-.1.3-.1h6.9c.1 0 .2 0 .3.1 0 0 .1.1.1.3v1.2c0 .2-.1.3-.3.3h-2.4zm7.5-2c1.2 0 2.2.3 2.8.9.6.6.9 1.5.9 2.7 0 .6-.1.9-.3 1.1-.2.2-.5.3-.9.3h-4.1c0 .3.1.6.2.8s.2.4.4.5l.6.3c.2.1.5.1.7.1.3 0 .6 0 .9-.1l.9-.3c.1 0 .2-.1.3 0 0 0 .1.1.1.2l.5 1.1c0 .1.1.2 0 .2 0 .1-.1.1-.2.2-.4.3-.8.4-1.4.5-.5.1-1 .2-1.4.2-1.4 0-2.4-.3-3.1-1s-1-1.8-1-3.3c0-.7.1-1.3.3-1.9.2-.5.4-1 .8-1.4.3-.4.8-.7 1.2-.9.6-.1 1.1-.2 1.8-.2zm0 1.9c-.4 0-.8.2-1.1.5s-.4.7-.5 1.2h3c0-.2 0-.4-.1-.7 0-.2-.1-.4-.2-.5-.1-.1-.2-.3-.4-.3-.2-.2-.4-.2-.7-.2zm11.8-1.7c.4 0 .6.1.8.2.1.2.2.4.2.7V41c0 .1 0 .2-.1.2 0 0-.1.1-.3.1h-1.6c-.1 0-.2 0-.3-.1 0 0-.1-.1-.1-.2v-6.1h-2v.8c-.1.9-.1 1.7-.2 2.4s-.2 1.2-.4 1.7-.5.9-.9 1.2-.9.5-1.5.7c-.1.1-.3.1-.3 0-.1 0-.1-.1-.2-.2l-.4-1.1c-.1-.1-.1-.2-.1-.3 0-.1.1-.1.2-.2.3-.1.5-.3.7-.4.2-.2.3-.4.4-.7.1-.3.2-.7.3-1.2s.1-1.1.2-1.9l.1-1.7c0-.3.1-.6.2-.7.1-.1.4-.2.7-.2h4.6zm4 8.3c-.4 0-.7-.1-.8-.2s-.2-.4-.2-.7v-7.1c0-.2.1-.3.3-.3h1.6c.1 0 .2 0 .3.1 0 0 .1.1.1.2v2.3h2c.8 0 1.4.1 1.8.3.4.2.8.5 1 .8s.4.6.4.9c.1.3.1.6.1.8 0 .4-.1.8-.2 1.1-.2.3-.4.7-.7.9-.3.3-.6.5-1 .6-.4.1-.8.2-1.2.2h-3.5zm4.3-2.9c0-.3-.1-.5-.3-.8-.2-.2-.5-.3-.8-.3h-1.9v2.2h1.9c.2 0 .4 0 .6-.1.1-.1.3-.2.3-.3.1-.1.1-.2.2-.4v-.3zm7.8 1c.3 0 .7 0 1-.1.3-.1.6-.2.8-.2.1-.1.2-.1.3-.1 0 0 .1.1.1.2l.4 1.2c.1.1.1.2.1.3 0 .1-.1.1-.2.2-.5.3-1 .4-1.5.5-.5.1-1 .1-1.4.1-1.2 0-2.2-.4-2.8-1.1-.6-.7-1-1.8-1-3.2 0-.7.1-1.3.3-1.8.2-.5.4-1 .8-1.4.3-.4.8-.7 1.2-.9s1-.3 1.6-.3c.4 0 .9 0 1.3.1s.8.2 1.2.4c.1.1.2.1.2.2s0 .1-.1.3l-.4 1.2c-.1.1-.1.2-.2.2h-.3c-.3-.1-.5-.2-.8-.2-.3-.1-.5-.1-.8-.1-.3 0-.6.1-.8.2-.2.1-.4.3-.5.5-.1.2-.2.5-.3.7-.1.3-.1.6-.1.9 0 .3 0 .6.1.9.1.3.1.5.3.7.1.2.3.4.5.5.4.1.7.1 1 .1zm8.3-4.6V41c0 .1 0 .2-.1.3 0 0-.1.1-.3.1H229c-.2 0-.4-.1-.4-.3V35h-2.3c-.2 0-.3-.1-.3-.3v-1.2c0-.1 0-.2.1-.3 0 0 .1-.1.3-.1h6.9c.1 0 .2 0 .3.1 0 0 .1.1.1.3v1.2c0 .2-.1.3-.3.3H231zm10.2 2c.5.2.8.5 1 .8.2.4.3.7.3 1.1 0 .4-.1.7-.2 1-.2.3-.4.6-.6.8s-.6.4-1 .5c-.4.1-.8.2-1.2.2h-3.7c-.4 0-.6-.1-.8-.2-.1-.1-.2-.3-.2-.6v-6.6c0-.3.1-.5.2-.7.1-.2.4-.2.7-.2h3.7c.4 0 .7 0 1 .1.3.1.6.2.9.4.2.2.4.4.6.7s.2.6.2 1c0 .3-.1.6-.2.9-.2.3-.4.5-.7.8zm-4.1-.7h1.9c.2 0 .3-.1.5-.2s.2-.3.2-.5-.1-.3-.2-.5c-.1-.1-.3-.2-.5-.2h-2v1.4zm3 2.5c0-.3-.1-.5-.2-.7-.2-.2-.4-.3-.8-.3h-2v1.9h2c.2 0 .4 0 .5-.1s.2-.1.3-.2c.1-.1.1-.2.2-.3v-.3zm11.2 1.7c0 .1 0 .3-.1.3 0 .1-.1.2-.3.3-.2.1-.5.2-.8.3s-.6.1-.9.2c-.3 0-.6.1-.9.1h-.8c-.7 0-1.3-.1-1.8-.2s-.8-.3-1.1-.6c-.3-.2-.5-.5-.6-.8-.1-.3-.2-.7-.2-1 0-.4.1-.8.2-1.1.1-.3.3-.6.6-.9.3-.3.6-.5 1-.6.4-.1.9-.2 1.5-.2h1.7v-.7c0-.1-.1-.3-.2-.4s-.2-.2-.4-.2c-.2-.1-.4-.1-.7-.1h-.5c-.2 0-.4 0-.6.1-.2 0-.4.1-.6.1-.2 0-.4.1-.5.1h-.3c-.1 0-.1-.1-.1-.2l-.3-1.1v-.2s.1-.1.2-.1c.5-.2 1-.3 1.5-.4.5-.1 1-.1 1.6-.1 1.2 0 2 .2 2.5.7s.8 1.2.8 2.2v4.5zm-2.3-2.8h-1.8c-.2 0-.3.1-.5.2-.1.1-.3.2-.4.3-.1.1-.1.3-.1.6 0 .4.1.6.4.8.2.1.6.2 1 .2h.6c.1 0 .2 0 .4-.1.1 0 .2-.1.3-.1v-1.9z"/><path class="st2" d="M47.9 0h-33v15.3H0v18.3h20.8c0 5.9 4.7 10.6 10.6 10.6 5.9 0 10.6-4.7 10.6-10.6h20.8V15.3H47.9V0zm-27 15.3V5.7H42v9.5H20.9z"/><path class="st0" d="M0 38.8h15.1c.3 1.1.8 2.1 1.4 3.1L14.3 44c-.4.4-.1.9.3 1.3l5.1 5.1c.4.4.8.6 1.2.2l2.1-2.1c1.2.7 2.4 1.2 3.7 1.5v3c0 .5.4 1 1 1h7.4c.5 0 1-.4 1-1v-3c1.3-.4 2.5-.9 3.7-1.5l2.1 2.1c.4.4 1 .4 1.4 0l5.2-5.2c.4-.4.4-1 0-1.4l-2.1-2.1c.6-1 1-2 1.4-3.1h15v24H0v-24z"/></svg>