<svg id="Слой_1" xmlns="http://www.w3.org/2000/svg" viewBox="0 0 183.2 42.6"><style>.st0{fill-rule:evenodd;clip-rule:evenodd;fill:#363636}</style><path class="st0" d="M54 13.1V5.4h2.8V4.3H50v1.1h2.8v7.7H54zm5.5-4.4c0-1.8 1-3.5 2.9-3.5s2.9 1.7 2.9 3.5-.9 3.5-2.9 3.5-2.9-1.7-2.9-3.5zm-1.4 0c0 2.7 1.6 4.6 4.3 4.6 2.7 0 4.3-1.9 4.3-4.6 0-2.6-1.6-4.6-4.3-4.6-2.7 0-4.3 2-4.3 4.6zm12.2 4.4V5.5l2.9 7.7h1.2l2.9-7.7v7.7h1.3V4.3h-2.1l-2.7 7.4L71 4.3h-2v8.9h1.3v-.1zm17.5-8.6c-.6-.3-1.3-.4-2-.4-2.7 0-4.7 1.8-4.7 4.5 0 2.8 1.9 4.6 4.7 4.6.5 0 1.3 0 2-.3l-.1-1.2c-.4.3-1.3.4-1.9.4-1.8 0-3.3-1.4-3.3-3.5 0-2 1.4-3.5 3.4-3.5.7 0 1.3.2 1.8.5l.1-1.1zm3.4 8.6V8.8l3.9 4.3H97l-4.5-4.7 4.2-4.2H95l-3.8 3.9V4.3h-1.3v8.9h1.3v-.1zm9 0l4.2-6.9v6.9h1.3V4.3h-1.3l-4.2 6.9V4.3h-1.3v8.9h1.3v-.1zm9.7 0l4.2-6.9v6.9h1.3V4.3h-1.3l-4.2 6.9V4.3h-1.3v8.9h1.3v-.1zm3.7-10.9c-.2.3-1.1.5-1.6.5s-1.3-.2-1.5-.5l-.2 1.1c.3.2 1.3.3 1.7.3.5 0 1.5-.1 1.8-.3l-.2-1.1zm-57 25.6h1.3v-8.9h-6.8v8.9h1.3v-7.7h4.2v7.7zm5-4.4c0-1.8 1-3.5 2.9-3.5 2 0 2.9 1.7 2.9 3.5s-.9 3.5-2.9 3.5-2.9-1.8-2.9-3.5zm-1.4 0c0 2.7 1.6 4.6 4.3 4.6 2.7 0 4.3-1.9 4.3-4.6 0-2.6-1.6-4.6-4.3-4.6-2.7 0-4.3 2-4.3 4.6zM71.3 28c2.3 0 2.4-3 2.4-5.3v-2.6h3v7.7H78v-8.9h-5.5v3.2c0 1.9-.1 4.7-1.4 4.7-.2 0-.5 0-.8-.1v1.1c.3.1.6.2 1 .2zm10.9-.2l4.2-6.9v6.9h1.3v-8.9h-1.3l-4.2 6.9v-6.9h-1.3v8.9h1.3zm11.4 0v-7.7h2.8V19h-6.8v1.1h2.8v7.7h1.2zm9.6 0v-1.1h-3.7v-2.9h3.4v-1.1h-3.4v-2.6h3.7V19h-5v8.9h5v-.1zm3 0l2.5-3.8 2.6 3.8h1.6l-3.3-4.6 3-4.2h-1.4l-2.3 3.4-2.4-3.4H105l3 4.3-3.3 4.6h1.5v-.1zm9.9 0v-4h4.2v4h1.3v-8.9h-1.3v3.7h-4.2v-3.7h-1.3v8.9h1.3zm9.7 0L130 21v6.9h1.3V19H130l-4.2 6.9V19h-1.3v8.9h1.3v-.1zm11.9-4.8c-.2.1-.4.1-.7.1-1.6 0-2.2-1.1-2.2-2.7V19h-1.3v1.6c0 2.5 1.3 3.7 3.4 3.7.2 0 .5 0 .7-.1v3.6h1.3v-8.9h-1.3V23h.1zm9.1 4.8v-1.1h-3.7v-2.9h3.4v-1.1h-3.4v-2.6h3.7V19h-5v8.9h5v-.1zm8.8-8.6c-.6-.3-1.3-.4-2-.4-2.7 0-4.7 1.8-4.7 4.5 0 2.8 1.9 4.6 4.7 4.6.5 0 1.3 0 2-.3l-.1-1.2c-.4.3-1.3.4-1.9.4-1.8 0-3.3-1.4-3.3-3.5 0-2 1.4-3.5 3.4-3.5.7 0 1.3.2 1.8.5l.1-1.1zm3.4 8.6v-4.3l3.9 4.3h1.9l-4.5-4.7 4.2-4.2h-1.7l-3.8 3.9v-3.9h-1.3v8.9h1.3zm9 0l4.2-6.9v6.9h1.3v-8.9h-1.3l-4.2 6.9v-6.9h-1.3v8.9h1.3zm9.7 0l4.2-6.9v6.9h1.3v-8.9h-1.3l-4.2 6.9v-6.9h-1.3v8.9h1.3zm3.7-10.9c-.2.3-1.1.5-1.6.5s-1.3-.2-1.5-.5l-.2 1.1c.3.2 1.3.3 1.7.3.5 0 1.5-.1 1.8-.3l-.2-1.1zM56.8 33.6l-2.7 5.2-2.6-5.2H50l3.4 6.5-.1.3c-.2.5-.5 1-1.2 1-.2 0-.4-.1-.6-.1l-.1 1.2c.2 0 .5.1.9.1 1.4 0 1.9-1.2 2.3-1.9l3.7-7h-1.5v-.1zm4.5 8.9v-4h4.2v4h1.3v-8.9h-1.3v3.7h-4.2v-3.7H60v8.9h1.3zm9.8 0l4.2-6.9v6.9h1.3v-8.9h-1.3l-4.2 6.9v-6.9h-1.3v8.9h1.3zm10.6 0c1.8 0 3.4-.5 3.4-2.4 0-1.2-.9-2-2.1-2.1 1.1-.3 1.8-.9 1.8-2.1 0-1.6-1.3-2.2-3.1-2.2h-2.4v8.9h2.4v-.1zm-.3-4c1.1 0 2.3.2 2.3 1.6 0 1.2-1 1.4-2.2 1.4h-1v-3h.9zm.5-3.8c.7 0 1.6.3 1.6 1.3 0 1.3-1.1 1.4-2.3 1.4h-.7v-2.7h1.4zm10.8 7.8v-1.1H89v-2.9h3.4v-1.1H89v-2.6h3.7v-1.1h-5v8.9h5v-.1zm4.9-7.8c.8 0 2 .4 2 1.5 0 1.2-1 1.6-1.8 1.6h-1.3v-3.1h1.1zm-1.1 7.8V39h1.2c1.6 0 3.1-.7 3.1-2.7s-1.5-2.7-3.3-2.7h-2.3v8.9h1.3zm12.6-8.6c-.6-.3-1.3-.4-2-.4-2.7 0-4.7 1.8-4.7 4.5 0 2.8 1.9 4.6 4.7 4.6.5 0 1.3 0 2-.3l-.1-1.2c-.4.3-1.3.4-1.9.4-1.8 0-3.3-1.4-3.3-3.5 0-2 1.4-3.5 3.4-3.5.7 0 1.3.2 1.8.5l.1-1.1zm3.5 8.6l4.2-6.9v6.9h1.3v-8.9h-1.3l-4.2 6.9v-6.9h-1.3v8.9h1.3zm11.4 0v-7.7h2.8v-1.1H120v1.1h2.8v7.7h1.2zm9.6 0v-1.1h-3.7v-2.9h3.4v-1.1h-3.4v-2.6h3.7v-1.1h-5v8.9h5v-.1zm5.6 0v-7.7h2.8v-1.1h-6.8v1.1h2.8v7.7h1.2zM0 15h12.5v27.5H0V15zm15 15h12.5v12.5H15V30zm15-15h12.5v27.5H30V15zM41.3 1.3v10h-10v-10h10zm-15 0v25h-10v-25h10zm-15 0v10h-10v-10h10zM30 0v12.5h12.5V0H30zM15 0v27.5h12.5V0H15zM0 0v12.5h12.5V0H0z"/></svg>