<svg id="Слой_1" xmlns="http://www.w3.org/2000/svg" viewBox="0 0 175.8 43.6"><style>.st0{fill:#d1d3d1}.st1{fill:#bcbcbc}.st2{fill:#74b65f}</style><path class="st0" d="M173.1 39.6v.3h1.2v3.6h.4v-3.6h1.2v-.3h-2.8zm-2.4 0v3.9h2v-.3H171v-1.6h1.5v-.3H171v-1.4h1.5v-.3h-1.8zm-3.4 0v.3h1.2v3.6h.4v-3.6h1.2v-.3h-2.8zm-3.5 0v3.9h.4l1.9-3.1.2-.4v3.5h.4v-3.9h-.4l-1.9 3-.2.4v-3.5l-.4.1zm-.8 3.5c-.3.1-.7.2-1 .2-.9 0-1.6-.6-1.6-1.6s.6-1.8 1.6-1.8c.1 0 .5 0 .9.2v-.3c-.3-.1-.6-.2-.9-.2-1.4 0-2 1-2 2.1 0 1 .6 2 2 2 .4 0 .8-.1 1-.2v-.4zm-5.3-3.2h.6c.1 0 .9 0 .9.8s-.6.8-.9.8h-.6v-1.6zm-.4-.3v3.9h.4v-1.7h.7c.7 0 1.2-.5 1.2-1.1 0-.7-.5-1.1-1.2-1.1h-1.1zm-2.9 0v3.9h2v-.3h-1.7v-1.6h1.5v-.3h-1.5v-1.4h1.5v-.3h-1.8zm-2.8 2.1h.6c.5 0 .9.3.9.8 0 .7-.6.8-1 .8h-.6v-1.6h.1zm0-1.8h.6c.4 0 .8.2.8.7 0 .4-.3.8-.8.8h-.6v-1.5zm-.4-.3v3.9h1c.2 0 1.3 0 1.3-1.1 0-.5-.3-.8-.8-.9.5-.2.7-.5.7-.9 0-.5-.3-1-1.2-1h-1zm-4.1 0v3.9h.4l1.9-3.1.2-.4v3.5h.4v-3.9h-.4l-1.9 3-.2.4v-3.5l-.4.1zm-3.9 0v3.9h.4v-1.9h2.1v1.9h.4v-3.9h-.4v1.7h-2.1v-1.7h-.4zm-3.8 0l1.4 3-.1.2c-.1.3-.2.4-.4.4-.1 0-.2 0-.3-.1v.3c.1.1.3.1.4.1.5 0 .6-.3.8-.7l1.4-3.3h-.4l-.9 2.1-.2.5-.2-.5-1-2.1-.5.1zm-4.2-.9l-.2.2c.2.3.5.4.8.4s.6-.2.8-.4l-.2-.2c-.2.3-.5.3-.7.3 0 0-.2-.1-.5-.3zm-.8.9v3.9h.4l1.9-3.1.2-.4v3.5h.4v-3.9h-.4l-1.9 3-.2.4v-3.5l-.4.1zm-4 0v3.9h.4l1.9-3.1.2-.4v3.5h.4v-3.9h-.4l-1.9 3-.2.4v-3.5l-.4.1zm-3.6 0v3.9h.4v-2l.1.1 1.9 1.9h.5l-2.1-2.1 1.9-1.9h-.5l-1.7 1.7-.1.1v-1.8l-.4.1zm-.7 3.5c-.3.1-.7.2-1 .2-.9 0-1.6-.6-1.6-1.6s.6-1.8 1.6-1.8c.1 0 .5 0 .9.2v-.3c-.3-.1-.6-.2-.9-.2-1.4 0-2 1-2 2.1 0 1 .6 2 2 2 .4 0 .8-.1 1-.2v-.4zm-5.6-3.5v3.9h2v-.3h-1.7v-1.6h1.5v-.3h-1.5v-1.4h1.5v-.3h-1.8zm-3.8 0v1.3c0 .4.1 1 1.3 1 .3 0 .5 0 .8-.1h.2v1.7h.4v-3.9h-.4v1.9h-.2c-.2 0-.5.1-.7.1s-1 0-1-.7v-1.3h-.4zm-3.8 0v3.9h.4l1.9-3.1.2-.4v3.5h.4v-3.9h-.4l-1.9 3-.2.4v-3.5l-.4.1zm-4 0v3.9h.4v-1.9h2.1v1.9h.4v-3.9h-.4v1.7h-2.1v-1.7h-.4zm-3.9 0l1.4 1.9-1.5 2.1h.4l1-1.4.2-.4.2.4 1 1.4h.5l-1.5-2.1 1.3-1.9h-.4l-1 1.4-.1.2-.1-.2-1-1.4h-.4zm-2.5 0v3.9h2v-.3h-1.7v-1.6h1.5v-.3h-1.5v-1.4h1.5v-.3h-1.8zm-3.4 0v.3h1.2v3.6h.4v-3.6h1.2v-.3h-2.8zm-3.6 0v3.9h.4l1.9-3.1.2-.4v3.5h.4v-3.9H98l-1.9 3-.2.4v-3.5l-.4.1zm-3.4 0v1.3c0 .7.1 2.3-.6 2.3h-.2v.3h.3c.9 0 .9-1.3.9-2.6v-1H94v3.6h.4v-3.9h-2.3zm-4.4 2c0-1.2.7-1.7 1.4-1.7s1.4.5 1.4 1.7-.7 1.7-1.4 1.7-1.4-.5-1.4-1.7zm-.4 0c0 1.3.8 2 1.8 2s1.8-.7 1.8-2c0-1.1-.6-2-1.8-2-1.2-.1-1.8.9-1.8 2zm-3.7-2v3.9h.4v-3.6h2v3.6h.4v-3.9h-2.8zm-4.5-.9l-.2.2c.2.3.5.4.8.4s.6-.2.8-.4l-.2-.2c-.2.3-.5.3-.7.3 0 0-.3-.1-.5-.3zm-.8.9v3.9h.4l1.9-3.1.2-.4v3.5h.4v-3.9h-.4l-1.9 3-.3.4v-3.5l-.3.1zm-4.1 0v3.9h.4l1.9-3.1.2-.4v3.5h.4v-3.9h-.4l-1.9 3-.2.4v-3.5l-.4.1zm-3.6 0v3.9h.4v-2l.1.1 1.9 1.9h.5l-2.1-2.1 1.9-1.9h-.5l-1.7 1.7-.1.2v-1.8h-.4zm-.7 3.5c-.3.1-.7.2-1 .2-.9 0-1.6-.6-1.6-1.6s.6-1.8 1.6-1.8c.1 0 .5 0 .9.2v-.3c-.3-.1-.6-.2-.9-.2-1.4 0-2 1-2 2.1 0 1 .6 2 2 2 .4 0 .8-.1 1-.2v-.4zm-5.9.1l-.2-.5-1.3-3.1h-.6v3.9h.4v-3.6l.2.5 1.3 3.1h.4l1.3-3.1.2-.5v3.6h.4v-3.9h-.6l-1.3 3.1-.2.5zm-6.1-1.6c0-1.2.7-1.7 1.4-1.7s1.4.5 1.4 1.7-.7 1.7-1.4 1.7-1.4-.5-1.4-1.7zm-.4 0c0 1.3.8 2 1.8 2s1.8-.7 1.8-2c0-1.1-.6-2-1.8-2-1.2-.1-1.8.9-1.8 2zm-3.2-2v.3h1.2v3.6h.4v-3.6h1.2v-.3h-2.8z"/><path class="st1" d="M61.3 18.6v.2H60v-6.5h-3.4v6.5h-1.3v-6.9c0-.3.1-.4.2-.6.1-.1.3-.2.5-.2h4.6c.5 0 .7.2.7.7v6.8zm6.6-2.7c0 1-.2 1.7-.7 2.2-.4.5-1.1.8-2 .8s-1.5-.3-2-.8-.6-1.2-.6-2.2c0-.5.1-.9.2-1.3s.3-.7.5-.9c.2-.3.5-.4.8-.6.3-.1.7-.2 1.1-.2.9 0 1.5.3 2 .8.5.6.7 1.3.7 2.2zm-1.3.1c0-.3 0-.5-.1-.7 0-.2-.1-.4-.2-.6s-.2-.3-.4-.4c-.2-.1-.4-.2-.6-.2s-.4 0-.6.1-.3.2-.4.4l-.3.6c-.1.2-.1.5-.1.8 0 .6.1 1.1.3 1.4.2.3.5.5 1 .5.3 0 .5-.1.6-.2.2-.1.3-.2.4-.4.1-.2.2-.4.2-.6.2-.2.2-.5.2-.7zm6.7-2.9c.2 0 .4 0 .5.2.1.1.1.3.1.5v4.9c0 .1 0 .1-.1.2s-.1 0-.2 0h-1s-.1-.1-.1-.2v-4.4h-1.7v.7c0 .7-.1 1.3-.2 1.7-.1.5-.2.9-.3 1.2-.1.3-.3.6-.5.7-.2.2-.5.3-.9.4h-.2l-.1-.1-.2-.6v-.2s.1-.1.2-.1c.2-.1.3-.2.5-.3s.2-.3.3-.5c.1-.2.1-.5.2-.9 0-.4.1-.9.1-1.5l.1-1.1c0-.2.1-.4.2-.5s.3-.1.5-.1h2.8zm2 .2v-.1h1.3c.1 0 0 .1 0 .1V17l.7-1.1c0-.1.1-.1.1-.2s.1-.2.2-.4.3-.4.4-.7c.2-.3.4-.7.7-1.2.1-.1.2-.2.2-.3.1-.1.2-.1.4-.1h.4c.2 0 .3 0 .4.1s.1.2.1.4v5.1h-1.3V15h.1l-.7 1-1.6 2.4-.3.3c-.1 0-.2.1-.4.1h-.4c-.4 0-.5-.2-.5-.5v-5h.2zm7.7 5.3v.2h-1.2c-.1 0-.1-.1-.1-.2v-3.7c0-.2 0-.5.1-.7 0-.2.1-.4.3-.6.1-.2.3-.3.5-.4.2-.1.5-.1.9-.1h2.4c.1 0 .2 0 .2.1v1s-.1.1-.2.1h-2.2c-.3 0-.4.1-.5.2s-.2.1-.2.3v3.8zm9-2.7c0 1-.2 1.7-.7 2.2-.4.5-1.1.8-2 .8s-1.5-.3-2-.8-.6-1.2-.6-2.2c0-.5.1-.9.2-1.3s.3-.7.5-.9c.2-.3.5-.4.8-.6.3-.1.7-.2 1.1-.2.9 0 1.5.3 2 .8.4.6.7 1.3.7 2.2zm-1.3.1c0-.3 0-.5-.1-.7 0-.2-.1-.4-.2-.6s-.2-.3-.4-.4c-.2-.1-.4-.2-.6-.2s-.4 0-.6.1-.3.2-.4.4l-.3.6c-.1.2-.1.5-.1.7 0 .6.1 1.1.3 1.4.2.3.5.5 1 .5.3 0 .5-.1.6-.2.2-.1.3-.2.4-.4.1-.2.2-.4.2-.6.1-.1.2-.4.2-.6zm3.7 2.8h-1.2s-.1-.1-.1-.2v-5.3c0-.1 0-.1.1-.2h1.2s.1.1.1.2v1.9h2.4v-1.9c0-.1 0-.1.1-.2h1.2v5.7h-1.4s-.1-.1-.1-.2v-2.3h-2.4v2.3c.1.1.1.1.1.2zm8.1-5.5v-.1h1.3c.1 0 0 .1 0 .1V17l.7-1.1c0-.1.1-.1.1-.2s.1-.2.2-.4.3-.4.4-.7c.2-.3.4-.7.7-1.2.1-.1.2-.2.2-.3.1-.1.2-.1.4-.1h.4c.2 0 .3 0 .4.1s.1.2.1.4v5.1h-1.3V15h-.1l-.7 1-1.6 2.4-.3.3c-.1 0-.2.1-.4.1-.4 0-.5-.2-.5-.5v-5zm7.7 5.5H109s-.1-.1-.1-.2v-5.3c0-.1 0-.1.1-.2h1.2s.1.1.1.2v1.9h2.4v-1.9c0-.1 0-.1.1-.2h1.2v5.7h-1.2s-.1-.1-.1-.2v-2.3h-2.4v2.3c-.1.1-.1.1-.1.2zm8-2.6h-.6c-.2 0-.4.1-.6.2s-.3.3-.4.5l-.5 1.7c0 .1 0 .1-.1.1h-1c-.1 0-.1 0-.1-.1v-.1l.6-1.9c0-.1.1-.2.1-.3 0-.1.1-.2.2-.3s.1-.2.2-.2.2-.1.4-.2c-.2-.1-.4-.2-.5-.4l-.3-.6-.4-1.4v-.1l.1-.1h1l.1.1.4 1.3c.1.3.2.5.4.6.2.1.4.1.6.1h.5V13h1.2v2.1h.5c.2 0 .4 0 .6-.1s.3-.3.4-.6l.4-1.3c0-.1 0-.1.1-.1h1c.1 0 .1 0 .1.1v.1l-.4 1.4c-.1.2-.1.4-.3.6s-.3.3-.5.4c.2 0 .3.1.4.2s.2.1.2.2c.1.1.1.2.2.3 0 .1.1.2.1.3l.6 1.9v.1l-.1.1h-1l-.1-.1-.5-1.7c-.1-.2-.2-.4-.4-.5-.2-.1-.4-.2-.6-.2h-.6v2.5h-1.2v-2.5h-.2zm8-3.2c.8 0 1.4.2 1.9.6.4.4.6 1 .6 1.8 0 .2 0 .3-.1.5 0 .1-.1.2-.2.3-.1.1-.2.1-.3.2h-3.2c0 .3 0 .5.1.7s.2.3.3.5c.1.1.3.2.5.3.2.1.4.1.6.1s.5 0 .7-.1.4-.1.6-.2c.1-.1.2 0 .2.1l.3.6c.1.1 0 .2-.1.2-.3.2-.6.3-.9.3-.3.1-.6.1-.9.1-.9 0-1.5-.2-2-.7s-.7-1.2-.7-2.2c0-.5.1-.9.2-1.3s.3-.7.5-.9c.2-.3.5-.5.8-.6s.7-.3 1.1-.3zm0 1c-.2 0-.4 0-.5.1-.2.1-.3.2-.4.3s-.2.3-.3.4-.1.3-.1.5h2.5c0-.2 0-.4-.1-.5s-.1-.3-.2-.4c-.1-.1-.2-.2-.4-.3s-.2-.1-.5-.1zm4.8 4.8h-1.2s-.1-.1-.1-.2v-5.3c0-.1 0-.1.1-.2h1.2s.1.1.1.2v1.9h2.4v-1.9c0-.1 0-.1.1-.2h1.2v5.7h-1.2s-.1-.1-.1-.2v-2.3h-2.4v2.3c0 .1 0 .1-.1.2zm7.5-5.8c.8 0 1.4.2 1.9.6.4.4.6 1 .6 1.8 0 .2 0 .3-.1.5 0 .1-.1.2-.2.3-.1.1-.2.1-.3.2h-3.2c0 .3 0 .5.1.7s.2.3.3.5c.1.1.3.2.5.3.2.1.4.1.6.1.2 0 .5 0 .7-.1s.4-.1.6-.2c.1-.1.2 0 .2.1l.3.6c.1.1 0 .2-.1.2-.3.2-.6.3-.9.3-.3.1-.6.1-.9.1-.9 0-1.5-.2-2-.7s-.7-1.2-.7-2.2c0-.5.1-.9.2-1.3s.3-.7.5-.9c.2-.3.5-.5.8-.6s.8-.3 1.1-.3zm0 1c-.2 0-.4 0-.5.1-.2.1-.3.2-.4.3-.1.1-.2.3-.3.4s-.1.3-.1.5h2.5c0-.2 0-.4-.1-.5s-.1-.3-.2-.4c-.1-.1-.2-.2-.4-.3s-.2-.1-.5-.1zm4.9 6.8v.2h-1.3v-7.6l.1-.1c.4-.2.7-.3 1.1-.3.4-.1.8-.1 1.1-.1.5 0 .9.1 1.2.2.3.2.6.4.8.6.2.3.4.6.5.9.1.4.1.7.1 1.2 0 .4-.1.8-.2 1.1-.1.4-.3.7-.5.9-.2.3-.5.5-.8.6-.3.2-.7.2-1.1.2h-.6c-.2 0-.4-.1-.7-.1v2.3h.3zm2.5-4.9c0-.3 0-.6-.1-.9l-.3-.6c-.1-.1-.3-.3-.5-.3-.2-.1-.4-.1-.6-.1h-.5c-.2 0-.4.1-.5.1v3.5c.2.1.4.1.6.1h.5c.2 0 .4 0 .6-.1.2-.1.3-.2.5-.3.1-.1.2-.3.3-.6v-.8zm3.7 2.9h-1.2c-.1 0-.1-.1-.1-.2v-5.3c0-.1 0-.1.1-.2s.1 0 .2 0h1s.1.1.1.2v1.9h2.4v-1.9c0-.1 0-.1.1-.2s.1 0 .2 0h1v5.7h-1.2c-.1 0-.1-.1-.1-.2v-2.3h-2.4v2.3c0 .1 0 .1-.1.2zm10.2-2.9c0 1-.2 1.7-.7 2.2-.4.5-1.1.8-2 .8s-1.5-.3-2-.8c-.4-.5-.6-1.2-.6-2.2 0-.5.1-.9.2-1.3s.3-.7.5-.9c.2-.3.5-.4.8-.6.3-.1.7-.2 1.1-.2.9 0 1.5.3 2 .8.5.6.7 1.3.7 2.2zm-1.3.1c0-.3 0-.5-.1-.7s-.1-.4-.2-.6-.2-.3-.4-.4c-.2-.1-.4-.2-.6-.2-.2 0-.4 0-.6.1-.2.1-.3.2-.4.4l-.3.6c-.1.2-.1.5-.1.8 0 .6.1 1.1.3 1.4s.5.5 1 .5c.3 0 .5-.1.6-.2s.3-.2.4-.4c.1-.2.2-.4.2-.6s.2-.5.2-.7zm3.8 2.6v.2h-1.2c-.1 0-.1-.1-.1-.2v-3.7c0-.2 0-.5.1-.7 0-.2.1-.4.3-.6.1-.2.3-.3.5-.4.2-.1.5-.1.9-.1h2.4c.1 0 .2 0 .2.1v1s-.1.1-.2.1H163c-.3 0-.4.1-.5.2s-.2.3-.2.5v3.6zm8.9-2.7c0 1-.2 1.7-.7 2.2-.4.5-1.1.8-2 .8s-1.5-.3-2-.8c-.4-.5-.6-1.2-.6-2.2 0-.5.1-.9.2-1.3s.3-.7.5-.9c.2-.3.5-.4.8-.6.3-.1.7-.2 1.1-.2.9 0 1.5.3 2 .8.5.6.7 1.3.7 2.2zm-1.3.1c0-.3 0-.5-.1-.7s-.1-.4-.2-.6-.2-.3-.4-.4c-.2-.1-.4-.2-.6-.2-.2 0-.4 0-.6.1-.2.1-.3.2-.4.4l-.3.6c-.1.2-.1.5-.1.8 0 .6.1 1.1.3 1.4s.5.5 1 .5c.3 0 .5-.1.6-.2s.3-.2.4-.4c.1-.2.2-.4.2-.6s.2-.5.2-.7zM60.2 28.7v.2c0 .1-.1 0-.2 0h-1c-.1 0 0-.1 0-.2v-4.5h-2.5v4.7c0 .1-.1 0-.2 0h-1v-5.2c0-.1 0-.2.1-.4.1-.1.2-.2.4-.2h3.9c.2 0 .4.1.4.2.1.1.1.2.1.4v5zm2.7 2.2v.2h-1.2v-7.6c0-.1.1-.1.1-.1.4-.2.7-.3 1.1-.3.4-.1.8-.1 1.1-.1.5 0 .9.1 1.2.2s.6.4.8.6c.2.3.4.6.5.9s.1.7.1 1.2c0 .4-.1.8-.2 1.1-.1.4-.3.7-.5.9-.2.3-.5.5-.8.6-.1.4-.5.5-.9.5h-.6c-.2 0-.4-.1-.7-.1v2zm2.5-4.9c0-.3 0-.6-.1-.9l-.3-.6c-.1-.1-.3-.3-.5-.3-.2-.1-.4-.1-.6-.1h-.5c-.2 0-.4.1-.5.1v3.5c.2.1.4.1.6.1h.5c.2 0 .4 0 .6-.1s.3-.2.5-.3c.1-.1.2-.3.3-.6V26zm4.9-2.9c.8 0 1.4.2 1.9.6.4.4.6 1 .6 1.8 0 .2 0 .3-.1.5 0 .1-.1.2-.2.3-.1.1-.2.1-.3.2H69c0 .3 0 .5.1.7s.2.3.3.5c.1.1.3.2.5.3.2 0 .4.1.6.1s.5 0 .7-.1.4-.1.6-.2c.1 0 .2 0 .2.1l.3.6c.1.1 0 .2-.1.3-.3.2-.6.3-.9.3-.3-.1-.6-.1-.9-.1-.9 0-1.5-.2-2-.7s-.7-1.2-.7-2.2c0-.5.1-.9.2-1.3s.3-.7.5-.9c.2-.3.5-.5.8-.6s.7-.2 1.1-.2zm0 1c-.2 0-.4 0-.5.1-.2.1-.3.2-.4.3-.1.1-.2.3-.3.4s-.1.4-.1.6h2.5c0-.2 0-.4-.1-.5 0-.2-.1-.3-.2-.4s-.2-.2-.4-.3-.3-.2-.5-.2zm3.6 3.8c.1-.1.2-.2.2-.3.1-.1.1-.2.2-.4 0-.1.1-.3.1-.4 0-.2.1-.3.1-.5l.4-2.5c0-.2.1-.4.2-.4.1-.1.3-.1.5-.1h2.7c.3 0 .4.1.5.2s.1.3.1.4V28h.3c.1 0 .2.1.3.1s.1.2.1.3l-.1 2.1c0 .1 0 .2-.1.2h-.8c-.1 0-.1-.1-.1-.2l-.1-1.5h-3.8v1.6c0 .1-.1.2-.2.2h-.8c-.1 0-.1 0-.1-.1l-.1-2.1c0-.1 0-.2.1-.3 0-.1.1-.1.3-.1l.1-.3zm3.8-3.6H76l-.2 1.6c0 .3-.1.6-.1.8 0 .2-.1.4-.1.5s-.1.3-.1.4-.1.2-.1.3h2.5v-3.6h-.2zm8 4.4v.2c0 .1-.1 0-.2 0h-1c-.1 0 0-.1 0-.2v-4.5H82v4.7h-1.2c-.1 0 0-.1 0-.2v-5c0-.1 0-.2.1-.4.1-.1.2-.2.4-.2h3.9c.2 0 .4.1.4.2.1.1.1.2.1.4v5zm2.7 2.2v.2h-1.3v-7.6l.1-.1c.4-.2.7-.3 1.1-.3.4-.1.8-.1 1.1-.1.5 0 .9.1 1.2.2.3.2.6.4.8.6.2.3.4.6.5.9s.1.7.1 1.2c0 .4-.1.8-.2 1.1s-.3.7-.5.9c-.2.3-.5.5-.8.6-.3.2-.7.2-1.1.2h-.6c-.2 0-.4-.1-.7-.1v2.3h.3zm2.5-4.9c0-.3 0-.6-.1-.9l-.3-.6c-.1-.1-.3-.3-.5-.3-.2-.1-.4-.1-.6-.1h-.5c-.2 0-.4.1-.5.1v3.5c.2.1.4.1.6.1h.5c.2 0 .4 0 .6-.1s.3-.2.5-.3c.1-.1.2-.3.3-.6V26zm2.5-2.6v-.1h1.3c.1 0 0 .1 0 .1v3.7l.7-1.1c0-.1.1-.1.1-.2s.1-.2.2-.4.3-.4.4-.7c.2-.3.4-.7.7-1.2.1-.1.2-.2.2-.3.1-.1.2-.1.4-.1h.4c.2 0 .3 0 .4.1s.1.2.1.4v5.1H97v-3.8h-.1l-.7 1-1.6 2.4-.3.3c-.1.1-.2.1-.4.1h-.4c-.4 0-.5-.2-.5-.5v-4.8h.4zm7.7 5.5h-1.2s-.1-.1-.1-.2v-5.3c0-.1 0-.1.1-.2s.1 0 .2 0h1s.1.1.1.2v1.9h2.4v-1.9c0-.1 0-.1.1-.2s.1 0 .2 0h1v5.7h-1.2s-.1-.1-.1-.2v-2.3h-2.4v2.3c0 .1-.1.1-.1.2zm5.1-5.5v-.1h1.3c.1 0 0 .1 0 .1v3.7l.7-1.1c0-.1.1-.1.1-.2s.1-.2.2-.4.3-.4.4-.7c.2-.3.4-.7.7-1.2.1-.1.2-.2.2-.3.1-.1.2-.1.4-.1h.4c.2 0 .3 0 .4.1s.1.2.1.4v5.1h-1.3v-3.8h.2l-.7 1-1.6 2.4-.3.3c-.1.1-.2.1-.4.1h-.4c-.4 0-.5-.2-.5-.5l.1-4.8zm11.7 1.8l-.5 1.2-.7 1.5c-.1.1-.1.2-.2.3-.1 0-.2.1-.3.1h-.4c-.2 0-.3 0-.3-.1-.1-.1-.1-.1-.2-.3l-.7-1.4-.5-1.2h-.1v3.6h-1.2s-.1-.1-.1-.2v-5c0-.1 0-.3.1-.4s.2-.2.4-.2h.5c.1 0 .3 0 .3.1.1 0 .2.1.3.3l.9 2 .6 1.3.7-1.5.9-1.8c.1-.2.2-.3.2-.3s.2-.1.4-.1h.5c.2 0 .3 0 .4.1s.1.2.1.4v5.2h-1.2c-.1 0 0-.1 0-.2l.1-3.4zm7.3 3.1c0 .2-.1.3-.2.4-.2.1-.3.1-.5.2s-.4.1-.6.1-.4 0-.6.1-.4 0-.5 0c-.5 0-.9 0-1.2-.1s-.6-.2-.7-.4c-.2-.2-.3-.4-.4-.6s-.1-.5-.1-.7c0-.3 0-.5.1-.7s.2-.4.4-.6c.2-.2.4-.3.7-.4.3-.1.7-.2 1.1-.2h1.2v-.6c0-.1-.1-.2-.2-.3s-.2-.2-.3-.2c-.1 0-.3-.1-.6-.1-.2 0-.5 0-.8.1s-.5.1-.7.2h-.2l-.1-.1-.2-.6c0-.1 0-.2.1-.2.3-.1.6-.2 1-.2s.7-.1 1-.1c.8 0 1.3.2 1.7.5.4.3.5.8.5 1.5l.1 3zm-1.3-2.1h-1.4c-.1 0-.3.1-.4.1l-.3.3c-.1.1-.1.3-.1.5 0 .3.1.5.3.7s.5.2.8.2h.5c.1 0 .2 0 .3-.1s.2-.1.3-.1v-1.6zm5.2-1.9v4.6h-1.2s-.1-.1-.1-.2v-4.4h-1.6c-.1 0-.1 0-.2-.1v-1c0-.1.1-.1.2-.1h4.5c.1 0 .2 0 .2.1v1s-.1.1-.2.1h-1.6zm5-1.2c.8 0 1.4.2 1.9.6.4.4.6 1 .6 1.8 0 .2 0 .3-.1.5 0 .1-.1.2-.2.3-.1.1-.2.1-.3.2h-3.2c0 .3.1.5.1.7.1.2.2.3.3.5.1.1.3.2.5.3.2 0 .4.1.6.1.2 0 .5 0 .7-.1s.4-.1.6-.2c.1 0 .2 0 .2.1l.3.6c.1.1 0 .2-.1.3-.3.2-.6.3-.9.3-.3.1-.6.1-.9.1-.9 0-1.5-.2-2-.7s-.7-1.2-.7-2.2c0-.5.1-.9.2-1.3s.3-.7.5-.9c.2-.3.5-.5.8-.6s.8-.4 1.1-.4zm.1 1c-.2 0-.4 0-.5.1-.2.1-.3.2-.4.3-.1.1-.2.3-.3.4-.1.2-.1.3-.1.5h2.5c0-.2 0-.4-.1-.5 0-.2-.1-.3-.2-.4-.1-.1-.2-.2-.4-.3-.1 0-.3-.1-.5-.1zm7.7-.9c.2 0 .4 0 .5.2.1.1.1.3.1.5v4.9c0 .1 0 .1-.1.2s-.1 0-.2 0h-1s-.1-.1-.1-.2v-4.4h-1.7v.7c0 .7-.1 1.3-.2 1.7-.1.5-.2.9-.3 1.2-.1.3-.3.6-.5.7-.2.2-.5.3-.9.4h-.2l-.1-.1-.2-.6v-.2s.1-.1.2-.1c.2-.1.3-.2.5-.3s.2-.3.3-.5.1-.5.2-.9c0-.4.1-.9.1-1.5l.1-1.1c0-.2.1-.4.2-.5.1-.1.3-.1.5-.1h2.8zm2.7 5.7c-.2 0-.4-.1-.5-.2s-.1-.3-.1-.4v-4.9c0-.1 0-.1.1-.2s.1 0 .2 0h1v1.9h1.6c.5 0 .8.1 1.1.2s.5.3.7.5.3.4.3.6.1.4.1.5c0 .3-.1.5-.2.8-.1.2-.2.4-.4.6s-.4.3-.6.4c-.2.1-.5.1-.8.1l-2.5.1zm3.1-1.9c0-.2-.1-.4-.2-.6-.2-.2-.4-.3-.7-.3h-1.5v1.8h1.5c.2 0 .4 0 .5-.1s.2-.1.3-.2.1-.2.1-.3V27zm4.8.9c.2 0 .5 0 .7-.1s.4-.1.6-.2h.2c.1 0 .1.1.1.1l.3.6c.1.1.1.2-.1.3-.3.2-.6.3-1 .3-.3.1-.7.1-1 .1-.8 0-1.4-.2-1.9-.7s-.6-1.2-.6-2.2c0-.5.1-.9.2-1.2s.3-.7.5-1 .5-.5.8-.6.7-.2 1.1-.2c.3 0 .6 0 .9.1s.5.2.8.3c.1 0 .1.1.1.1v.2l-.3.6c0 .1-.1.1-.1.1h-.2c-.2-.1-.4-.1-.5-.2-.2 0-.4-.1-.6-.1-.2 0-.5.1-.6.2-.2.1-.3.2-.4.4s-.2.4-.2.6c-.1.2-.1.5-.1.7 0 .3 0 .5.1.7 0 .2.1.4.2.6.1.2.2.3.4.4.1.1.4.1.6.1zm5.4-3.6v4.6h-1.2s-.1-.1-.1-.2v-4.4H155c-.1 0-.1 0-.2-.1v-1c0-.1.1-.1.2-.1h4.5c.1 0 .2 0 .2.1v1s-.1.1-.2.1h-1.6zm6.8 1.5c.3.1.5.3.7.6.1.3.2.5.2.8s-.1.5-.2.7-.2.4-.4.5-.4.3-.6.3c-.2.1-.5.1-.8.1h-2.5c-.2 0-.3 0-.4-.1-.1-.1-.1-.2-.1-.4v-4.7c0-.2 0-.3.1-.4s.2-.1.4-.1h2.5c.2 0 .5 0 .7.1s.4.1.6.3c.2.1.3.3.4.4s.1.4.1.7c0 .2-.1.5-.2.7l-.5.5zm-2.9-.4h1.8c.1 0 .1 0 .2-.1.1 0 .1-.1.2-.2 0-.1.1-.2.1-.3 0-.2-.1-.3-.2-.4-.1-.1-.2-.2-.4-.2h-1.6v1.2h-.1zm2.5 1.7c0-.2-.1-.4-.2-.6-.1-.1-.4-.2-.7-.2h-1.6v1.6h1.6c.2 0 .3 0 .4-.1s.2-.1.3-.2.1-.2.1-.3c0 0 .1-.1.1-.2zm7.1 1.2c0 .2-.1.3-.2.4-.2.1-.3.1-.5.2s-.4.1-.6.1c-.2 0-.4 0-.6.1s-.4 0-.5 0c-.5 0-.9 0-1.2-.1s-.6-.2-.7-.4c-.2-.2-.3-.4-.4-.6s-.1-.5-.1-.7c0-.3 0-.5.1-.7s.2-.4.4-.6.4-.3.7-.4.7-.2 1.1-.2h1.2v-.6c0-.1-.1-.2-.2-.3s-.2-.2-.3-.2-.3-.1-.6-.1c-.2 0-.5 0-.8.1s-.5.1-.7.2h-.2l-.1-.1-.2-.6c0-.1 0-.2.1-.2.3-.1.6-.2 1-.2s.7-.1 1-.1c.8 0 1.3.2 1.7.5s.5.8.5 1.5v3h.1zm-1.3-2.1h-1.4c-.1 0-.3.1-.4.1l-.3.3c-.1.1-.1.3-.1.5 0 .3.1.5.3.7s.5.2.8.2h.5c.1 0 .2 0 .3-.1s.2-.1.3-.1v-1.6z"/><path class="st2" d="M33.2 0H10.3v10.6H0v12.7h14.4c0 4.1 3.3 7.4 7.4 7.4s7.4-3.3 7.4-7.4h14.4V10.6H33.2V0zM14.5 10.6V4h14.6v6.6H14.5z"/><path class="st1" d="M0 26.9h10.5c.2.8.6 1.5.9 2.2L10 30.5c-.3.3 0 .6.2.9l3.5 3.5c.3.3.6.4.8.1l1.5-1.5c.8.5 1.7.8 2.6 1.1v2.1c0 .4.3.7.7.7h5.1c.4 0 .7-.3.7-.7v-2.1c.9-.3 1.8-.6 2.6-1.1l1.5 1.5c.3.3.7.3.9 0l3.6-3.6c.3-.3.3-.7 0-.9L32.2 29c.4-.7.7-1.4.9-2.2h10.4v16.7H0V26.9z"/></svg>