<svg id="Слой_1" xmlns="http://www.w3.org/2000/svg" viewBox="0 0 175.8 43.6"><style>.st0{fill-rule:evenodd;clip-rule:evenodd;fill:#d1d3d1}.st1{fill:#fff}.st2{font-family:&amp;apos;PFBeauSansPro-SemiBold&amp;apos;}.st3{font-size:10.8513px}.st4,.st5{fill-rule:evenodd;clip-rule:evenodd;fill:#74b65f}.st5{fill:#fff}</style><path class="st0" d="M173.1 39.6v.3h1.2v3.6h.4v-3.6h1.2v-.3h-2.8zm-2.4 0v3.9h2v-.3H171v-1.6h1.5v-.3H171v-1.4h1.5v-.3h-1.8zm-3.4 0v.3h1.2v3.6h.4v-3.6h1.2v-.3h-2.8zm-3.5 0v3.9h.4l1.9-3.1.2-.4v3.5h.4v-3.9h-.4l-1.9 3-.2.4v-3.5h-.4v.1zm-.8 3.5c-.3.1-.7.2-1 .2-.9 0-1.6-.6-1.6-1.6s.6-1.8 1.6-1.8c.1 0 .5 0 .9.2v-.3c-.3-.1-.6-.2-.9-.2-1.4 0-2 1-2 2.1 0 1 .6 2 2 2 .4 0 .8-.1 1-.2v-.4zm-5.3-3.2h.6c.1 0 .9 0 .9.8s-.6.8-.9.8h-.6v-1.6zm-.4-.3v3.9h.4v-1.7h.7c.7 0 1.2-.5 1.2-1.1 0-.7-.5-1.1-1.2-1.1h-1.1zm-2.9 0v3.9h2v-.3h-1.7v-1.6h1.5v-.3h-1.5v-1.4h1.5v-.3h-1.8zm-2.8 2.1h.6c.5 0 .9.3.9.8 0 .7-.6.8-1 .8h-.6v-1.6h.1zm0-1.8h.6c.4 0 .8.2.8.7 0 .4-.3.8-.8.8h-.6v-1.5zm-.4-.3v3.9h1c.2 0 1.3 0 1.3-1.1 0-.5-.3-.8-.8-.9.5-.2.7-.5.7-.9 0-.5-.3-1-1.2-1h-1zm-4.1 0v3.9h.4l1.9-3.1.2-.4v3.5h.4v-3.9h-.4l-1.9 3-.2.4v-3.5h-.4v.1zm-3.9 0v3.9h.4v-1.9h2.1v1.9h.4v-3.9h-.4v1.7h-2.1v-1.7h-.4zm-3.8 0l1.4 3-.1.2c-.1.3-.2.4-.4.4-.1 0-.2 0-.3-.1v.3c.1.1.3.1.4.1.5 0 .6-.3.8-.7l1.4-3.3h-.4l-.9 2.1-.2.5-.2-.5-1-2.1h-.5v.1zm-4.2-.9l-.2.2c.2.3.5.4.8.4.3 0 .6-.2.8-.4l-.2-.2c-.2.3-.5.3-.7.3 0 0-.2-.1-.5-.3zm-.8.9v3.9h.4l1.9-3.1.2-.4v3.5h.4v-3.9h-.4l-1.9 3-.2.4v-3.5h-.4v.1zm-4 0v3.9h.4l1.9-3.1.2-.4v3.5h.4v-3.9h-.4l-1.9 3-.2.4v-3.5h-.4v.1zm-3.6 0v3.9h.4v-2l.1.1 1.9 1.9h.5l-2.1-2.1 1.9-1.9h-.5l-1.7 1.7-.1.1v-1.8h-.4v.1zm-.7 3.5c-.3.1-.7.2-1 .2-.9 0-1.6-.6-1.6-1.6s.6-1.8 1.6-1.8c.1 0 .5 0 .9.2v-.3c-.3-.1-.6-.2-.9-.2-1.4 0-2 1-2 2.1 0 1 .6 2 2 2 .4 0 .8-.1 1-.2v-.4zm-5.6-3.5v3.9h2v-.3h-1.7v-1.6h1.5v-.3h-1.5v-1.4h1.5v-.3h-1.8zm-3.8 0v1.3c0 .4.1 1 1.3 1 .3 0 .5 0 .8-.1h.2v1.7h.4v-3.9h-.4v1.9h-.2c-.2 0-.5.1-.7.1-.2 0-1 0-1-.7v-1.3h-.4zm-3.8 0v3.9h.4l1.9-3.1.2-.4v3.5h.4v-3.9h-.4l-1.9 3-.2.4v-3.5h-.4v.1zm-4 0v3.9h.4v-1.9h2.1v1.9h.4v-3.9h-.4v1.7h-2.1v-1.7h-.4zm-3.9 0l1.4 1.9-1.5 2.1h.4l1-1.4.2-.4.2.4 1 1.4h.5l-1.5-2.1 1.3-1.9h-.4l-1 1.4-.1.2-.1-.2-1-1.4h-.4zm-2.5 0v3.9h2v-.3h-1.7v-1.6h1.5v-.3h-1.5v-1.4h1.5v-.3h-1.8zm-3.4 0v.3h1.2v3.6h.4v-3.6h1.2v-.3h-2.8zm-3.6 0v3.9h.4l1.9-3.1.2-.4v3.5h.4v-3.9H98l-1.9 3-.2.4v-3.5h-.4v.1zm-3.4 0v1.3c0 .7.1 2.3-.6 2.3h-.2v.3h.3c.9 0 .9-1.3.9-2.6v-1H94v3.6h.4v-3.9h-2.3zm-4.4 2c0-1.2.7-1.7 1.4-1.7s1.4.5 1.4 1.7-.7 1.7-1.4 1.7-1.4-.5-1.4-1.7zm-.4 0c0 1.3.8 2 1.8 2s1.8-.7 1.8-2c0-1.1-.6-2-1.8-2-1.2-.1-1.8.9-1.8 2zm-3.7-2v3.9h.4v-3.6h2v3.6h.4v-3.9h-2.8zm-4.5-.9l-.2.2c.2.3.5.4.8.4.3 0 .6-.2.8-.4l-.2-.2c-.2.3-.5.3-.7.3 0 0-.3-.1-.5-.3zm-.8.9v3.9h.4l1.9-3.1.2-.4v3.5h.4v-3.9h-.4l-1.9 3-.3.4v-3.5h-.3v.1zm-4.1 0v3.9h.4l1.9-3.1.2-.4v3.5h.4v-3.9h-.4l-1.9 3-.2.4v-3.5h-.4v.1zm-3.6 0v3.9h.4v-2l.1.1 1.9 1.9h.5l-2.1-2.1 1.9-1.9h-.5l-1.7 1.7-.1.2v-1.8h-.4zm-.7 3.5c-.3.1-.7.2-1 .2-.9 0-1.6-.6-1.6-1.6s.6-1.8 1.6-1.8c.1 0 .5 0 .9.2v-.3c-.3-.1-.6-.2-.9-.2-1.4 0-2 1-2 2.1 0 1 .6 2 2 2 .4 0 .8-.1 1-.2v-.4zm-5.9.1l-.2-.5-1.3-3.1h-.6v3.9h.4v-3.6l.2.5 1.3 3.1h.4l1.3-3.1.2-.5v3.6h.4v-3.9h-.6l-1.3 3.1-.2.5zm-6.1-1.6c0-1.2.7-1.7 1.4-1.7s1.4.5 1.4 1.7-.7 1.7-1.4 1.7-1.4-.5-1.4-1.7zm-.4 0c0 1.3.8 2 1.8 2s1.8-.7 1.8-2c0-1.1-.6-2-1.8-2-1.2-.1-1.8.9-1.8 2zm-3.2-2v.3h1.2v3.6h.4v-3.6h1.2v-.3h-2.8z"/><text transform="translate(54.474 18.806)"><tspan x="0" y="0" class="st1 st2 st3">Полигон инженерного </tspan><tspan x="0" y="10.1" class="st1 st2 st3">предпринимательства</tspan></text><path class="st4" d="M33.2 0H10.3v10.6H0v12.7h14.4c0 4.1 3.3 7.4 7.4 7.4 4.1 0 7.4-3.3 7.4-7.4h14.4V10.6H33.2V0zM14.5 10.6V4h14.6v6.6H14.5z"/><path class="st5" d="M0 26.9h10.5c.2.8.6 1.5.9 2.2L10 30.5c-.3.3 0 .6.2.9l3.5 3.5c.3.3.6.4.8.1l1.5-1.5c.8.5 1.7.8 2.6 1.1v2.1c0 .4.3.7.7.7h5.1c.4 0 .7-.3.7-.7v-2.1c.9-.3 1.8-.6 2.6-1.1l1.5 1.5c.3.3.7.3.9 0l3.6-3.6c.3-.3.3-.7 0-.9L32.2 29c.4-.7.7-1.4.9-2.2h10.4v16.7H0V26.9z"/></svg>