<?xml version="1.0" encoding="utf-8"?>
<!-- Generator: Adobe Illustrator 19.2.1, SVG Export Plug-In . SVG Version: 6.00 Build 0)  -->
<svg version="1.1" id="Слой_1" xmlns="http://www.w3.org/2000/svg" xmlns:xlink="http://www.w3.org/1999/xlink" x="0px" y="0px"
	 viewBox="0 0 56.6 56.6" style="enable-background:new 0 0 56.6 56.6;" xml:space="preserve">
<style type="text/css">
	.st0{fill:#262626;}
</style>
<g>
	<path class="st0" d="M39.8,0H16.9C7.6,0,0,7.6,0,16.9v22.9c0,9.3,7.6,16.9,16.9,16.9h22.9c9.3,0,16.9-7.6,16.9-16.9V16.9
		C56.6,7.6,49.1,0,39.8,0L39.8,0z M50.9,39.8c0,6.2-5,11.2-11.2,11.2H16.9c-6.2,0-11.2-5-11.2-11.2V16.9c0-6.2,5-11.2,11.2-11.2
		h22.9c6.2,0,11.2,5,11.2,11.2V39.8z M50.9,39.8"/>
	<path class="st0" d="M28.3,13.7c-8.1,0-14.6,6.6-14.6,14.6c0,8.1,6.6,14.6,14.6,14.6S43,36.4,43,28.3S36.4,13.7,28.3,13.7
		L28.3,13.7z M28.3,37.3c-4.9,0-9-4-9-9c0-4.9,4-9,9-9c4.9,0,9,4,9,9C37.3,33.3,33.3,37.3,28.3,37.3L28.3,37.3z M28.3,37.3"/>
	<path class="st0" d="M46.5,13.8c0,1.9-1.6,3.5-3.5,3.5c-1.9,0-3.5-1.6-3.5-3.5c0-1.9,1.6-3.5,3.5-3.5
		C44.9,10.3,46.5,11.8,46.5,13.8L46.5,13.8z M46.5,13.8"/>
</g>
</svg>
