<?xml version="1.0" encoding="utf-8"?>
<!-- Generator: Adobe Illustrator 19.2.1, SVG Export Plug-In . SVG Version: 6.00 Build 0)  -->
<svg version="1.1" id="Слой_1" xmlns="http://www.w3.org/2000/svg" xmlns:xlink="http://www.w3.org/1999/xlink" x="0px" y="0px"
	 viewBox="0 0 49.5 49.5" style="enable-background:new 0 0 49.5 49.5;" xml:space="preserve">
<style type="text/css">
	.st0{fill:#FFFFFF;}
</style>
<g>
	<path class="st0" d="M42.9,0H6.7C3,0,0,3,0,6.7v36.2c0,3.7,3,6.7,6.7,6.7h17.8l0-17.7H20c-0.6,0-1.1-0.5-1.1-1.1l0-5.7
		c0-0.6,0.5-1.1,1.1-1.1h4.6v-5.5c0-6.4,3.9-9.9,9.6-9.9h4.7c0.6,0,1.1,0.5,1.1,1.1v4.8c0,0.6-0.5,1.1-1.1,1.1l-2.9,0
		c-3.1,0-3.7,1.5-3.7,3.6V24h6.8c0.7,0,1.2,0.6,1.1,1.2l-0.7,5.7c-0.1,0.5-0.5,1-1.1,1h-6.1l0,17.7h10.6c3.7,0,6.7-3,6.7-6.7V6.7
		C49.5,3,46.5,0,42.9,0L42.9,0z M42.9,0"/>
</g>
</svg>
