<?xml version="1.0" encoding="utf-8"?>
<!-- Generator: Adobe Illustrator 19.2.1, SVG Export Plug-In . SVG Version: 6.00 Build 0)  -->
<svg version="1.1" id="Слой_1" xmlns="http://www.w3.org/2000/svg" xmlns:xlink="http://www.w3.org/1999/xlink" x="0px" y="0px"
	 viewBox="0 0 55.9 55.9" style="enable-background:new 0 0 55.9 55.9;" xml:space="preserve">
<style type="text/css">
	.st0{fill:#262626;}
</style>
<g>
	<path class="st0" d="M11,0h34c6,0,11,4.9,11,10.9v34c0,6-4.9,10.9-11,10.9H11c-6,0-11-4.9-11-10.9v-34C0,4.9,4.9,0,11,0L11,0z
		 M41.5,33.8c0-2.1-0.6-3.7-1.7-4.9c-1.1-1.2-2.6-2-4.5-2.4v-0.2c1.3-0.5,2.3-1.4,3.1-2.6c0.7-1.2,1.1-2.5,1.1-3.9
		c0-1.3-0.3-2.4-0.8-3.4c-0.5-1-1.3-1.8-2.4-2.3c-1-0.5-2.1-0.9-3.2-1.1c-1.1-0.2-2.8-0.3-5.1-0.3H17.1v30.3h12.3
		c2.1,0,3.8-0.2,5.2-0.6c1.4-0.4,2.6-1,3.8-1.9c1-0.8,1.7-1.7,2.3-2.8C41.2,36.7,41.5,35.3,41.5,33.8L41.5,33.8z M31.7,21.4
		c0-0.5-0.1-1-0.4-1.5c-0.3-0.5-0.6-0.9-1.2-1.1c-0.5-0.2-1.1-0.3-1.8-0.4c-0.7,0-1.7,0-3.1,0h-0.5v6.4h1c1.3,0,2.2,0,2.7,0
		c0.5,0,1.1-0.2,1.6-0.4c0.6-0.3,1-0.7,1.2-1.2C31.6,22.6,31.7,22,31.7,21.4L31.7,21.4z M33.6,33.7c0-0.9-0.2-1.7-0.6-2.2
		c-0.4-0.5-0.9-0.9-1.7-1.2c-0.5-0.2-1.1-0.3-1.9-0.3c-0.8,0-1.9,0-3.2,0h-1.4v7.6h0.4c2,0,3.4,0,4.1,0c0.8,0,1.5-0.2,2.3-0.5
		c0.7-0.3,1.2-0.7,1.5-1.3C33.5,35.1,33.6,34.4,33.6,33.7L33.6,33.7z M33.6,33.7"/>
</g>
</svg>
