<?xml version="1.0" encoding="utf-8"?>
<!-- Generator: Adobe Illustrator 19.2.1, SVG Export Plug-In . SVG Version: 6.00 Build 0)  -->
<svg version="1.1" id="Слой_1" xmlns="http://www.w3.org/2000/svg" xmlns:xlink="http://www.w3.org/1999/xlink" x="0px" y="0px"
	 viewBox="0 0 67.8 72.6" style="enable-background:new 0 0 67.8 72.6;" xml:space="preserve">
<style type="text/css">
	.st0{fill:#FFFFFF;}
</style>
<g>
	<path class="st0" d="M66.6,4.8h-8.5V1.2c0-0.7-0.5-1.2-1.2-1.2h-8.5c-0.7,0-1.2,0.5-1.2,1.2v3.6H20.6V1.2C20.6,0.5,20,0,19.4,0
		h-8.5c-0.7,0-1.2,0.5-1.2,1.2v3.6H1.2C0.5,4.8,0,5.4,0,6.1v65.4c0,0.7,0.5,1.2,1.2,1.2h65.4c0.7,0,1.2-0.5,1.2-1.2V6.1
		C67.8,5.4,67.3,4.8,66.6,4.8L66.6,4.8z M49.6,2.4h6.1v7.3h-6.1V2.4z M12.1,2.4h6.1v7.3h-6.1V2.4z M2.4,7.3h7.3v3.6
		c0,0.7,0.5,1.2,1.2,1.2h8.5c0.7,0,1.2-0.5,1.2-1.2V7.3h26.6v3.6c0,0.7,0.5,1.2,1.2,1.2h8.5c0.7,0,1.2-0.5,1.2-1.2V7.3h7.3v10.9H2.4
		V7.3z M2.4,70.2V20.6h62.9v49.6H2.4z M2.4,70.2"/>
	<path class="st0" d="M43.6,27.8H10.9V63h46V27.8H43.6z M35.1,30.3h8.5v8.5h-8.5V30.3z M43.6,49.6h-8.5v-8.5h8.5V49.6z M24.2,41.2
		h8.5v8.5h-8.5V41.2z M24.2,30.3h8.5v8.5h-8.5V30.3z M13.3,30.3h8.5v8.5h-8.5V30.3z M13.3,41.2h8.5v8.5h-8.5V41.2z M21.8,60.5h-8.5
		v-8.5h8.5V60.5z M32.7,60.5h-8.5v-8.5h8.5V60.5z M43.6,60.5h-8.5v-8.5h8.5V60.5z M54.5,60.5H46v-8.5h8.5V60.5z M54.5,49.6H46v-8.5
		h8.5V49.6z M54.5,30.3v8.5H46v-8.5H54.5z M54.5,30.3"/>
</g>
</svg>
