<?xml version="1.0" encoding="utf-8"?>
<!-- Generator: Adobe Illustrator 19.2.1, SVG Export Plug-In . SVG Version: 6.00 Build 0)  -->
<svg version="1.1" id="Слой_1" xmlns="http://www.w3.org/2000/svg" xmlns:xlink="http://www.w3.org/1999/xlink" x="0px" y="0px"
	 viewBox="0 0 53.2 43.2" style="enable-background:new 0 0 53.2 43.2;" xml:space="preserve">
<style type="text/css">
	.st0{fill:#FFFFFF;}
</style>
<g>
	<path class="st0" d="M53.2,5.1c-1.9,0.9-4.1,1.5-6.3,1.7c2.3-1.4,4-3.5,4.8-6c-2.1,1.3-4.4,2.2-7,2.6c-2-2.1-4.8-3.4-8-3.4
		c-6,0-10.9,4.9-10.9,10.9c0,0.9,0.1,1.7,0.3,2.5C17.1,12.9,9.1,8.6,3.7,2C2.8,3.6,2.2,5.5,2.2,7.5c0,3.8,1.9,7.1,4.9,9.1
		c-1.8,0-3.5-0.5-4.9-1.4v0.1c0,5.3,3.8,9.7,8.8,10.7C10,26.3,9,26.4,8,26.4c-0.7,0-1.4-0.1-2.1-0.2c1.4,4.3,5.4,7.5,10.2,7.6
		c-3.7,2.9-8.4,4.7-13.6,4.7c-0.9,0-1.7,0-2.6-0.1c4.8,3.1,10.6,4.9,16.7,4.9c20.1,0,31.1-16.6,31.1-31l0-1.4
		C49.9,9.2,51.8,7.3,53.2,5.1L53.2,5.1z M53.2,5.1"/>
</g>
</svg>
