<?xml version="1.0" encoding="utf-8"?>
<!-- Generator: Adobe Illustrator 19.2.1, SVG Export Plug-In . SVG Version: 6.00 Build 0)  -->
<svg version="1.1" id="Слой_1" xmlns="http://www.w3.org/2000/svg" xmlns:xlink="http://www.w3.org/1999/xlink" x="0px" y="0px"
	 viewBox="0 0 54.4 82" style="enable-background:new 0 0 54.4 82;" xml:space="preserve">
<style type="text/css">
	.st0{fill:none;stroke:#FFFFFF;stroke-width:2.1105;stroke-miterlimit:10;}
</style>
<g>
	<path class="st0" d="M27.2,1.1C12.8,1.1,1.1,12.8,1.1,27.2c0,5.8,3.7,15.3,11.3,28.9c5.4,9.7,10.7,17.7,10.9,18.1l3.9,5.9l3.9-5.9
		c0.2-0.3,5.5-8.4,10.9-18.1C49.6,42.5,53.3,33,53.3,27.2C53.3,12.8,41.6,1.1,27.2,1.1L27.2,1.1z M27.2,40.6
		c-7.5,0-13.6-6.1-13.6-13.6c0-7.5,6.1-13.6,13.6-13.6c7.5,0,13.6,6.1,13.6,13.6C40.8,34.5,34.7,40.6,27.2,40.6L27.2,40.6z
		 M27.2,40.6"/>
</g>
</svg>
