<?xml version="1.0" encoding="utf-8"?>
<!-- Generator: Adobe Illustrator 19.2.1, SVG Export Plug-In . SVG Version: 6.00 Build 0)  -->
<svg version="1.1" id="Слой_1" xmlns="http://www.w3.org/2000/svg" xmlns:xlink="http://www.w3.org/1999/xlink" x="0px" y="0px"
	 viewBox="0 0 54.8 37.5" style="enable-background:new 0 0 54.8 37.5;" xml:space="preserve">
<style type="text/css">
	.st0{fill:#FFFFFF;}
</style>
<g>
	<path class="st0" d="M1.8,32.9v1.8c0,0.5,0.4,0.9,0.9,0.9h49.3c0.5,0,0.9-0.4,0.9-0.9v-1.8H35.6v0.9c0,0.5-0.4,0.9-0.9,0.9H20.1
		c-0.5,0-0.9-0.4-0.9-0.9v-0.9H1.8L1.8,32.9z M52.1,37.5H2.7c-1.6,0-2.7-1.2-2.7-2.7V32c0-0.5,0.4-0.9,0.9-0.9h19.2
		c0.5,0,0.9,0.4,0.9,0.9v0.9h12.8V32c0-0.5,0.4-0.9,0.9-0.9h19.2c0.5,0,0.9,0.4,0.9,0.9v2.7C54.8,36.3,53.6,37.5,52.1,37.5
		L52.1,37.5z"/>
	<path class="st0" d="M21,32.9h12.8V32c0-0.5,0.4-0.9,0.9-0.9h14.6V2.7c0-0.5-0.4-0.9-0.9-0.9h-42c-0.5,0-0.9,0.4-0.9,0.9v28.3h14.6
		c0.5,0,0.9,0.4,0.9,0.9V32.9L21,32.9z M34.7,34.7H20.1c-0.5,0-0.9-0.4-0.9-0.9v-0.9H4.6c-0.5,0-0.9-0.4-0.9-0.9V2.7
		C3.7,1.2,4.8,0,6.4,0h42c1.6,0,2.7,1.2,2.7,2.7V32c0,0.5-0.4,0.9-0.9,0.9H35.6v0.9C35.6,34.3,35.3,34.7,34.7,34.7L34.7,34.7z"/>
</g>
</svg>
