<?xml version="1.0" encoding="utf-8"?>
<!-- Generator: Adobe Illustrator 19.2.1, SVG Export Plug-In . SVG Version: 6.00 Build 0)  -->
<svg version="1.1" id="Слой_1" xmlns="http://www.w3.org/2000/svg" xmlns:xlink="http://www.w3.org/1999/xlink" x="0px" y="0px"
	 viewBox="0 0 175.8 43.6" style="enable-background:new 0 0 175.8 43.6;" xml:space="preserve">
<style type="text/css">
	.st0{fill-rule:evenodd;clip-rule:evenodd;fill:#D1D3D1;}
	.st1{fill:#FFFFFF;}
	.st2{fill-rule:evenodd;clip-rule:evenodd;fill:#74B65F;}
	.st3{fill-rule:evenodd;clip-rule:evenodd;fill:#FFFFFF;}
</style>
<g>
	<path class="st0" d="M173.1,39.6v0.3h1.2v3.6h0.4v-3.6h1.2v-0.3H173.1L173.1,39.6z M170.7,39.6v3.9h2v-0.3h-1.7v-1.6h1.5v-0.3h-1.5
		v-1.4h1.5v-0.3H170.7L170.7,39.6z M167.3,39.6v0.3h1.2v3.6h0.4v-3.6h1.2v-0.3H167.3L167.3,39.6z M163.8,39.6v3.9h0.4l1.9-3.1
		l0.2-0.4h0l0,0.5v3h0.4v-3.9h-0.4l-1.9,3l-0.2,0.4h0l0-0.5v-3H163.8L163.8,39.6z M163,43.1c-0.3,0.1-0.7,0.2-1,0.2
		c-0.9,0-1.6-0.6-1.6-1.6c0-1,0.6-1.8,1.6-1.8c0.1,0,0.5,0,0.9,0.2l0-0.3c-0.3-0.1-0.6-0.2-0.9-0.2c-1.4,0-2,1-2,2.1c0,1,0.6,2,2,2
		c0.4,0,0.8-0.1,1-0.2V43.1L163,43.1z M157.7,39.9h0.6c0.1,0,0.9,0,0.9,0.8c0,0.8-0.6,0.8-0.9,0.8h-0.6V39.9L157.7,39.9z
		 M157.3,39.6v3.9h0.4v-1.7h0.7c0.7,0,1.2-0.5,1.2-1.1c0-0.7-0.5-1.1-1.2-1.1L157.3,39.6L157.3,39.6z M154.4,39.6v3.9h2v-0.3h-1.7
		v-1.6h1.5v-0.3h-1.5v-1.4h1.5v-0.3H154.4L154.4,39.6z M151.6,41.7h0.6c0.5,0,0.9,0.3,0.9,0.8c0,0.7-0.6,0.8-1,0.8l-0.6,0V41.7
		L151.6,41.7z M151.6,39.9h0.6c0.4,0,0.8,0.2,0.8,0.7c0,0.4-0.3,0.8-0.8,0.8h-0.6V39.9L151.6,39.9z M151.2,39.6v3.9h1
		c0.2,0,1.3,0,1.3-1.1c0-0.5-0.3-0.8-0.8-0.9v0c0.5-0.2,0.7-0.5,0.7-0.9c0-0.5-0.3-1-1.2-1L151.2,39.6L151.2,39.6z M147.1,39.6v3.9
		h0.4l1.9-3.1l0.2-0.4h0l0,0.5v3h0.4v-3.9h-0.4l-1.9,3l-0.2,0.4h0l0-0.5v-3H147.1L147.1,39.6z M143.2,39.6v3.9h0.4v-1.9h2.1v1.9h0.4
		v-3.9h-0.4v1.7h-2.1v-1.7H143.2L143.2,39.6z M139.4,39.6l1.4,3l-0.1,0.2c-0.1,0.3-0.2,0.4-0.4,0.4c-0.1,0-0.2,0-0.3-0.1l0,0.3
		c0.1,0.1,0.3,0.1,0.4,0.1c0.5,0,0.6-0.3,0.8-0.7l1.4-3.3h-0.4l-0.9,2.1l-0.2,0.5h0l-0.2-0.5l-1-2.1H139.4L139.4,39.6z M135.2,38.7
		l-0.2,0.2c0.2,0.3,0.5,0.4,0.8,0.4c0.3,0,0.6-0.2,0.8-0.4l-0.2-0.2c-0.2,0.3-0.5,0.3-0.7,0.3C135.7,39,135.5,38.9,135.2,38.7
		L135.2,38.7L135.2,38.7z M134.4,39.6v3.9h0.4l1.9-3.1l0.2-0.4h0l0,0.5v3h0.4v-3.9h-0.4l-1.9,3l-0.2,0.4h0l0-0.5v-3H134.4
		L134.4,39.6z M130.4,39.6v3.9h0.4l1.9-3.1l0.2-0.4h0l0,0.5v3h0.4v-3.9h-0.4l-1.9,3l-0.2,0.4h0l0-0.5v-3H130.4L130.4,39.6z
		 M126.8,39.6v3.9h0.4v-1.8v-0.2l0,0l0.1,0.1l1.9,1.9h0.5l-2.1-2.1l1.9-1.9H129l-1.7,1.7l-0.1,0.1h0v-0.2v-1.6H126.8L126.8,39.6z
		 M126.1,43.1c-0.3,0.1-0.7,0.2-1,0.2c-0.9,0-1.6-0.6-1.6-1.6c0-1,0.6-1.8,1.6-1.8c0.1,0,0.5,0,0.9,0.2l0-0.3
		c-0.3-0.1-0.6-0.2-0.9-0.2c-1.4,0-2,1-2,2.1c0,1,0.6,2,2,2c0.4,0,0.8-0.1,1-0.2V43.1L126.1,43.1z M120.5,39.6v3.9h2v-0.3h-1.7v-1.6
		h1.5v-0.3h-1.5v-1.4h1.5v-0.3H120.5L120.5,39.6z M116.7,39.6v1.3c0,0.4,0.1,1,1.3,1c0.3,0,0.5,0,0.8-0.1l0.2,0v1.7h0.4v-3.9H119
		v1.9l-0.2,0c-0.2,0-0.5,0.1-0.7,0.1c-0.2,0-1,0-1-0.7v-1.3H116.7L116.7,39.6z M112.9,39.6v3.9h0.4l1.9-3.1l0.2-0.4h0l0,0.5v3h0.4
		v-3.9h-0.4l-1.9,3l-0.2,0.4h0l0-0.5v-3H112.9L112.9,39.6z M108.9,39.6v3.9h0.4v-1.9h2.1v1.9h0.4v-3.9h-0.4v1.7h-2.1v-1.7H108.9
		L108.9,39.6z M105,39.6l1.4,1.9l-1.5,2.1h0.4l1-1.4l0.2-0.4h0l0.2,0.4l1,1.4h0.5l-1.5-2.1l1.3-1.9h-0.4l-1,1.4l-0.1,0.2h0l-0.1-0.2
		l-1-1.4H105L105,39.6z M102.5,39.6v3.9h2v-0.3h-1.7v-1.6h1.5v-0.3h-1.5v-1.4h1.5v-0.3H102.5L102.5,39.6z M99.1,39.6v0.3h1.2v3.6
		h0.4v-3.6h1.2v-0.3H99.1L99.1,39.6z M95.5,39.6v3.9h0.4l1.9-3.1l0.2-0.4h0l0,0.5v3h0.4v-3.9H98l-1.9,3L95.9,43h0l0-0.5v-3H95.5
		L95.5,39.6z M92.1,39.6v1.3c0,0.7,0.1,2.3-0.6,2.3c-0.1,0-0.2,0-0.2,0l0,0.3c0.1,0,0.2,0,0.3,0c0.9,0,0.9-1.3,0.9-2.6v-1H94v3.6
		h0.4v-3.9H92.1L92.1,39.6z M87.7,41.6c0-1.2,0.7-1.7,1.4-1.7c0.7,0,1.4,0.5,1.4,1.7c0,1.2-0.7,1.7-1.4,1.7
		C88.4,43.3,87.7,42.8,87.7,41.6L87.7,41.6L87.7,41.6z M87.3,41.6c0,1.3,0.8,2,1.8,2c1,0,1.8-0.7,1.8-2c0-1.1-0.6-2-1.8-2
		C87.9,39.5,87.3,40.5,87.3,41.6L87.3,41.6L87.3,41.6z M83.6,39.6v3.9H84v-3.6H86v3.6h0.4v-3.9H83.6L83.6,39.6z M79.1,38.7l-0.2,0.2
		c0.2,0.3,0.5,0.4,0.8,0.4c0.3,0,0.6-0.2,0.8-0.4l-0.2-0.2c-0.2,0.3-0.5,0.3-0.7,0.3C79.6,39,79.3,38.9,79.1,38.7L79.1,38.7
		L79.1,38.7z M78.3,39.6v3.9h0.4l1.9-3.1l0.2-0.4h0l0,0.5v3h0.4v-3.9h-0.4l-1.9,3L78.6,43h0l0-0.5v-3H78.3L78.3,39.6z M74.2,39.6
		v3.9h0.4l1.9-3.1l0.2-0.4h0l0,0.5v3h0.4v-3.9h-0.4l-1.9,3L74.6,43h0l0-0.5v-3H74.2L74.2,39.6z M70.6,39.6v3.9H71v-1.8v-0.2l0,0
		l0.1,0.1l1.9,1.9h0.5l-2.1-2.1l1.9-1.9h-0.5l-1.7,1.7L71,41.4h0v-0.2v-1.6H70.6L70.6,39.6z M69.9,43.1c-0.3,0.1-0.7,0.2-1,0.2
		c-0.9,0-1.6-0.6-1.6-1.6c0-1,0.6-1.8,1.6-1.8c0.1,0,0.5,0,0.9,0.2l0-0.3c-0.3-0.1-0.6-0.2-0.9-0.2c-1.4,0-2,1-2,2.1c0,1,0.6,2,2,2
		c0.4,0,0.8-0.1,1-0.2L69.9,43.1L69.9,43.1z M64,43.2l-0.2-0.5l-1.3-3.1h-0.6v3.9h0.4v-3.1l0-0.5h0l0.2,0.5l1.3,3.1h0.4l1.3-3.1
		l0.2-0.5h0l0,0.5v3.1h0.4v-3.9h-0.6l-1.3,3.1L64,43.2L64,43.2L64,43.2z M57.9,41.6c0-1.2,0.7-1.7,1.4-1.7c0.7,0,1.4,0.5,1.4,1.7
		c0,1.2-0.7,1.7-1.4,1.7C58.6,43.3,57.9,42.8,57.9,41.6L57.9,41.6L57.9,41.6z M57.5,41.6c0,1.3,0.8,2,1.8,2c1,0,1.8-0.7,1.8-2
		c0-1.1-0.6-2-1.8-2C58.1,39.5,57.5,40.5,57.5,41.6L57.5,41.6z M54.3,39.6v0.3h1.2v3.6h0.4v-3.6h1.2v-0.3H54.3z"/>
</g>
<g>
	<path class="st1" d="M61.3,18.6c0,0.1,0,0.1,0,0.2c0,0-0.1,0-0.2,0h-0.9c-0.1,0-0.1,0-0.2,0c0,0,0-0.1,0-0.2v-6.3h-3.4v6.3
		c0,0.1,0,0.1,0,0.2c0,0-0.1,0-0.2,0h-0.9c-0.1,0-0.1,0-0.2,0c0,0,0-0.1,0-0.2v-6.7c0-0.3,0.1-0.4,0.2-0.6c0.1-0.1,0.3-0.2,0.5-0.2
		h4.6c0.5,0,0.7,0.2,0.7,0.7V18.6z"/>
	<path class="st1" d="M67.9,15.9c0,1-0.2,1.7-0.7,2.2c-0.4,0.5-1.1,0.8-2,0.8c-0.9,0-1.5-0.3-2-0.8s-0.6-1.2-0.6-2.2
		c0-0.5,0.1-0.9,0.2-1.3c0.1-0.4,0.3-0.7,0.5-0.9c0.2-0.3,0.5-0.4,0.8-0.6c0.3-0.1,0.7-0.2,1.1-0.2c0.9,0,1.5,0.3,2,0.8
		C67.7,14.3,67.9,15,67.9,15.9z M66.6,16c0-0.3,0-0.5-0.1-0.7c0-0.2-0.1-0.4-0.2-0.6s-0.2-0.3-0.4-0.4c-0.2-0.1-0.4-0.2-0.6-0.2
		c-0.2,0-0.4,0-0.6,0.1c-0.2,0.1-0.3,0.2-0.4,0.4c-0.1,0.2-0.2,0.4-0.3,0.6c-0.1,0.2-0.1,0.5-0.1,0.8c0,0.6,0.1,1.1,0.3,1.4
		c0.2,0.3,0.5,0.5,1,0.5c0.3,0,0.5-0.1,0.6-0.2c0.2-0.1,0.3-0.2,0.4-0.4c0.1-0.2,0.2-0.4,0.2-0.6C66.6,16.5,66.6,16.2,66.6,16z"/>
	<path class="st1" d="M73.3,13.1c0.2,0,0.4,0,0.5,0.2c0.1,0.1,0.1,0.3,0.1,0.5v4.9c0,0.1,0,0.1-0.1,0.2s-0.1,0-0.2,0h-0.8
		c-0.1,0-0.1,0-0.2,0c0,0-0.1-0.1-0.1-0.2v-4.4h-1.7l0,0.7c0,0.7-0.1,1.3-0.2,1.7c-0.1,0.5-0.2,0.9-0.3,1.2
		c-0.1,0.3-0.3,0.6-0.5,0.7c-0.2,0.2-0.5,0.3-0.9,0.4c-0.1,0-0.2,0-0.2,0c0,0-0.1-0.1-0.1-0.1l-0.2-0.6c0-0.1,0-0.1,0-0.2
		c0,0,0.1-0.1,0.2-0.1c0.2-0.1,0.3-0.2,0.5-0.3s0.2-0.3,0.3-0.5c0.1-0.2,0.1-0.5,0.2-0.9c0-0.4,0.1-0.9,0.1-1.5l0.1-1.1
		c0-0.2,0.1-0.4,0.2-0.5c0.1-0.1,0.3-0.1,0.5-0.1H73.3z"/>
	<path class="st1" d="M75.3,13.3c0-0.1,0-0.1,0-0.1c0,0,0.1,0,0.2,0h0.9c0.1,0,0.1,0,0.2,0s0,0.1,0,0.1V17h0l0.7-1.1
		c0-0.1,0.1-0.1,0.1-0.2s0.1-0.2,0.2-0.4s0.3-0.4,0.4-0.7c0.2-0.3,0.4-0.7,0.7-1.2c0.1-0.1,0.2-0.2,0.2-0.3c0.1-0.1,0.2-0.1,0.4-0.1
		h0.4c0.2,0,0.3,0,0.4,0.1s0.1,0.2,0.1,0.4v5c0,0.1,0,0.1,0,0.1c0,0-0.1,0-0.2,0h-0.9c-0.1,0-0.1,0-0.2,0c0,0,0-0.1,0-0.1V15H79
		l-0.7,1l-1.6,2.4c-0.1,0.1-0.2,0.2-0.3,0.3c-0.1,0-0.2,0.1-0.4,0.1h-0.4c-0.4,0-0.5-0.2-0.5-0.5V13.3z"/>
	<path class="st1" d="M83,18.6c0,0.1,0,0.2,0,0.2c0,0-0.1,0-0.2,0H82c-0.1,0-0.1,0-0.2,0s-0.1-0.1-0.1-0.2v-3.7c0-0.2,0-0.5,0.1-0.7
		c0-0.2,0.1-0.4,0.3-0.6c0.1-0.2,0.3-0.3,0.5-0.4c0.2-0.1,0.5-0.1,0.9-0.1h2.4c0.1,0,0.2,0,0.2,0.1s0,0.1,0,0.2v0.6
		c0,0.1,0,0.1,0,0.2c0,0-0.1,0.1-0.2,0.1h-2.2c-0.3,0-0.4,0.1-0.5,0.2S83,14.6,83,14.8V18.6z"/>
	<path class="st1" d="M92,15.9c0,1-0.2,1.7-0.7,2.2c-0.4,0.5-1.1,0.8-2,0.8c-0.9,0-1.5-0.3-2-0.8s-0.6-1.2-0.6-2.2
		c0-0.5,0.1-0.9,0.2-1.3c0.1-0.4,0.3-0.7,0.5-0.9c0.2-0.3,0.5-0.4,0.8-0.6c0.3-0.1,0.7-0.2,1.1-0.2c0.9,0,1.5,0.3,2,0.8
		C91.7,14.3,92,15,92,15.9z M90.7,16c0-0.3,0-0.5-0.1-0.7c0-0.2-0.1-0.4-0.2-0.6s-0.2-0.3-0.4-0.4c-0.2-0.1-0.4-0.2-0.6-0.2
		c-0.2,0-0.4,0-0.6,0.1c-0.2,0.1-0.3,0.2-0.4,0.4c-0.1,0.2-0.2,0.4-0.3,0.6C88,15.4,88,15.7,88,15.9c0,0.6,0.1,1.1,0.3,1.4
		c0.2,0.3,0.5,0.5,1,0.5c0.3,0,0.5-0.1,0.6-0.2c0.2-0.1,0.3-0.2,0.4-0.4c0.1-0.2,0.2-0.4,0.2-0.6C90.6,16.5,90.7,16.2,90.7,16z"/>
	<path class="st1" d="M94.4,18.8c0,0-0.1,0-0.2,0h-0.8c-0.1,0-0.1,0-0.2,0c0,0-0.1-0.1-0.1-0.2v-5.3c0-0.1,0-0.1,0.1-0.2
		c0,0,0.1,0,0.2,0h0.8c0.1,0,0.1,0,0.2,0c0,0,0.1,0.1,0.1,0.2v1.9h2.4v-1.9c0-0.1,0-0.1,0.1-0.2c0,0,0.1,0,0.2,0h0.8
		c0.1,0,0.2,0,0.2,0c0,0,0,0.1,0,0.2v5.3c0,0.1,0,0.2,0,0.2c0,0-0.1,0-0.2,0H97c-0.1,0-0.1,0-0.2,0c0,0-0.1-0.1-0.1-0.2v-2.3h-2.4
		v2.3C94.4,18.7,94.4,18.7,94.4,18.8z"/>
	<path class="st1" d="M102.5,13.3c0-0.1,0-0.1,0-0.1c0,0,0.1,0,0.2,0h0.9c0.1,0,0.1,0,0.2,0s0,0.1,0,0.1V17h0l0.7-1.1
		c0-0.1,0.1-0.1,0.1-0.2s0.1-0.2,0.2-0.4s0.3-0.4,0.4-0.7c0.2-0.3,0.4-0.7,0.7-1.2c0.1-0.1,0.2-0.2,0.2-0.3c0.1-0.1,0.2-0.1,0.4-0.1
		h0.4c0.2,0,0.3,0,0.4,0.1s0.1,0.2,0.1,0.4v5c0,0.1,0,0.1,0,0.1c0,0-0.1,0-0.2,0h-0.9c-0.1,0-0.1,0-0.2,0c0,0,0-0.1,0-0.1V15h-0.1
		l-0.7,1l-1.6,2.4c-0.1,0.1-0.2,0.2-0.3,0.3c-0.1,0-0.2,0.1-0.4,0.1H103c-0.4,0-0.5-0.2-0.5-0.5V13.3z"/>
	<path class="st1" d="M110.2,18.8c0,0-0.1,0-0.2,0h-0.8c-0.1,0-0.1,0-0.2,0c0,0-0.1-0.1-0.1-0.2v-5.3c0-0.1,0-0.1,0.1-0.2
		c0,0,0.1,0,0.2,0h0.8c0.1,0,0.1,0,0.2,0c0,0,0.1,0.1,0.1,0.2v1.9h2.4v-1.9c0-0.1,0-0.1,0.1-0.2c0,0,0.1,0,0.2,0h0.8
		c0.1,0,0.2,0,0.2,0c0,0,0,0.1,0,0.2v5.3c0,0.1,0,0.2,0,0.2c0,0-0.1,0-0.2,0h-0.8c-0.1,0-0.1,0-0.2,0c0,0-0.1-0.1-0.1-0.2v-2.3h-2.4
		v2.3C110.2,18.7,110.2,18.7,110.2,18.8z"/>
	<path class="st1" d="M118.2,16.2h-0.6c-0.2,0-0.4,0.1-0.6,0.2c-0.2,0.1-0.3,0.3-0.4,0.5l-0.5,1.7c0,0.1,0,0.1-0.1,0.1
		c0,0-0.1,0-0.1,0H115c-0.1,0-0.1,0-0.1-0.1c0,0,0-0.1,0-0.1l0.6-1.9c0-0.1,0.1-0.2,0.1-0.3c0-0.1,0.1-0.2,0.2-0.3s0.1-0.2,0.2-0.2
		s0.2-0.1,0.4-0.2l0,0c-0.2-0.1-0.4-0.2-0.5-0.4s-0.2-0.4-0.3-0.6l-0.4-1.4c0,0,0-0.1,0-0.1s0.1-0.1,0.1-0.1h0.9c0,0,0.1,0,0.1,0
		c0,0,0.1,0.1,0.1,0.1l0.4,1.3c0.1,0.3,0.2,0.5,0.4,0.6c0.2,0.1,0.4,0.1,0.6,0.1h0.5v-2c0-0.1,0-0.1,0-0.1c0,0,0.1,0,0.2,0h0.9
		c0.1,0,0.1,0,0.1,0s0,0.1,0,0.1v2h0.5c0.2,0,0.4,0,0.6-0.1c0.2-0.1,0.3-0.3,0.4-0.6l0.4-1.3c0-0.1,0-0.1,0.1-0.1c0,0,0.1,0,0.1,0
		h0.9c0.1,0,0.1,0,0.1,0.1s0,0.1,0,0.1l-0.4,1.4c-0.1,0.2-0.1,0.4-0.3,0.6s-0.3,0.3-0.5,0.4l0,0c0.2,0,0.3,0.1,0.4,0.2
		s0.2,0.1,0.2,0.2c0.1,0.1,0.1,0.2,0.2,0.3c0,0.1,0.1,0.2,0.1,0.3l0.6,1.9c0,0,0,0.1,0,0.1c0,0-0.1,0.1-0.1,0.1h-0.9
		c0,0-0.1,0-0.1,0c0,0-0.1-0.1-0.1-0.1l-0.5-1.7c-0.1-0.2-0.2-0.4-0.4-0.5c-0.2-0.1-0.4-0.2-0.6-0.2h-0.6v2.4c0,0.1,0,0.1,0,0.1
		c0,0-0.1,0-0.1,0h-0.9c-0.1,0-0.1,0-0.2,0c0,0,0-0.1,0-0.1V16.2z"/>
	<path class="st1" d="M126.2,13c0.8,0,1.4,0.2,1.9,0.6c0.4,0.4,0.6,1,0.6,1.8c0,0.2,0,0.3-0.1,0.5c0,0.1-0.1,0.2-0.2,0.3
		c-0.1,0.1-0.2,0.1-0.3,0.2c-0.1,0-0.2,0-0.3,0h-2.9c0,0.3,0,0.5,0.1,0.7c0.1,0.2,0.2,0.3,0.3,0.5c0.1,0.1,0.3,0.2,0.5,0.3
		c0.2,0.1,0.4,0.1,0.6,0.1c0.2,0,0.5,0,0.7-0.1c0.2-0.1,0.4-0.1,0.6-0.2c0.1-0.1,0.2,0,0.2,0.1l0.3,0.6c0.1,0.1,0,0.2-0.1,0.2
		c-0.3,0.2-0.6,0.3-0.9,0.3c-0.3,0.1-0.6,0.1-0.9,0.1c-0.9,0-1.5-0.2-2-0.7s-0.7-1.2-0.7-2.2c0-0.5,0.1-0.9,0.2-1.3
		c0.1-0.4,0.3-0.7,0.5-0.9c0.2-0.3,0.5-0.5,0.8-0.6S125.8,13,126.2,13z M126.2,14c-0.2,0-0.4,0-0.5,0.1c-0.2,0.1-0.3,0.2-0.4,0.3
		c-0.1,0.1-0.2,0.3-0.3,0.4s-0.1,0.3-0.1,0.5h2.5c0-0.2,0-0.4-0.1-0.5s-0.1-0.3-0.2-0.4c-0.1-0.1-0.2-0.2-0.4-0.3S126.5,14,126.2,14
		z"/>
	<path class="st1" d="M131,18.8c0,0-0.1,0-0.2,0h-0.8c-0.1,0-0.1,0-0.2,0c0,0-0.1-0.1-0.1-0.2v-5.3c0-0.1,0-0.1,0.1-0.2
		c0,0,0.1,0,0.2,0h0.8c0.1,0,0.1,0,0.2,0c0,0,0.1,0.1,0.1,0.2v1.9h2.4v-1.9c0-0.1,0-0.1,0.1-0.2c0,0,0.1,0,0.2,0h0.8
		c0.1,0,0.2,0,0.2,0c0,0,0,0.1,0,0.2v5.3c0,0.1,0,0.2,0,0.2c0,0-0.1,0-0.2,0h-0.8c-0.1,0-0.1,0-0.2,0c0,0-0.1-0.1-0.1-0.2v-2.3h-2.4
		v2.3C131.1,18.7,131.1,18.7,131,18.8z"/>
	<path class="st1" d="M138.5,13c0.8,0,1.4,0.2,1.9,0.6c0.4,0.4,0.6,1,0.6,1.8c0,0.2,0,0.3-0.1,0.5c0,0.1-0.1,0.2-0.2,0.3
		c-0.1,0.1-0.2,0.1-0.3,0.2c-0.1,0-0.2,0-0.3,0h-2.9c0,0.3,0,0.5,0.1,0.7c0.1,0.2,0.2,0.3,0.3,0.5c0.1,0.1,0.3,0.2,0.5,0.3
		c0.2,0.1,0.4,0.1,0.6,0.1c0.2,0,0.5,0,0.7-0.1c0.2-0.1,0.4-0.1,0.6-0.2c0.1-0.1,0.2,0,0.2,0.1l0.3,0.6c0.1,0.1,0,0.2-0.1,0.2
		c-0.3,0.2-0.6,0.3-0.9,0.3c-0.3,0.1-0.6,0.1-0.9,0.1c-0.9,0-1.5-0.2-2-0.7s-0.7-1.2-0.7-2.2c0-0.5,0.1-0.9,0.2-1.3
		c0.1-0.4,0.3-0.7,0.5-0.9c0.2-0.3,0.5-0.5,0.8-0.6S138.2,13,138.5,13z M138.5,14c-0.2,0-0.4,0-0.5,0.1c-0.2,0.1-0.3,0.2-0.4,0.3
		c-0.1,0.1-0.2,0.3-0.3,0.4s-0.1,0.3-0.1,0.5h2.5c0-0.2,0-0.4-0.1-0.5s-0.1-0.3-0.2-0.4c-0.1-0.1-0.2-0.2-0.4-0.3S138.8,14,138.5,14
		z"/>
	<path class="st1" d="M143.4,20.8c0,0.1,0,0.1,0,0.2c0,0-0.1,0-0.2,0h-0.9c-0.1,0-0.1,0-0.2,0c0,0,0-0.1,0-0.2v-7.2
		c0-0.1,0-0.1,0-0.2c0,0,0.1-0.1,0.1-0.1c0.4-0.2,0.7-0.3,1.1-0.3c0.4-0.1,0.8-0.1,1.1-0.1c0.5,0,0.9,0.1,1.2,0.2
		c0.3,0.2,0.6,0.4,0.8,0.6c0.2,0.3,0.4,0.6,0.5,0.9c0.1,0.4,0.1,0.7,0.1,1.2c0,0.4-0.1,0.8-0.2,1.1c-0.1,0.4-0.3,0.7-0.5,0.9
		c-0.2,0.3-0.5,0.5-0.8,0.6c-0.3,0.2-0.7,0.2-1.1,0.2c-0.2,0-0.4,0-0.6,0c-0.2,0-0.4-0.1-0.7-0.1V20.8z M145.9,15.9
		c0-0.3,0-0.6-0.1-0.9c-0.1-0.2-0.2-0.4-0.3-0.6c-0.1-0.1-0.3-0.3-0.5-0.3c-0.2-0.1-0.4-0.1-0.6-0.1c-0.1,0-0.3,0-0.5,0
		c-0.2,0-0.4,0.1-0.5,0.1v3.5c0.2,0.1,0.4,0.1,0.6,0.1c0.2,0,0.3,0,0.5,0c0.2,0,0.4,0,0.6-0.1c0.2-0.1,0.3-0.2,0.5-0.3
		c0.1-0.1,0.2-0.3,0.3-0.6C145.9,16.6,145.9,16.3,145.9,15.9z"/>
	<path class="st1" d="M149.6,18.8c0,0-0.1,0-0.2,0h-0.8c-0.1,0-0.1,0-0.2,0s-0.1-0.1-0.1-0.2v-5.3c0-0.1,0-0.1,0.1-0.2s0.1,0,0.2,0
		h0.8c0.1,0,0.1,0,0.2,0c0,0,0.1,0.1,0.1,0.2v1.9h2.4v-1.9c0-0.1,0-0.1,0.1-0.2s0.1,0,0.2,0h0.8c0.1,0,0.2,0,0.2,0c0,0,0,0.1,0,0.2
		v5.3c0,0.1,0,0.2,0,0.2c0,0-0.1,0-0.2,0h-0.8c-0.1,0-0.1,0-0.2,0s-0.1-0.1-0.1-0.2v-2.3h-2.4v2.3C149.7,18.7,149.7,18.7,149.6,18.8
		z"/>
	<path class="st1" d="M159.8,15.9c0,1-0.2,1.7-0.7,2.2c-0.4,0.5-1.1,0.8-2,0.8c-0.9,0-1.5-0.3-2-0.8c-0.4-0.5-0.6-1.2-0.6-2.2
		c0-0.5,0.1-0.9,0.2-1.3c0.1-0.4,0.3-0.7,0.5-0.9c0.2-0.3,0.5-0.4,0.8-0.6c0.3-0.1,0.7-0.2,1.1-0.2c0.9,0,1.5,0.3,2,0.8
		C159.6,14.3,159.8,15,159.8,15.9z M158.5,16c0-0.3,0-0.5-0.1-0.7s-0.1-0.4-0.2-0.6s-0.2-0.3-0.4-0.4c-0.2-0.1-0.4-0.2-0.6-0.2
		c-0.2,0-0.4,0-0.6,0.1c-0.2,0.1-0.3,0.2-0.4,0.4c-0.1,0.2-0.2,0.4-0.3,0.6c-0.1,0.2-0.1,0.5-0.1,0.8c0,0.6,0.1,1.1,0.3,1.4
		c0.2,0.3,0.5,0.5,1,0.5c0.3,0,0.5-0.1,0.6-0.2s0.3-0.2,0.4-0.4c0.1-0.2,0.2-0.4,0.2-0.6S158.5,16.2,158.5,16z"/>
	<path class="st1" d="M162.3,18.6c0,0.1,0,0.2,0,0.2c0,0-0.1,0-0.2,0h-0.8c-0.1,0-0.1,0-0.2,0s-0.1-0.1-0.1-0.2v-3.7
		c0-0.2,0-0.5,0.1-0.7c0-0.2,0.1-0.4,0.3-0.6c0.1-0.2,0.3-0.3,0.5-0.4c0.2-0.1,0.5-0.1,0.9-0.1h2.4c0.1,0,0.2,0,0.2,0.1s0,0.1,0,0.2
		v0.6c0,0.1,0,0.1,0,0.2c0,0-0.1,0.1-0.2,0.1H163c-0.3,0-0.4,0.1-0.5,0.2s-0.2,0.3-0.2,0.5V18.6z"/>
	<path class="st1" d="M171.2,15.9c0,1-0.2,1.7-0.7,2.2c-0.4,0.5-1.1,0.8-2,0.8c-0.9,0-1.5-0.3-2-0.8c-0.4-0.5-0.6-1.2-0.6-2.2
		c0-0.5,0.1-0.9,0.2-1.3c0.1-0.4,0.3-0.7,0.5-0.9c0.2-0.3,0.5-0.4,0.8-0.6c0.3-0.1,0.7-0.2,1.1-0.2c0.9,0,1.5,0.3,2,0.8
		C171,14.3,171.2,15,171.2,15.9z M169.9,16c0-0.3,0-0.5-0.1-0.7s-0.1-0.4-0.2-0.6s-0.2-0.3-0.4-0.4c-0.2-0.1-0.4-0.2-0.6-0.2
		c-0.2,0-0.4,0-0.6,0.1c-0.2,0.1-0.3,0.2-0.4,0.4c-0.1,0.2-0.2,0.4-0.3,0.6c-0.1,0.2-0.1,0.5-0.1,0.8c0,0.6,0.1,1.1,0.3,1.4
		c0.2,0.3,0.5,0.5,1,0.5c0.3,0,0.5-0.1,0.6-0.2s0.3-0.2,0.4-0.4c0.1-0.2,0.2-0.4,0.2-0.6S169.9,16.2,169.9,16z"/>
	<path class="st1" d="M60.2,28.7c0,0.1,0,0.1,0,0.2s-0.1,0-0.2,0h-0.8c-0.1,0-0.1,0-0.2,0s0-0.1,0-0.2v-4.5h-2.5v4.5
		c0,0.1,0,0.1,0,0.2s-0.1,0-0.2,0h-0.8c-0.1,0-0.1,0-0.2,0c0,0,0-0.1,0-0.2v-5c0-0.1,0-0.2,0.1-0.4c0.1-0.1,0.2-0.2,0.4-0.2h3.9
		c0.2,0,0.4,0.1,0.4,0.2c0.1,0.1,0.1,0.2,0.1,0.4V28.7z"/>
	<path class="st1" d="M62.9,30.9c0,0.1,0,0.1,0,0.2c0,0-0.1,0-0.2,0h-0.8c-0.1,0-0.1,0-0.2,0c0,0,0-0.1,0-0.2v-7.2
		c0-0.1,0-0.1,0-0.2s0.1-0.1,0.1-0.1c0.4-0.2,0.7-0.3,1.1-0.3c0.4-0.1,0.8-0.1,1.1-0.1c0.5,0,0.9,0.1,1.2,0.2s0.6,0.4,0.8,0.6
		c0.2,0.3,0.4,0.6,0.5,0.9s0.1,0.7,0.1,1.2c0,0.4-0.1,0.8-0.2,1.1c-0.1,0.4-0.3,0.7-0.5,0.9c-0.2,0.3-0.5,0.5-0.8,0.6
		C65,28.9,64.6,29,64.2,29c-0.2,0-0.4,0-0.6,0s-0.4-0.1-0.7-0.1V30.9z M65.4,26c0-0.3,0-0.6-0.1-0.9c-0.1-0.2-0.2-0.4-0.3-0.6
		c-0.1-0.1-0.3-0.3-0.5-0.3c-0.2-0.1-0.4-0.1-0.6-0.1c-0.1,0-0.3,0-0.5,0c-0.2,0-0.4,0.1-0.5,0.1v3.5c0.2,0.1,0.4,0.1,0.6,0.1
		s0.3,0,0.5,0c0.2,0,0.4,0,0.6-0.1c0.2-0.1,0.3-0.2,0.5-0.3c0.1-0.1,0.2-0.3,0.3-0.6C65.4,26.7,65.4,26.4,65.4,26z"/>
	<path class="st1" d="M70.3,23.1c0.8,0,1.4,0.2,1.9,0.6c0.4,0.4,0.6,1,0.6,1.8c0,0.2,0,0.3-0.1,0.5c0,0.1-0.1,0.2-0.2,0.3
		c-0.1,0.1-0.2,0.1-0.3,0.2c-0.1,0-0.2,0-0.3,0H69c0,0.3,0,0.5,0.1,0.7c0.1,0.2,0.2,0.3,0.3,0.5c0.1,0.1,0.3,0.2,0.5,0.3
		c0.2,0,0.4,0.1,0.6,0.1c0.2,0,0.5,0,0.7-0.1c0.2-0.1,0.4-0.1,0.6-0.2c0.1,0,0.2,0,0.2,0.1l0.3,0.6c0.1,0.1,0,0.2-0.1,0.3
		c-0.3,0.2-0.6,0.3-0.9,0.3C71,29,70.7,29,70.4,29c-0.9,0-1.5-0.2-2-0.7c-0.5-0.5-0.7-1.2-0.7-2.2c0-0.5,0.1-0.9,0.2-1.3
		c0.1-0.4,0.3-0.7,0.5-0.9c0.2-0.3,0.5-0.5,0.8-0.6S69.9,23.1,70.3,23.1z M70.3,24.1c-0.2,0-0.4,0-0.5,0.1c-0.2,0.1-0.3,0.2-0.4,0.3
		c-0.1,0.1-0.2,0.3-0.3,0.4S69,25.3,69,25.5h2.5c0-0.2,0-0.4-0.1-0.5c0-0.2-0.1-0.3-0.2-0.4c-0.1-0.1-0.2-0.2-0.4-0.3
		S70.5,24.1,70.3,24.1z"/>
	<path class="st1" d="M73.9,27.9c0.1-0.1,0.2-0.2,0.2-0.3c0.1-0.1,0.1-0.2,0.2-0.4c0-0.1,0.1-0.3,0.1-0.4c0-0.2,0.1-0.3,0.1-0.5
		l0.4-2.5c0-0.2,0.1-0.4,0.2-0.4c0.1-0.1,0.3-0.1,0.5-0.1h2.7c0.3,0,0.4,0.1,0.5,0.2s0.1,0.3,0.1,0.4v4.1l0.3,0
		c0.1,0,0.2,0.1,0.3,0.1s0.1,0.2,0.1,0.3l-0.1,2.1c0,0.1,0,0.2-0.1,0.2h-0.8c-0.1,0-0.1-0.1-0.1-0.2l-0.1-1.5h-3.8
		c0,0.3,0,0.5,0,0.8c0,0.3,0,0.5,0,0.8c0,0.1-0.1,0.2-0.2,0.2h-0.8c-0.1,0-0.1,0-0.1-0.1l-0.1-2.1c0-0.1,0-0.2,0.1-0.3
		c0-0.1,0.1-0.1,0.3-0.1L73.9,27.9z M77.7,24.3H76l-0.2,1.6c0,0.3-0.1,0.6-0.1,0.8c0,0.2-0.1,0.4-0.1,0.5c0,0.1-0.1,0.3-0.1,0.4
		c0,0.1-0.1,0.2-0.1,0.3h2.5V24.3z"/>
	<path class="st1" d="M85.7,28.7c0,0.1,0,0.1,0,0.2s-0.1,0-0.2,0h-0.8c-0.1,0-0.1,0-0.2,0s0-0.1,0-0.2v-4.5H82v4.5
		c0,0.1,0,0.1,0,0.2c0,0-0.1,0-0.2,0h-0.8c-0.1,0-0.1,0-0.2,0s0-0.1,0-0.2v-5c0-0.1,0-0.2,0.1-0.4c0.1-0.1,0.2-0.2,0.4-0.2h3.9
		c0.2,0,0.4,0.1,0.4,0.2c0.1,0.1,0.1,0.2,0.1,0.4V28.7z"/>
	<path class="st1" d="M88.4,30.9c0,0.1,0,0.1,0,0.2c0,0-0.1,0-0.2,0h-0.9c-0.1,0-0.1,0-0.2,0c0,0,0-0.1,0-0.2v-7.2
		c0-0.1,0-0.1,0-0.2c0,0,0.1-0.1,0.1-0.1c0.4-0.2,0.7-0.3,1.1-0.3c0.4-0.1,0.8-0.1,1.1-0.1c0.5,0,0.9,0.1,1.2,0.2
		c0.3,0.2,0.6,0.4,0.8,0.6c0.2,0.3,0.4,0.6,0.5,0.9s0.1,0.7,0.1,1.2c0,0.4-0.1,0.8-0.2,1.1s-0.3,0.7-0.5,0.9
		c-0.2,0.3-0.5,0.5-0.8,0.6c-0.3,0.2-0.7,0.2-1.1,0.2c-0.2,0-0.4,0-0.6,0c-0.2,0-0.4-0.1-0.7-0.1V30.9z M90.9,26
		c0-0.3,0-0.6-0.1-0.9c-0.1-0.2-0.2-0.4-0.3-0.6c-0.1-0.1-0.3-0.3-0.5-0.3c-0.2-0.1-0.4-0.1-0.6-0.1c-0.1,0-0.3,0-0.5,0
		c-0.2,0-0.4,0.1-0.5,0.1v3.5c0.2,0.1,0.4,0.1,0.6,0.1s0.3,0,0.5,0c0.2,0,0.4,0,0.6-0.1c0.2-0.1,0.3-0.2,0.5-0.3
		c0.1-0.1,0.2-0.3,0.3-0.6C90.9,26.7,90.9,26.4,90.9,26z"/>
	<path class="st1" d="M93.4,23.4c0-0.1,0-0.1,0-0.1c0,0,0.1,0,0.2,0h0.9c0.1,0,0.1,0,0.2,0s0,0.1,0,0.1v3.7h0l0.7-1.1
		c0-0.1,0.1-0.1,0.1-0.2s0.1-0.2,0.2-0.4s0.3-0.4,0.4-0.7c0.2-0.3,0.4-0.7,0.7-1.2c0.1-0.1,0.2-0.2,0.2-0.3c0.1-0.1,0.2-0.1,0.4-0.1
		h0.4c0.2,0,0.3,0,0.4,0.1s0.1,0.2,0.1,0.4v5c0,0.1,0,0.1,0,0.1c0,0-0.1,0-0.2,0h-0.9c-0.1,0-0.1,0-0.2,0c0,0,0-0.1,0-0.1v-3.7h-0.1
		l-0.7,1l-1.6,2.4c-0.1,0.1-0.2,0.2-0.3,0.3s-0.2,0.1-0.4,0.1h-0.4c-0.4,0-0.5-0.2-0.5-0.5V23.4z"/>
	<path class="st1" d="M101.1,28.9c0,0-0.1,0-0.2,0h-0.8c-0.1,0-0.1,0-0.2,0c0,0-0.1-0.1-0.1-0.2v-5.3c0-0.1,0-0.1,0.1-0.2
		s0.1,0,0.2,0h0.8c0.1,0,0.1,0,0.2,0c0,0,0.1,0.1,0.1,0.2v1.9h2.4v-1.9c0-0.1,0-0.1,0.1-0.2s0.1,0,0.2,0h0.8c0.1,0,0.2,0,0.2,0
		c0,0,0,0.1,0,0.2v5.3c0,0.1,0,0.2,0,0.2c0,0-0.1,0-0.2,0h-0.8c-0.1,0-0.1,0-0.2,0c0,0-0.1-0.1-0.1-0.2v-2.3h-2.4v2.3
		C101.2,28.8,101.1,28.8,101.1,28.9z"/>
	<path class="st1" d="M106.2,23.4c0-0.1,0-0.1,0-0.1c0,0,0.1,0,0.2,0h0.9c0.1,0,0.1,0,0.2,0s0,0.1,0,0.1v3.7h0l0.7-1.1
		c0-0.1,0.1-0.1,0.1-0.2s0.1-0.2,0.2-0.4s0.3-0.4,0.4-0.7c0.2-0.3,0.4-0.7,0.7-1.2c0.1-0.1,0.2-0.2,0.2-0.3c0.1-0.1,0.2-0.1,0.4-0.1
		h0.4c0.2,0,0.3,0,0.4,0.1s0.1,0.2,0.1,0.4v5c0,0.1,0,0.1,0,0.1c0,0-0.1,0-0.2,0h-0.9c-0.1,0-0.1,0-0.2,0c0,0,0-0.1,0-0.1v-3.7H110
		l-0.7,1l-1.6,2.4c-0.1,0.1-0.2,0.2-0.3,0.3s-0.2,0.1-0.4,0.1h-0.4c-0.4,0-0.5-0.2-0.5-0.5V23.4z"/>
	<path class="st1" d="M117.9,25.2l-0.5,1.2l-0.7,1.5c-0.1,0.1-0.1,0.2-0.2,0.3c-0.1,0-0.2,0.1-0.3,0.1h-0.4c-0.2,0-0.3,0-0.3-0.1
		c-0.1-0.1-0.1-0.1-0.2-0.3l-0.7-1.4l-0.5-1.2h-0.1v3.4c0,0.1,0,0.1,0,0.2c0,0-0.1,0-0.2,0h-0.8c-0.1,0-0.1,0-0.2,0
		c0,0-0.1-0.1-0.1-0.2v-5c0-0.1,0-0.3,0.1-0.4c0.1-0.1,0.2-0.2,0.4-0.2h0.5c0.1,0,0.3,0,0.3,0.1c0.1,0,0.2,0.1,0.3,0.3l0.9,2
		l0.6,1.3h0l0.7-1.5l0.9-1.8c0.1-0.2,0.2-0.3,0.2-0.3s0.2-0.1,0.4-0.1h0.5c0.2,0,0.3,0,0.4,0.1s0.1,0.2,0.1,0.4v5c0,0.1,0,0.1,0,0.2
		c0,0-0.1,0-0.2,0h-0.8c-0.1,0-0.1,0-0.2,0s0-0.1,0-0.2L117.9,25.2L117.9,25.2z"/>
	<path class="st1" d="M125.2,28.3c0,0.2-0.1,0.3-0.2,0.4c-0.2,0.1-0.3,0.1-0.5,0.2c-0.2,0.1-0.4,0.1-0.6,0.1c-0.2,0-0.4,0-0.6,0.1
		s-0.4,0-0.5,0c-0.5,0-0.9,0-1.2-0.1s-0.6-0.2-0.7-0.4c-0.2-0.2-0.3-0.4-0.4-0.6s-0.1-0.5-0.1-0.7c0-0.3,0-0.5,0.1-0.7
		c0.1-0.2,0.2-0.4,0.4-0.6c0.2-0.2,0.4-0.3,0.7-0.4c0.3-0.1,0.7-0.2,1.1-0.2h1.2v-0.2c0-0.1,0-0.3,0-0.4c0-0.1-0.1-0.2-0.2-0.3
		s-0.2-0.2-0.3-0.2c-0.1,0-0.3-0.1-0.6-0.1c-0.2,0-0.5,0-0.8,0.1s-0.5,0.1-0.7,0.2c-0.1,0-0.1,0-0.2,0c0,0-0.1-0.1-0.1-0.1l-0.2-0.6
		c0-0.1,0-0.2,0.1-0.2c0.3-0.1,0.6-0.2,1-0.2c0.4,0,0.7-0.1,1-0.1c0.8,0,1.3,0.2,1.7,0.5c0.4,0.3,0.5,0.8,0.5,1.5V28.3z M123.9,26.2
		h-1c-0.1,0-0.3,0-0.4,0c-0.1,0-0.3,0.1-0.4,0.1c-0.1,0.1-0.2,0.2-0.3,0.3s-0.1,0.3-0.1,0.5c0,0.3,0.1,0.5,0.3,0.7s0.5,0.2,0.8,0.2
		c0.1,0,0.1,0,0.2,0c0.1,0,0.2,0,0.3,0s0.2,0,0.3-0.1s0.2-0.1,0.3-0.1V26.2z"/>
	<path class="st1" d="M129.1,24.3v4.4c0,0.1,0,0.2,0,0.2s-0.1,0-0.2,0h-0.8c-0.1,0-0.1,0-0.2,0c0,0-0.1-0.1-0.1-0.2v-4.4h-1.6
		c-0.1,0-0.1,0-0.2-0.1c0,0,0-0.1,0-0.2v-0.6c0-0.1,0-0.1,0-0.2s0.1-0.1,0.2-0.1h4.5c0.1,0,0.2,0,0.2,0.1s0,0.1,0,0.2V24
		c0,0.1,0,0.1,0,0.2c0,0-0.1,0.1-0.2,0.1H129.1z"/>
	<path class="st1" d="M134.1,23.1c0.8,0,1.4,0.2,1.9,0.6c0.4,0.4,0.6,1,0.6,1.8c0,0.2,0,0.3-0.1,0.5c0,0.1-0.1,0.2-0.2,0.3
		c-0.1,0.1-0.2,0.1-0.3,0.2c-0.1,0-0.2,0-0.3,0h-2.9c0,0.3,0.1,0.5,0.1,0.7c0.1,0.2,0.2,0.3,0.3,0.5c0.1,0.1,0.3,0.2,0.5,0.3
		c0.2,0,0.4,0.1,0.6,0.1c0.2,0,0.5,0,0.7-0.1c0.2-0.1,0.4-0.1,0.6-0.2c0.1,0,0.2,0,0.2,0.1l0.3,0.6c0.1,0.1,0,0.2-0.1,0.3
		c-0.3,0.2-0.6,0.3-0.9,0.3c-0.3,0.1-0.6,0.1-0.9,0.1c-0.9,0-1.5-0.2-2-0.7c-0.5-0.5-0.7-1.2-0.7-2.2c0-0.5,0.1-0.9,0.2-1.3
		c0.1-0.4,0.3-0.7,0.5-0.9c0.2-0.3,0.5-0.5,0.8-0.6S133.8,23.1,134.1,23.1z M134.2,24.1c-0.2,0-0.4,0-0.5,0.1
		c-0.2,0.1-0.3,0.2-0.4,0.3c-0.1,0.1-0.2,0.3-0.3,0.4c-0.1,0.2-0.1,0.3-0.1,0.5h2.5c0-0.2,0-0.4-0.1-0.5c0-0.2-0.1-0.3-0.2-0.4
		c-0.1-0.1-0.2-0.2-0.4-0.3C134.6,24.2,134.4,24.1,134.2,24.1z"/>
	<path class="st1" d="M141.9,23.2c0.2,0,0.4,0,0.5,0.2c0.1,0.1,0.1,0.3,0.1,0.5v4.9c0,0.1,0,0.1-0.1,0.2s-0.1,0-0.2,0h-0.8
		c-0.1,0-0.1,0-0.2,0c0,0-0.1-0.1-0.1-0.2v-4.4h-1.7l0,0.7c0,0.7-0.1,1.3-0.2,1.7c-0.1,0.5-0.2,0.9-0.3,1.2
		c-0.1,0.3-0.3,0.6-0.5,0.7c-0.2,0.2-0.5,0.3-0.9,0.4c-0.1,0-0.2,0-0.2,0c0,0-0.1-0.1-0.1-0.1l-0.2-0.6c0-0.1,0-0.1,0-0.2
		c0,0,0.1-0.1,0.2-0.1c0.2-0.1,0.3-0.2,0.5-0.3s0.2-0.3,0.3-0.5c0.1-0.2,0.1-0.5,0.2-0.9c0-0.4,0.1-0.9,0.1-1.5l0.1-1.1
		c0-0.2,0.1-0.4,0.2-0.5c0.1-0.1,0.3-0.1,0.5-0.1H141.9z"/>
	<path class="st1" d="M144.6,28.9c-0.2,0-0.4-0.1-0.5-0.2c-0.1-0.1-0.1-0.3-0.1-0.4v-4.9c0-0.1,0-0.1,0.1-0.2s0.1,0,0.2,0h0.8
		c0.1,0,0.2,0,0.2,0c0,0,0,0.1,0,0.2v1.7h1.6c0.5,0,0.8,0.1,1.1,0.2c0.3,0.1,0.5,0.3,0.7,0.5c0.2,0.2,0.3,0.4,0.3,0.6
		s0.1,0.4,0.1,0.5c0,0.3-0.1,0.5-0.2,0.8c-0.1,0.2-0.2,0.4-0.4,0.6s-0.4,0.3-0.6,0.4c-0.2,0.1-0.5,0.1-0.8,0.1H144.6z M147.7,27
		c0-0.2-0.1-0.4-0.2-0.6c-0.2-0.2-0.4-0.3-0.7-0.3h-1.5v1.8h1.5c0.2,0,0.4,0,0.5-0.1c0.1-0.1,0.2-0.1,0.3-0.2
		c0.1-0.1,0.1-0.2,0.1-0.3S147.7,27.1,147.7,27z"/>
	<path class="st1" d="M152.5,27.9c0.2,0,0.5,0,0.7-0.1c0.2-0.1,0.4-0.1,0.6-0.2c0.1,0,0.1,0,0.2,0s0.1,0.1,0.1,0.1l0.3,0.6
		c0.1,0.1,0.1,0.2-0.1,0.3c-0.3,0.2-0.6,0.3-1,0.3c-0.3,0.1-0.7,0.1-1,0.1c-0.8,0-1.4-0.2-1.9-0.7s-0.6-1.2-0.6-2.2
		c0-0.5,0.1-0.9,0.2-1.2s0.3-0.7,0.5-1c0.2-0.3,0.5-0.5,0.8-0.6s0.7-0.2,1.1-0.2c0.3,0,0.6,0,0.9,0.1s0.5,0.2,0.8,0.3
		c0.1,0,0.1,0.1,0.1,0.1s0,0.1,0,0.2l-0.3,0.6c0,0.1-0.1,0.1-0.1,0.1c0,0-0.1,0-0.2,0c-0.2-0.1-0.4-0.1-0.5-0.2
		c-0.2,0-0.4-0.1-0.6-0.1c-0.2,0-0.5,0.1-0.6,0.2c-0.2,0.1-0.3,0.2-0.4,0.4s-0.2,0.4-0.2,0.6c-0.1,0.2-0.1,0.5-0.1,0.7
		c0,0.3,0,0.5,0.1,0.7c0,0.2,0.1,0.4,0.2,0.6c0.1,0.2,0.2,0.3,0.4,0.4C152,27.9,152.3,27.9,152.5,27.9z"/>
	<path class="st1" d="M157.9,24.3v4.4c0,0.1,0,0.2,0,0.2s-0.1,0-0.2,0h-0.8c-0.1,0-0.1,0-0.2,0c0,0-0.1-0.1-0.1-0.2v-4.4H155
		c-0.1,0-0.1,0-0.2-0.1c0,0,0-0.1,0-0.2v-0.6c0-0.1,0-0.1,0-0.2s0.1-0.1,0.2-0.1h4.5c0.1,0,0.2,0,0.2,0.1s0,0.1,0,0.2V24
		c0,0.1,0,0.1,0,0.2c0,0-0.1,0.1-0.2,0.1H157.9z"/>
	<path class="st1" d="M164.7,25.8c0.3,0.1,0.5,0.3,0.7,0.6c0.1,0.3,0.2,0.5,0.2,0.8c0,0.3-0.1,0.5-0.2,0.7s-0.2,0.4-0.4,0.5
		s-0.4,0.3-0.6,0.3c-0.2,0.1-0.5,0.1-0.8,0.1h-2.5c-0.2,0-0.3,0-0.4-0.1c-0.1-0.1-0.1-0.2-0.1-0.4v-4.7c0-0.2,0-0.3,0.1-0.4
		c0.1-0.1,0.2-0.1,0.4-0.1h2.5c0.2,0,0.5,0,0.7,0.1c0.2,0.1,0.4,0.1,0.6,0.3c0.2,0.1,0.3,0.3,0.4,0.4s0.1,0.4,0.1,0.7
		c0,0.2-0.1,0.5-0.2,0.7C165,25.5,164.9,25.6,164.7,25.8L164.7,25.8z M161.8,25.4h1.6c0.1,0,0.1,0,0.2,0c0.1,0,0.1,0,0.2-0.1
		c0.1,0,0.1-0.1,0.2-0.2c0-0.1,0.1-0.2,0.1-0.3c0-0.2-0.1-0.3-0.2-0.4c-0.1-0.1-0.2-0.2-0.4-0.2h-1.6V25.4z M164.3,27.1
		c0-0.2-0.1-0.4-0.2-0.6c-0.1-0.1-0.4-0.2-0.7-0.2h-1.6v1.6h1.6c0.2,0,0.3,0,0.4-0.1s0.2-0.1,0.3-0.2c0.1-0.1,0.1-0.2,0.1-0.3
		C164.2,27.3,164.3,27.2,164.3,27.1z"/>
	<path class="st1" d="M171.4,28.3c0,0.2-0.1,0.3-0.2,0.4c-0.2,0.1-0.3,0.1-0.5,0.2c-0.2,0.1-0.4,0.1-0.6,0.1c-0.2,0-0.4,0-0.6,0.1
		s-0.4,0-0.5,0c-0.5,0-0.9,0-1.2-0.1s-0.6-0.2-0.7-0.4c-0.2-0.2-0.3-0.4-0.4-0.6s-0.1-0.5-0.1-0.7c0-0.3,0-0.5,0.1-0.7
		c0.1-0.2,0.2-0.4,0.4-0.6c0.2-0.2,0.4-0.3,0.7-0.4c0.3-0.1,0.7-0.2,1.1-0.2h1.2v-0.2c0-0.1,0-0.3,0-0.4c0-0.1-0.1-0.2-0.2-0.3
		s-0.2-0.2-0.3-0.2c-0.1,0-0.3-0.1-0.6-0.1c-0.2,0-0.5,0-0.8,0.1s-0.5,0.1-0.7,0.2c-0.1,0-0.1,0-0.2,0c0,0-0.1-0.1-0.1-0.1l-0.2-0.6
		c0-0.1,0-0.2,0.1-0.2c0.3-0.1,0.6-0.2,1-0.2c0.4,0,0.7-0.1,1-0.1c0.8,0,1.3,0.2,1.7,0.5c0.4,0.3,0.5,0.8,0.5,1.5V28.3z M170.1,26.2
		h-1c-0.1,0-0.3,0-0.4,0c-0.1,0-0.3,0.1-0.4,0.1c-0.1,0.1-0.2,0.2-0.3,0.3s-0.1,0.3-0.1,0.5c0,0.3,0.1,0.5,0.3,0.7s0.5,0.2,0.8,0.2
		c0.1,0,0.1,0,0.2,0c0.1,0,0.2,0,0.3,0s0.2,0,0.3-0.1s0.2-0.1,0.3-0.1V26.2z"/>
</g>
<path class="st2" d="M33.2,0H10.3v10.6H0v12.7h14.4c0,4.1,3.3,7.4,7.4,7.4c4.1,0,7.4-3.3,7.4-7.4h14.4V10.6H33.2V0L33.2,0z
	 M14.5,10.6V4h14.6v6.6H14.5z"/>
<path class="st3" d="M0,26.9h10.5c0.2,0.8,0.6,1.5,0.9,2.2L10,30.5c-0.3,0.3,0,0.6,0.2,0.9l3.5,3.5c0.3,0.3,0.6,0.4,0.8,0.1l1.5-1.5
	c0.8,0.5,1.7,0.8,2.6,1.1v2.1c0,0.4,0.3,0.7,0.7,0.7h5.1c0.4,0,0.7-0.3,0.7-0.7v-2.1c0.9-0.3,1.8-0.6,2.6-1.1l1.5,1.5
	c0.3,0.3,0.7,0.3,0.9,0l3.6-3.6c0.3-0.3,0.3-0.7,0-0.9l-1.5-1.5c0.4-0.7,0.7-1.4,0.9-2.2h10.4v16.7H0V26.9z"/>
</svg>
