<?xml version="1.0" encoding="utf-8"?>
<!-- Generator: Adobe Illustrator 19.2.1, SVG Export Plug-In . SVG Version: 6.00 Build 0)  -->
<svg version="1.1" id="Слой_1" xmlns="http://www.w3.org/2000/svg" xmlns:xlink="http://www.w3.org/1999/xlink" x="0px" y="0px"
	 viewBox="0 0 42.5 42.5" style="enable-background:new 0 0 42.5 42.5;" xml:space="preserve">
<style type="text/css">
	.st0{fill-rule:evenodd;clip-rule:evenodd;fill:#363636;}
</style>
<path class="st0" d="M0,15h12.5v27.5H0V15L0,15z M15,30h12.5v12.5H15V30L15,30z M30,15h12.5v27.5H30V15L30,15z M41.3,1.3v10h-10v-10
	H41.3L41.3,1.3z M26.3,1.3v25h-10v-25H26.3L26.3,1.3z M11.3,1.3v10h-10v-10H11.3L11.3,1.3z M30,0v12.5h12.5V0H30L30,0z M15,0v27.5
	h12.5V0H15L15,0z M0,0v12.5h12.5V0H0z"/>
</svg>
