<?xml version="1.0" encoding="utf-8"?>
<!-- Generator: Adobe Illustrator 19.2.1, SVG Export Plug-In . SVG Version: 6.00 Build 0)  -->
<svg version="1.1" id="Слой_1" xmlns="http://www.w3.org/2000/svg" xmlns:xlink="http://www.w3.org/1999/xlink" x="0px" y="0px"
	 viewBox="0 0 175.8 43.6" style="enable-background:new 0 0 175.8 43.6;" xml:space="preserve">
<style type="text/css">
	.st0{fill-rule:evenodd;clip-rule:evenodd;fill:#D1D3D1;}
	.st1{fill:#FFFFFF;}
	.st2{font-family:'PFBeauSansPro-SemiBold';}
	.st3{font-size:10.8513px;}
	.st4{fill-rule:evenodd;clip-rule:evenodd;fill:#74B65F;}
	.st5{fill-rule:evenodd;clip-rule:evenodd;fill:#FFFFFF;}
</style>
<path class="st0" d="M173.1,39.6v0.3h1.2v3.6h0.4v-3.6h1.2v-0.3H173.1L173.1,39.6z M170.7,39.6v3.9h2v-0.3h-1.7v-1.6h1.5v-0.3h-1.5
	v-1.4h1.5v-0.3H170.7L170.7,39.6z M167.3,39.6v0.3h1.2v3.6h0.4v-3.6h1.2v-0.3H167.3L167.3,39.6z M163.8,39.6v3.9h0.4l1.9-3.1
	l0.2-0.4h0l0,0.5v3h0.4v-3.9h-0.4l-1.9,3l-0.2,0.4h0l0-0.5v-3H163.8L163.8,39.6z M163,43.1c-0.3,0.1-0.7,0.2-1,0.2
	c-0.9,0-1.6-0.6-1.6-1.6c0-1,0.6-1.8,1.6-1.8c0.1,0,0.5,0,0.9,0.2l0-0.3c-0.3-0.1-0.6-0.2-0.9-0.2c-1.4,0-2,1-2,2.1c0,1,0.6,2,2,2
	c0.4,0,0.8-0.1,1-0.2V43.1L163,43.1z M157.7,39.9h0.6c0.1,0,0.9,0,0.9,0.8c0,0.8-0.6,0.8-0.9,0.8h-0.6V39.9L157.7,39.9z M157.3,39.6
	v3.9h0.4v-1.7h0.7c0.7,0,1.2-0.5,1.2-1.1c0-0.7-0.5-1.1-1.2-1.1L157.3,39.6L157.3,39.6z M154.4,39.6v3.9h2v-0.3h-1.7v-1.6h1.5v-0.3
	h-1.5v-1.4h1.5v-0.3H154.4L154.4,39.6z M151.6,41.7h0.6c0.5,0,0.9,0.3,0.9,0.8c0,0.7-0.6,0.8-1,0.8l-0.6,0V41.7L151.6,41.7z
	 M151.6,39.9h0.6c0.4,0,0.8,0.2,0.8,0.7c0,0.4-0.3,0.8-0.8,0.8h-0.6V39.9L151.6,39.9z M151.2,39.6v3.9h1c0.2,0,1.3,0,1.3-1.1
	c0-0.5-0.3-0.8-0.8-0.9v0c0.5-0.2,0.7-0.5,0.7-0.9c0-0.5-0.3-1-1.2-1L151.2,39.6L151.2,39.6z M147.1,39.6v3.9h0.4l1.9-3.1l0.2-0.4h0
	l0,0.5v3h0.4v-3.9h-0.4l-1.9,3l-0.2,0.4h0l0-0.5v-3H147.1L147.1,39.6z M143.2,39.6v3.9h0.4v-1.9h2.1v1.9h0.4v-3.9h-0.4v1.7h-2.1
	v-1.7H143.2L143.2,39.6z M139.4,39.6l1.4,3l-0.1,0.2c-0.1,0.3-0.2,0.4-0.4,0.4c-0.1,0-0.2,0-0.3-0.1l0,0.3c0.1,0.1,0.3,0.1,0.4,0.1
	c0.5,0,0.6-0.3,0.8-0.7l1.4-3.3h-0.4l-0.9,2.1l-0.2,0.5h0l-0.2-0.5l-1-2.1H139.4L139.4,39.6z M135.2,38.7l-0.2,0.2
	c0.2,0.3,0.5,0.4,0.8,0.4c0.3,0,0.6-0.2,0.8-0.4l-0.2-0.2c-0.2,0.3-0.5,0.3-0.7,0.3C135.7,39,135.5,38.9,135.2,38.7L135.2,38.7
	L135.2,38.7z M134.4,39.6v3.9h0.4l1.9-3.1l0.2-0.4h0l0,0.5v3h0.4v-3.9h-0.4l-1.9,3l-0.2,0.4h0l0-0.5v-3H134.4L134.4,39.6z
	 M130.4,39.6v3.9h0.4l1.9-3.1l0.2-0.4h0l0,0.5v3h0.4v-3.9h-0.4l-1.9,3l-0.2,0.4h0l0-0.5v-3H130.4L130.4,39.6z M126.8,39.6v3.9h0.4
	v-1.8v-0.2l0,0l0.1,0.1l1.9,1.9h0.5l-2.1-2.1l1.9-1.9H129l-1.7,1.7l-0.1,0.1h0v-0.2v-1.6H126.8L126.8,39.6z M126.1,43.1
	c-0.3,0.1-0.7,0.2-1,0.2c-0.9,0-1.6-0.6-1.6-1.6c0-1,0.6-1.8,1.6-1.8c0.1,0,0.5,0,0.9,0.2l0-0.3c-0.3-0.1-0.6-0.2-0.9-0.2
	c-1.4,0-2,1-2,2.1c0,1,0.6,2,2,2c0.4,0,0.8-0.1,1-0.2V43.1L126.1,43.1z M120.5,39.6v3.9h2v-0.3h-1.7v-1.6h1.5v-0.3h-1.5v-1.4h1.5
	v-0.3H120.5L120.5,39.6z M116.7,39.6v1.3c0,0.4,0.1,1,1.3,1c0.3,0,0.5,0,0.8-0.1l0.2,0v1.7h0.4v-3.9H119v1.9l-0.2,0
	c-0.2,0-0.5,0.1-0.7,0.1c-0.2,0-1,0-1-0.7v-1.3H116.7L116.7,39.6z M112.9,39.6v3.9h0.4l1.9-3.1l0.2-0.4h0l0,0.5v3h0.4v-3.9h-0.4
	l-1.9,3l-0.2,0.4h0l0-0.5v-3H112.9L112.9,39.6z M108.9,39.6v3.9h0.4v-1.9h2.1v1.9h0.4v-3.9h-0.4v1.7h-2.1v-1.7H108.9L108.9,39.6z
	 M105,39.6l1.4,1.9l-1.5,2.1h0.4l1-1.4l0.2-0.4h0l0.2,0.4l1,1.4h0.5l-1.5-2.1l1.3-1.9h-0.4l-1,1.4l-0.1,0.2h0l-0.1-0.2l-1-1.4H105
	L105,39.6z M102.5,39.6v3.9h2v-0.3h-1.7v-1.6h1.5v-0.3h-1.5v-1.4h1.5v-0.3H102.5L102.5,39.6z M99.1,39.6v0.3h1.2v3.6h0.4v-3.6h1.2
	v-0.3H99.1L99.1,39.6z M95.5,39.6v3.9h0.4l1.9-3.1l0.2-0.4h0l0,0.5v3h0.4v-3.9H98l-1.9,3L95.9,43h0l0-0.5v-3H95.5L95.5,39.6z
	 M92.1,39.6v1.3c0,0.7,0.1,2.3-0.6,2.3c-0.1,0-0.2,0-0.2,0l0,0.3c0.1,0,0.2,0,0.3,0c0.9,0,0.9-1.3,0.9-2.6v-1H94v3.6h0.4v-3.9H92.1
	L92.1,39.6z M87.7,41.6c0-1.2,0.7-1.7,1.4-1.7c0.7,0,1.4,0.5,1.4,1.7c0,1.2-0.7,1.7-1.4,1.7C88.4,43.3,87.7,42.8,87.7,41.6
	L87.7,41.6L87.7,41.6z M87.3,41.6c0,1.3,0.8,2,1.8,2c1,0,1.8-0.7,1.8-2c0-1.1-0.6-2-1.8-2C87.9,39.5,87.3,40.5,87.3,41.6L87.3,41.6
	L87.3,41.6z M83.6,39.6v3.9H84v-3.6H86v3.6h0.4v-3.9H83.6L83.6,39.6z M79.1,38.7l-0.2,0.2c0.2,0.3,0.5,0.4,0.8,0.4
	c0.3,0,0.6-0.2,0.8-0.4l-0.2-0.2c-0.2,0.3-0.5,0.3-0.7,0.3C79.6,39,79.3,38.9,79.1,38.7L79.1,38.7L79.1,38.7z M78.3,39.6v3.9h0.4
	l1.9-3.1l0.2-0.4h0l0,0.5v3h0.4v-3.9h-0.4l-1.9,3L78.6,43h0l0-0.5v-3H78.3L78.3,39.6z M74.2,39.6v3.9h0.4l1.9-3.1l0.2-0.4h0l0,0.5v3
	h0.4v-3.9h-0.4l-1.9,3L74.6,43h0l0-0.5v-3H74.2L74.2,39.6z M70.6,39.6v3.9H71v-1.8v-0.2l0,0l0.1,0.1l1.9,1.9h0.5l-2.1-2.1l1.9-1.9
	h-0.5l-1.7,1.7L71,41.4h0v-0.2v-1.6H70.6L70.6,39.6z M69.9,43.1c-0.3,0.1-0.7,0.2-1,0.2c-0.9,0-1.6-0.6-1.6-1.6c0-1,0.6-1.8,1.6-1.8
	c0.1,0,0.5,0,0.9,0.2l0-0.3c-0.3-0.1-0.6-0.2-0.9-0.2c-1.4,0-2,1-2,2.1c0,1,0.6,2,2,2c0.4,0,0.8-0.1,1-0.2L69.9,43.1L69.9,43.1z
	 M64,43.2l-0.2-0.5l-1.3-3.1h-0.6v3.9h0.4v-3.1l0-0.5h0l0.2,0.5l1.3,3.1h0.4l1.3-3.1l0.2-0.5h0l0,0.5v3.1h0.4v-3.9h-0.6l-1.3,3.1
	L64,43.2L64,43.2L64,43.2z M57.9,41.6c0-1.2,0.7-1.7,1.4-1.7c0.7,0,1.4,0.5,1.4,1.7c0,1.2-0.7,1.7-1.4,1.7
	C58.6,43.3,57.9,42.8,57.9,41.6L57.9,41.6L57.9,41.6z M57.5,41.6c0,1.3,0.8,2,1.8,2c1,0,1.8-0.7,1.8-2c0-1.1-0.6-2-1.8-2
	C58.1,39.5,57.5,40.5,57.5,41.6L57.5,41.6z M54.3,39.6v0.3h1.2v3.6h0.4v-3.6h1.2v-0.3H54.3z"/>
<text transform="matrix(1 0 0 1 54.4735 18.8064)"><tspan x="0" y="0" class="st1 st2 st3">Полигон инженерного </tspan><tspan x="0" y="10.1" class="st1 st2 st3">предпринимательства</tspan></text>
<path class="st4" d="M33.2,0H10.3v10.6H0v12.7h14.4c0,4.1,3.3,7.4,7.4,7.4c4.1,0,7.4-3.3,7.4-7.4h14.4V10.6H33.2V0L33.2,0z
	 M14.5,10.6V4h14.6v6.6H14.5z"/>
<path class="st5" d="M0,26.9h10.5c0.2,0.8,0.6,1.5,0.9,2.2L10,30.5c-0.3,0.3,0,0.6,0.2,0.9l3.5,3.5c0.3,0.3,0.6,0.4,0.8,0.1l1.5-1.5
	c0.8,0.5,1.7,0.8,2.6,1.1v2.1c0,0.4,0.3,0.7,0.7,0.7h5.1c0.4,0,0.7-0.3,0.7-0.7v-2.1c0.9-0.3,1.8-0.6,2.6-1.1l1.5,1.5
	c0.3,0.3,0.7,0.3,0.9,0l3.6-3.6c0.3-0.3,0.3-0.7,0-0.9l-1.5-1.5c0.4-0.7,0.7-1.4,0.9-2.2h10.4v16.7H0V26.9z"/>
</svg>
