<?xml version="1.0" encoding="utf-8"?>
<!-- Generator: Adobe Illustrator 19.2.1, SVG Export Plug-In . SVG Version: 6.00 Build 0)  -->
<svg version="1.1" id="Слой_1" xmlns="http://www.w3.org/2000/svg" xmlns:xlink="http://www.w3.org/1999/xlink" x="0px" y="0px"
	 viewBox="0 0 183.2 42.6" style="enable-background:new 0 0 183.2 42.6;" xml:space="preserve">
<style type="text/css">
	.st0{fill-rule:evenodd;clip-rule:evenodd;fill:#363636;}
</style>
<path class="st0" d="M54,13.1V5.4h2.8V4.3H50v1.1h2.8v7.7H54L54,13.1z M59.5,8.7c0-1.8,1-3.5,2.9-3.5s2.9,1.7,2.9,3.5
	c0,1.8-0.9,3.5-2.9,3.5C60.4,12.2,59.5,10.5,59.5,8.7L59.5,8.7z M58.1,8.7c0,2.7,1.6,4.6,4.3,4.6c2.7,0,4.3-1.9,4.3-4.6
	c0-2.6-1.6-4.6-4.3-4.6C59.7,4.1,58.1,6.1,58.1,8.7L58.1,8.7z M70.3,13.1V5.5h0l2.9,7.7h1.2l2.9-7.7h0v7.7h1.3V4.3h-2.1l-2.7,7.4
	l-2.8-7.4H69v8.9H70.3L70.3,13.1z M87.8,4.5c-0.6-0.3-1.3-0.4-2-0.4c-2.7,0-4.7,1.8-4.7,4.5c0,2.8,1.9,4.6,4.7,4.6
	c0.5,0,1.3,0,2-0.3l-0.1-1.2c-0.4,0.3-1.3,0.4-1.9,0.4c-1.8,0-3.3-1.4-3.3-3.5c0-2,1.4-3.5,3.4-3.5c0.7,0,1.3,0.2,1.8,0.5L87.8,4.5
	L87.8,4.5z M91.2,13.1V8.8l3.9,4.3H97l-4.5-4.7l4.2-4.2H95l-3.8,3.9V4.3h-1.3v8.9H91.2L91.2,13.1z M100.2,13.1l4.2-6.9h0v6.9h1.3
	V4.3h-1.3l-4.2,6.9h0V4.3h-1.3v8.9H100.2L100.2,13.1z M109.9,13.1l4.2-6.9h0v6.9h1.3V4.3h-1.3l-4.2,6.9h0V4.3h-1.3v8.9H109.9
	L109.9,13.1z M113.6,2.2c-0.2,0.3-1.1,0.5-1.6,0.5c-0.5,0-1.3-0.2-1.5-0.5l-0.2,1.1c0.3,0.2,1.3,0.3,1.7,0.3c0.5,0,1.5-0.1,1.8-0.3
	L113.6,2.2L113.6,2.2z M56.6,27.8h1.3v-8.9h-6.8v8.9h1.3v-7.7h4.2V27.8L56.6,27.8z M61.6,23.4c0-1.8,1-3.5,2.9-3.5
	c2,0,2.9,1.7,2.9,3.5c0,1.8-0.9,3.5-2.9,3.5S61.6,25.1,61.6,23.4L61.6,23.4z M60.2,23.4c0,2.7,1.6,4.6,4.3,4.6
	c2.7,0,4.3-1.9,4.3-4.6c0-2.6-1.6-4.6-4.3-4.6C61.8,18.8,60.2,20.8,60.2,23.4L60.2,23.4z M71.3,28c2.3,0,2.4-3,2.4-5.3v-2.6h3v7.7
	H78v-8.9h-5.5v3.2c0,1.9-0.1,4.7-1.4,4.7c-0.2,0-0.5,0-0.8-0.1v1.1C70.6,27.9,70.9,28,71.3,28L71.3,28z M82.2,27.8l4.2-6.9h0v6.9
	h1.3v-8.9h-1.3l-4.2,6.9h0v-6.9h-1.3v8.9H82.2L82.2,27.8z M93.6,27.8v-7.7h2.8v-1.1h-6.8v1.1h2.8v7.7H93.6L93.6,27.8z M103.2,27.8
	v-1.1h-3.7v-2.9h3.4v-1.1h-3.4v-2.6h3.7v-1.1h-5v8.9H103.2L103.2,27.8z M106.2,27.8l2.5-3.8l2.6,3.8h1.6l-3.3-4.6l3-4.2h-1.4
	l-2.3,3.4l-2.4-3.4H105l3,4.3l-3.3,4.6H106.2L106.2,27.8z M116.1,27.8v-4h4.2v4h1.3v-8.9h-1.3v3.7h-4.2v-3.7h-1.3v8.9H116.1
	L116.1,27.8z M125.8,27.8L130,21h0v6.9h1.3v-8.9H130l-4.2,6.9h0v-6.9h-1.3v8.9H125.8L125.8,27.8z M137.7,23
	c-0.2,0.1-0.4,0.1-0.7,0.1c-1.6,0-2.2-1.1-2.2-2.7v-1.4h-1.3v1.6c0,2.5,1.3,3.7,3.4,3.7c0.2,0,0.5,0,0.7-0.1v3.6h1.3v-8.9h-1.3V23
	L137.7,23z M146.8,27.8v-1.1h-3.7v-2.9h3.4v-1.1h-3.4v-2.6h3.7v-1.1h-5v8.9H146.8L146.8,27.8z M155.6,19.2c-0.6-0.3-1.3-0.4-2-0.4
	c-2.7,0-4.7,1.8-4.7,4.5c0,2.8,1.9,4.6,4.7,4.6c0.5,0,1.3,0,2-0.3l-0.1-1.2c-0.4,0.3-1.3,0.4-1.9,0.4c-1.8,0-3.3-1.4-3.3-3.5
	c0-2,1.4-3.5,3.4-3.5c0.7,0,1.3,0.2,1.8,0.5L155.6,19.2L155.6,19.2z M159,27.8v-4.3l3.9,4.3h1.9l-4.5-4.7l4.2-4.2h-1.7l-3.8,3.9
	v-3.9h-1.3v8.9H159L159,27.8z M168,27.8l4.2-6.9h0v6.9h1.3v-8.9h-1.3l-4.2,6.9h0v-6.9h-1.3v8.9H168L168,27.8z M177.7,27.8l4.2-6.9h0
	v6.9h1.3v-8.9h-1.3l-4.2,6.9h0v-6.9h-1.3v8.9H177.7L177.7,27.8z M181.4,16.9c-0.2,0.3-1.1,0.5-1.6,0.5c-0.5,0-1.3-0.2-1.5-0.5
	l-0.2,1.1c0.3,0.2,1.3,0.3,1.7,0.3c0.5,0,1.5-0.1,1.8-0.3L181.4,16.9L181.4,16.9z M56.8,33.6l-2.7,5.2h0l-2.6-5.2H50l3.4,6.5
	l-0.1,0.3c-0.2,0.5-0.5,1-1.2,1c-0.2,0-0.4-0.1-0.6-0.1l-0.1,1.2c0.2,0,0.5,0.1,0.9,0.1c1.4,0,1.9-1.2,2.3-1.9l3.7-7H56.8L56.8,33.6
	z M61.3,42.5v-4h4.2v4h1.3v-8.9h-1.3v3.7h-4.2v-3.7h-1.3v8.9H61.3L61.3,42.5z M71.1,42.5l4.2-6.9h0v6.9h1.3v-8.9h-1.3l-4.2,6.9h0
	v-6.9h-1.3v8.9H71.1L71.1,42.5z M81.7,42.5c1.8,0,3.4-0.5,3.4-2.4c0-1.2-0.9-2-2.1-2.1v0c1.1-0.3,1.8-0.9,1.8-2.1
	c0-1.6-1.3-2.2-3.1-2.2h-2.4v8.9H81.7L81.7,42.5z M81.4,38.5c1.1,0,2.3,0.2,2.3,1.6c0,1.2-1,1.4-2.2,1.4h-1v-3H81.4L81.4,38.5z
	 M81.9,34.7c0.7,0,1.6,0.3,1.6,1.3c0,1.3-1.1,1.4-2.3,1.4h-0.7v-2.7H81.9L81.9,34.7z M92.7,42.5v-1.1h-3.7v-2.9h3.4v-1.1h-3.4v-2.6
	h3.7v-1.1h-5v8.9H92.7L92.7,42.5z M97.6,34.7c0.8,0,2,0.4,2,1.5c0,1.2-1,1.6-1.8,1.6h-1.3v-3.1H97.6L97.6,34.7z M96.5,42.5v-3.5h1.2
	c1.6,0,3.1-0.7,3.1-2.7c0-2-1.5-2.7-3.3-2.7h-2.3v8.9H96.5L96.5,42.5z M109.1,33.9c-0.6-0.3-1.3-0.4-2-0.4c-2.7,0-4.7,1.8-4.7,4.5
	c0,2.8,1.9,4.6,4.7,4.6c0.5,0,1.3,0,2-0.3l-0.1-1.2c-0.4,0.3-1.3,0.4-1.9,0.4c-1.8,0-3.3-1.4-3.3-3.5c0-2,1.4-3.5,3.4-3.5
	c0.7,0,1.3,0.2,1.8,0.5L109.1,33.9L109.1,33.9z M112.6,42.5l4.2-6.9h0v6.9h1.3v-8.9h-1.3l-4.2,6.9h0v-6.9h-1.3v8.9H112.6L112.6,42.5
	z M124,42.5v-7.7h2.8v-1.1h-6.8v1.1h2.8v7.7H124L124,42.5z M133.6,42.5v-1.1h-3.7v-2.9h3.4v-1.1h-3.4v-2.6h3.7v-1.1h-5v8.9H133.6
	L133.6,42.5z M139.2,42.5v-7.7h2.8v-1.1h-6.8v1.1h2.8v7.7H139.2z"/>
<path class="st0" d="M0,15h12.5v27.5H0V15L0,15z M15,30h12.5v12.5H15V30L15,30z M30,15h12.5v27.5H30V15L30,15z M41.3,1.3v10h-10v-10
	H41.3L41.3,1.3z M26.3,1.3v25h-10v-25H26.3L26.3,1.3z M11.3,1.3v10h-10v-10H11.3L11.3,1.3z M30,0v12.5h12.5V0H30L30,0z M15,0v27.5
	h12.5V0H15L15,0z M0,0v12.5h12.5V0H0z"/>
</svg>
