<?xml version="1.0" encoding="utf-8"?>
<!-- Generator: Adobe Illustrator 19.2.1, SVG Export Plug-In . SVG Version: 6.00 Build 0)  -->
<svg version="1.1" id="Слой_1" xmlns="http://www.w3.org/2000/svg" xmlns:xlink="http://www.w3.org/1999/xlink" x="0px" y="0px"
	 viewBox="0 0 251.3 62.8" style="enable-background:new 0 0 251.3 62.8;" xml:space="preserve">
<style type="text/css">
	.st0{fill-rule:evenodd;clip-rule:evenodd;fill:#0D0F0F;}
	.st1{fill:#0D0F0F;}
	.st2{fill-rule:evenodd;clip-rule:evenodd;fill:#74B65F;}
</style>
<g>
	<path class="st0" d="M247.2,56.9v0.5h1.7v5.3h0.5v-5.3h1.7v-0.5H247.2L247.2,56.9z M243.7,56.9v5.8h3v-0.5h-2.4V60h2.2v-0.5h-2.2
		v-2.1h2.3v-0.5H243.7L243.7,56.9z M238.7,56.9v0.5h1.7v5.3h0.5v-5.3h1.7v-0.5H238.7L238.7,56.9z M233.5,56.9v5.8h0.6l2.8-4.5
		l0.3-0.5h0l0,0.7v4.3h0.5v-5.8h-0.6l-2.8,4.5l-0.3,0.6h0l0-0.7v-4.3H233.5L233.5,56.9z M232.4,62.1c-0.4,0.2-1,0.3-1.5,0.3
		c-1.2,0-2.3-0.9-2.3-2.4c0-1.5,0.9-2.6,2.3-2.6c0.2,0,0.7,0,1.3,0.2l0-0.5c-0.4-0.2-0.8-0.2-1.3-0.2c-2.1,0-3,1.5-3,3
		c0,1.5,0.9,2.9,2.9,2.9c0.6,0,1.1-0.1,1.4-0.2V62.1L232.4,62.1z M224.6,57.4h0.8c0.1,0,1.3,0,1.3,1.2c0,1.1-0.9,1.2-1.3,1.2h-0.8
		V57.4L224.6,57.4z M224.1,56.9v5.8h0.5v-2.4h1c1.1,0,1.7-0.7,1.7-1.7c0-1-0.7-1.7-1.7-1.7L224.1,56.9L224.1,56.9z M219.9,56.9v5.8
		h3v-0.5h-2.4V60h2.2v-0.5h-2.2v-2.1h2.3v-0.5H219.9L219.9,56.9z M215.7,60h0.9c0.8,0,1.3,0.4,1.3,1.1c0,1.1-0.9,1.1-1.4,1.1l-0.9,0
		V60L215.7,60z M215.7,57.4h0.9c0.6,0,1.2,0.3,1.2,1c0,0.6-0.4,1.1-1.2,1.1h-0.9V57.4L215.7,57.4z M215.1,56.9v5.8h1.5
		c0.3,0,1.9,0,1.9-1.6c0-0.7-0.5-1.2-1.2-1.4v0c0.8-0.2,1-0.8,1-1.3c0-0.8-0.5-1.5-1.7-1.5L215.1,56.9L215.1,56.9z M209.2,56.9v5.8
		h0.6l2.8-4.5l0.3-0.5h0l0,0.7v4.3h0.5v-5.8h-0.6l-2.8,4.5l-0.3,0.6h0l0-0.7v-4.3H209.2L209.2,56.9z M203.5,56.9v5.8h0.5V60h3v2.8
		h0.5v-5.8H207v2.6h-3v-2.6H203.5L203.5,56.9z M197.8,56.9l2.1,4.4l-0.1,0.3c-0.2,0.5-0.3,0.7-0.6,0.7c-0.2,0-0.3,0-0.5-0.1l0,0.5
		c0.2,0.1,0.4,0.1,0.6,0.1c0.7,0,0.9-0.5,1.1-1l2-4.9h-0.6l-1.3,3.1l-0.3,0.7h0l-0.3-0.7l-1.5-3.1H197.8L197.8,56.9z M191.7,55.6
		l-0.2,0.3c0.3,0.4,0.7,0.6,1.2,0.6c0.5,0,0.9-0.2,1.2-0.6l-0.2-0.3c-0.4,0.4-0.7,0.5-1,0.5C192.5,56.1,192.1,56,191.7,55.6
		L191.7,55.6L191.7,55.6z M190.6,56.9v5.8h0.6l2.8-4.5l0.3-0.5h0l0,0.7v4.3h0.5v-5.8h-0.6l-2.8,4.5l-0.3,0.6h0l0-0.7v-4.3H190.6
		L190.6,56.9z M184.7,56.9v5.8h0.6l2.8-4.5l0.3-0.5h0l0,0.7v4.3h0.5v-5.8h-0.6l-2.8,4.5l-0.3,0.6h0l0-0.7v-4.3H184.7L184.7,56.9z
		 M179.4,56.9v5.8h0.5v-2.6v-0.3l0,0l0.1,0.2l2.8,2.8h0.8l-3.1-3l2.8-2.7h-0.7l-2.5,2.5l-0.2,0.2h0v-0.3v-2.3H179.4L179.4,56.9z
		 M178.4,62.1c-0.4,0.2-1,0.3-1.5,0.3c-1.2,0-2.3-0.9-2.3-2.4c0-1.5,0.9-2.6,2.3-2.6c0.2,0,0.7,0,1.3,0.2l0-0.5
		c-0.4-0.2-0.8-0.2-1.3-0.2c-2.1,0-3,1.5-3,3c0,1.5,0.9,2.9,2.9,2.9c0.6,0,1.1-0.1,1.4-0.2V62.1L178.4,62.1z M170.2,56.9v5.8h3v-0.5
		h-2.4V60h2.2v-0.5h-2.2v-2.1h2.3v-0.5H170.2L170.2,56.9z M164.6,56.9v1.9c0,0.5,0.1,1.5,1.9,1.5c0.4,0,0.8,0,1.2-0.1l0.3,0v2.5h0.5
		v-5.8H168v2.8l-0.3,0c-0.4,0.1-0.7,0.1-1.1,0.1c-0.3,0-1.4,0-1.4-1v-1.9H164.6L164.6,56.9z M159.1,56.9v5.8h0.6l2.8-4.5l0.3-0.5h0
		l0,0.7v4.3h0.5v-5.8h-0.6l-2.8,4.5l-0.3,0.6h0l0-0.7v-4.3H159.1L159.1,56.9z M153.3,56.9v5.8h0.5V60h3v2.8h0.5v-5.8h-0.5v2.6h-3
		v-2.6H153.3L153.3,56.9z M147.5,56.9l2,2.7l-2.1,3.1h0.7l1.5-2.1l0.3-0.6h0l0.3,0.6l1.5,2.1h0.7l-2.2-3.1l2-2.7h-0.6L150,59
		l-0.2,0.3h0l-0.2-0.3l-1.5-2.1H147.5L147.5,56.9z M143.8,56.9v5.8h3v-0.5h-2.4V60h2.2v-0.5h-2.2v-2.1h2.3v-0.5H143.8L143.8,56.9z
		 M138.9,56.9v0.5h1.7v5.3h0.5v-5.3h1.7v-0.5H138.9L138.9,56.9z M133.6,56.9v5.8h0.6l2.8-4.5l0.3-0.5h0l0,0.7v4.3h0.5v-5.8h-0.6
		l-2.8,4.5l-0.3,0.6h0l0-0.7v-4.3H133.6L133.6,56.9z M128.7,56.9v2c0,1,0.1,3.4-0.9,3.4c-0.1,0-0.2,0-0.3,0l0,0.5
		c0.2,0,0.3,0.1,0.4,0.1c1.4,0,1.4-1.9,1.4-3.8v-1.5h2.2v5.3h0.5v-5.8H128.7L128.7,56.9z M122.2,59.8c0-1.7,1-2.5,2-2.5
		c1,0,2,0.8,2,2.5c0,1.7-1,2.5-2,2.5C123.2,62.3,122.2,61.6,122.2,59.8L122.2,59.8L122.2,59.8z M121.6,59.8c0,1.9,1.1,2.9,2.6,2.9
		c1.5,0,2.6-1,2.6-2.9c0-1.6-0.8-3-2.6-3C122.5,56.9,121.6,58.3,121.6,59.8L121.6,59.8L121.6,59.8z M116.2,56.9v5.8h0.5v-5.3h3v5.3
		h0.5v-5.8H116.2L116.2,56.9z M109.6,55.6l-0.2,0.3c0.3,0.4,0.7,0.6,1.2,0.6c0.5,0,0.9-0.2,1.2-0.6l-0.2-0.3c-0.4,0.4-0.7,0.5-1,0.5
		C110.3,56.1,109.9,56,109.6,55.6L109.6,55.6L109.6,55.6z M108.4,56.9v5.8h0.6l2.8-4.5l0.3-0.5h0l0,0.7v4.3h0.5v-5.8H112l-2.8,4.5
		l-0.3,0.6h0l0-0.7v-4.3H108.4L108.4,56.9z M102.5,56.9v5.8h0.6l2.8-4.5l0.3-0.5h0l0,0.7v4.3h0.5v-5.8h-0.6l-2.8,4.5L103,62h0l0-0.7
		v-4.3H102.5L102.5,56.9z M97.3,56.9v5.8h0.5v-2.6v-0.3l0,0L98,60l2.8,2.8h0.8l-3.1-3l2.8-2.7h-0.7L98,59.4l-0.2,0.2h0v-0.3v-2.3
		H97.3L97.3,56.9z M96.2,62.1c-0.4,0.2-1,0.3-1.5,0.3c-1.2,0-2.3-0.9-2.3-2.4c0-1.5,0.9-2.6,2.3-2.6c0.2,0,0.7,0,1.3,0.2l0-0.5
		c-0.4-0.2-0.8-0.2-1.3-0.2c-2.1,0-3,1.5-3,3c0,1.5,0.9,2.9,2.9,2.9c0.6,0,1.1-0.1,1.4-0.2L96.2,62.1L96.2,62.1z M87.5,62.2
		l-0.2-0.8l-1.9-4.5h-0.9v5.8H85v-4.5l0-0.8h0l0.3,0.8l1.9,4.5h0.6l1.9-4.5l0.3-0.8h0l0,0.8v4.5h0.5v-5.8h-0.9l-1.9,4.5L87.5,62.2
		L87.5,62.2L87.5,62.2z M78.6,59.8c0-1.7,1-2.5,2-2.5c1,0,2,0.8,2,2.5c0,1.7-1,2.5-2,2.5C79.6,62.3,78.6,61.6,78.6,59.8L78.6,59.8
		L78.6,59.8z M78,59.8c0,1.9,1.1,2.9,2.6,2.9c1.5,0,2.6-1,2.6-2.9c0-1.6-0.9-3-2.6-3C78.8,56.9,78,58.3,78,59.8L78,59.8z M73.4,56.9
		v0.5h1.7v5.3h0.5v-5.3h1.7v-0.5H73.4z"/>
</g>
<g>
	<path class="st1" d="M83.9,26.2c0,0.1,0,0.2-0.1,0.2c0,0-0.1,0.1-0.3,0.1h-1.7c-0.2,0-0.3-0.1-0.3-0.3v-8.7h-4.3v8.7
		c0,0.1,0,0.2-0.1,0.2c0,0-0.1,0.1-0.3,0.1h-1.7c-0.2,0-0.3-0.1-0.3-0.3v-9.7c0-0.4,0.1-0.6,0.2-0.8c0.2-0.2,0.4-0.3,0.8-0.3h7.1
		c0.4,0,0.6,0.1,0.8,0.3c0.1,0.2,0.2,0.4,0.2,0.8V26.2z"/>
	<path class="st1" d="M93.8,22.3c0,1.4-0.3,2.5-1,3.2c-0.7,0.8-1.7,1.1-3,1.1c-1.4,0-2.4-0.4-3-1.1c-0.6-0.8-1-1.8-1-3.2
		c0-0.7,0.1-1.3,0.3-1.8c0.2-0.5,0.4-1,0.8-1.4c0.3-0.4,0.8-0.7,1.3-0.9s1.1-0.3,1.7-0.3c1.3,0,2.3,0.4,3,1.2S93.8,21,93.8,22.3z
		 M91.4,22.4c0-0.4,0-0.7-0.1-1c-0.1-0.3-0.1-0.6-0.3-0.8c-0.1-0.2-0.3-0.4-0.5-0.5c-0.2-0.1-0.5-0.2-0.7-0.2c-0.6,0-1,0.2-1.2,0.6
		s-0.4,1-0.4,1.7c0,0.8,0.1,1.4,0.4,1.8c0.2,0.4,0.7,0.6,1.2,0.6c0.3,0,0.5-0.1,0.8-0.2c0.2-0.1,0.4-0.3,0.5-0.5
		c0.1-0.2,0.2-0.5,0.3-0.8C91.4,23,91.4,22.7,91.4,22.4z"/>
	<path class="st1" d="M102,18.2c0.4,0,0.6,0.1,0.8,0.2c0.1,0.2,0.2,0.4,0.2,0.7v7.1c0,0.1,0,0.2-0.1,0.2c0,0-0.1,0.1-0.3,0.1H101
		c-0.1,0-0.2,0-0.3-0.1c0,0-0.1-0.1-0.1-0.2v-6.1h-2l0,0.8c-0.1,0.9-0.1,1.7-0.2,2.4c-0.1,0.7-0.2,1.2-0.4,1.7
		c-0.2,0.5-0.5,0.9-0.9,1.2s-0.9,0.5-1.5,0.7c-0.1,0.1-0.3,0.1-0.3,0c-0.1,0-0.1-0.1-0.2-0.2l-0.4-1.1c-0.1-0.1-0.1-0.2-0.1-0.3
		c0-0.1,0.1-0.1,0.2-0.2c0.3-0.1,0.5-0.3,0.7-0.4c0.2-0.2,0.3-0.4,0.4-0.7c0.1-0.3,0.2-0.7,0.3-1.2s0.1-1.1,0.2-1.9l0.1-1.7
		c0-0.3,0.1-0.6,0.2-0.7c0.1-0.1,0.4-0.2,0.7-0.2H102z"/>
	<path class="st1" d="M105.1,18.5c0-0.2,0.1-0.3,0.3-0.3h1.7c0.1,0,0.2,0,0.2,0c0,0,0.1,0.1,0.1,0.2v4.9h0.1
		c0.2-0.3,0.4-0.6,0.5-0.8c0.1-0.2,0.2-0.4,0.3-0.5c0.1-0.1,0.2-0.3,0.2-0.4s0.1-0.2,0.2-0.3c0.2-0.3,0.4-0.7,0.7-1.1
		c0.3-0.4,0.6-0.9,0.9-1.5c0.1-0.1,0.1-0.2,0.2-0.3c0.1-0.1,0.1-0.1,0.2-0.2c0.1,0,0.1-0.1,0.2-0.1c0.1,0,0.2,0,0.3,0h0.8
		c0.3,0,0.5,0.1,0.7,0.2c0.1,0.1,0.2,0.4,0.2,0.7v7.2c0,0.1,0,0.2-0.1,0.2c0,0-0.1,0-0.2,0h-1.7c-0.1,0-0.2,0-0.2,0
		c0,0-0.1-0.1-0.1-0.2v-4.8h-0.1c-0.2,0.4-0.5,0.7-0.7,1.1s-0.4,0.7-0.7,1.1c-0.2,0.4-0.5,0.8-0.7,1.2c-0.2,0.4-0.5,0.8-0.7,1.2
		c-0.1,0.2-0.3,0.4-0.4,0.4s-0.3,0.1-0.6,0.1h-0.7c-0.4,0-0.6-0.1-0.7-0.2c-0.1-0.1-0.2-0.4-0.2-0.7V18.5z"/>
	<path class="st1" d="M117.3,26.2c0,0.1,0,0.2-0.1,0.3s-0.1,0.1-0.3,0.1h-1.6c-0.2,0-0.4-0.1-0.4-0.3v-5.6c0-0.3,0-0.6,0.1-0.9
		s0.2-0.6,0.4-0.8c0.2-0.2,0.4-0.4,0.8-0.5c0.3-0.1,0.8-0.2,1.3-0.2h3.7c0.1,0,0.2,0,0.2,0.1c0,0,0.1,0.1,0.1,0.3v1.1
		c0,0.1,0,0.2-0.1,0.3c0,0.1-0.1,0.1-0.2,0.1h-3c-0.4,0-0.6,0.1-0.7,0.2c-0.1,0.1-0.2,0.4-0.2,0.6V26.2z"/>
	<path class="st1" d="M130.4,22.3c0,1.4-0.3,2.5-1,3.2c-0.7,0.8-1.7,1.1-3,1.1c-1.4,0-2.4-0.4-3-1.1c-0.6-0.8-1-1.8-1-3.2
		c0-0.7,0.1-1.3,0.3-1.8c0.2-0.5,0.4-1,0.8-1.4c0.3-0.4,0.8-0.7,1.3-0.9s1.1-0.3,1.7-0.3c1.3,0,2.3,0.4,3,1.2S130.4,21,130.4,22.3z
		 M128,22.4c0-0.4,0-0.7-0.1-1c-0.1-0.3-0.1-0.6-0.3-0.8c-0.1-0.2-0.3-0.4-0.5-0.5c-0.2-0.1-0.5-0.2-0.7-0.2c-0.6,0-1,0.2-1.2,0.6
		s-0.4,1-0.4,1.7c0,0.8,0.1,1.4,0.4,1.8c0.2,0.4,0.7,0.6,1.2,0.6c0.3,0,0.5-0.1,0.8-0.2c0.2-0.1,0.4-0.3,0.5-0.5
		c0.1-0.2,0.2-0.5,0.3-0.8C128,23,128,22.7,128,22.4z"/>
	<path class="st1" d="M134.4,26.5c0,0-0.1,0.1-0.3,0.1h-1.6c-0.2,0-0.3-0.1-0.3-0.3v-7.7c0-0.2,0.1-0.3,0.3-0.3h1.6
		c0.1,0,0.2,0,0.3,0.1c0,0,0.1,0.1,0.1,0.2v2.7h3v-2.7c0-0.2,0.1-0.3,0.4-0.3h1.6c0.1,0,0.2,0,0.3,0.1c0,0,0.1,0.1,0.1,0.2v7.7
		c0,0.1,0,0.2-0.1,0.3c0,0-0.1,0.1-0.3,0.1h-1.6c-0.2,0-0.4-0.1-0.4-0.3V23h-3v3.2C134.5,26.4,134.5,26.4,134.4,26.5z"/>
	<path class="st1" d="M146.4,18.5c0-0.2,0.1-0.3,0.3-0.3h1.7c0.1,0,0.2,0,0.2,0c0,0,0.1,0.1,0.1,0.2v4.9h0.1
		c0.2-0.3,0.4-0.6,0.5-0.8c0.1-0.2,0.2-0.4,0.3-0.5c0.1-0.1,0.2-0.3,0.2-0.4s0.1-0.2,0.2-0.3c0.2-0.3,0.4-0.7,0.7-1.1
		c0.3-0.4,0.6-0.9,0.9-1.5c0.1-0.1,0.1-0.2,0.2-0.3c0.1-0.1,0.1-0.1,0.2-0.2c0.1,0,0.1-0.1,0.2-0.1c0.1,0,0.2,0,0.3,0h0.8
		c0.3,0,0.5,0.1,0.7,0.2c0.1,0.1,0.2,0.4,0.2,0.7v7.2c0,0.1,0,0.2-0.1,0.2c0,0-0.1,0-0.2,0h-1.7c-0.1,0-0.2,0-0.2,0
		c0,0-0.1-0.1-0.1-0.2v-4.8h-0.1c-0.2,0.4-0.5,0.7-0.7,1.1s-0.4,0.7-0.7,1.1c-0.2,0.4-0.5,0.8-0.7,1.2c-0.2,0.4-0.5,0.8-0.7,1.2
		c-0.1,0.2-0.3,0.4-0.4,0.4s-0.3,0.1-0.6,0.1h-0.7c-0.4,0-0.6-0.1-0.7-0.2c-0.1-0.1-0.2-0.4-0.2-0.7V18.5z"/>
	<path class="st1" d="M158.5,26.5c0,0-0.1,0.1-0.3,0.1h-1.6c-0.2,0-0.3-0.1-0.3-0.3v-7.7c0-0.2,0.1-0.3,0.3-0.3h1.6
		c0.1,0,0.2,0,0.3,0.1c0,0,0.1,0.1,0.1,0.2v2.7h3v-2.7c0-0.2,0.1-0.3,0.4-0.3h1.6c0.1,0,0.2,0,0.3,0.1c0,0,0.1,0.1,0.1,0.2v7.7
		c0,0.1,0,0.2-0.1,0.3c0,0-0.1,0.1-0.3,0.1h-1.6c-0.2,0-0.4-0.1-0.4-0.3V23h-3v3.2C158.6,26.4,158.6,26.4,158.5,26.5z"/>
	<path class="st1" d="M170.3,22.9h-0.6c-0.3,0-0.6,0.1-0.8,0.2c-0.2,0.1-0.4,0.4-0.5,0.7l-0.7,2.4c0,0.1-0.1,0.1-0.1,0.2
		c-0.1,0-0.1,0-0.2,0h-1.8c-0.1,0-0.2,0-0.2-0.1c0-0.1,0-0.1,0-0.2l0.8-2.7c0.1-0.2,0.1-0.3,0.2-0.5s0.1-0.3,0.2-0.4
		c0.1-0.1,0.2-0.2,0.4-0.3c0.1-0.1,0.3-0.2,0.6-0.2l0,0c-0.3-0.1-0.6-0.3-0.7-0.6c-0.2-0.3-0.3-0.6-0.4-0.9l-0.6-2.1
		c0-0.1,0-0.1,0-0.2c0-0.1,0.1-0.1,0.2-0.1h1.8c0.1,0,0.1,0,0.2,0c0,0,0.1,0.1,0.1,0.2l0.5,1.7c0.1,0.4,0.3,0.7,0.6,0.9
		c0.2,0.1,0.5,0.2,0.8,0.2h0.5v-2.8c0-0.1,0-0.2,0.1-0.2c0,0,0.1,0,0.2,0h1.7c0.1,0,0.2,0,0.2,0c0,0,0.1,0.1,0.1,0.2v2.8h0.5
		c0.3,0,0.5-0.1,0.8-0.2c0.2-0.1,0.4-0.4,0.6-0.9l0.5-1.7c0-0.1,0.1-0.2,0.1-0.2c0,0,0.1,0,0.2,0h1.8c0.1,0,0.2,0,0.2,0.1
		c0,0.1,0,0.1,0,0.2l-0.6,2.1c-0.1,0.3-0.2,0.6-0.4,0.9c-0.2,0.3-0.4,0.5-0.7,0.6l0,0c0.2,0.1,0.4,0.1,0.6,0.2
		c0.1,0.1,0.3,0.2,0.4,0.3c0.1,0.1,0.2,0.3,0.2,0.4s0.1,0.3,0.2,0.5l0.8,2.7c0,0.1,0,0.1,0,0.2s-0.1,0.1-0.2,0.1h-1.8
		c0,0-0.1,0-0.2,0c-0.1,0-0.1-0.1-0.1-0.2l-0.7-2.4c-0.1-0.3-0.3-0.6-0.5-0.7c-0.2-0.1-0.5-0.2-0.8-0.2h-0.6v3.3
		c0,0.1,0,0.2-0.1,0.2s-0.1,0-0.2,0h-1.7c-0.1,0-0.2,0-0.2,0c0,0-0.1-0.1-0.1-0.2V22.9z"/>
	<path class="st1" d="M182.6,18c1.2,0,2.2,0.3,2.8,0.9c0.6,0.6,0.9,1.5,0.9,2.7c0,0.6-0.1,0.9-0.3,1.1c-0.2,0.2-0.5,0.3-0.9,0.3
		h-4.1c0,0.3,0.1,0.6,0.2,0.8s0.2,0.4,0.4,0.5c0.2,0.1,0.4,0.2,0.6,0.3c0.2,0.1,0.5,0.1,0.7,0.1c0.3,0,0.6,0,0.9-0.1
		c0.3-0.1,0.6-0.2,0.9-0.3c0.1,0,0.2-0.1,0.3,0c0,0,0.1,0.1,0.1,0.2l0.5,1.1c0,0.1,0.1,0.2,0,0.2c0,0.1-0.1,0.1-0.2,0.2
		c-0.4,0.3-0.8,0.4-1.4,0.5c-0.5,0.1-1,0.2-1.4,0.2c-1.4,0-2.4-0.3-3.1-1s-1-1.8-1-3.3c0-0.7,0.1-1.3,0.3-1.9c0.2-0.5,0.4-1,0.8-1.4
		c0.3-0.4,0.8-0.7,1.2-0.9C181.5,18.1,182,18,182.6,18z M182.7,19.9c-0.4,0-0.8,0.2-1.1,0.5s-0.4,0.7-0.5,1.2h3c0-0.2,0-0.4-0.1-0.7
		c0-0.2-0.1-0.4-0.2-0.5c-0.1-0.1-0.2-0.3-0.4-0.3C183.2,19.9,183,19.9,182.7,19.9z"/>
	<path class="st1" d="M190.3,26.5c0,0-0.1,0.1-0.3,0.1h-1.6c-0.2,0-0.3-0.1-0.3-0.3v-7.7c0-0.2,0.1-0.3,0.3-0.3h1.6
		c0.1,0,0.2,0,0.3,0.1c0,0,0.1,0.1,0.1,0.2v2.7h3v-2.7c0-0.2,0.1-0.3,0.4-0.3h1.6c0.1,0,0.2,0,0.3,0.1c0,0,0.1,0.1,0.1,0.2v7.7
		c0,0.1,0,0.2-0.1,0.3c0,0-0.1,0.1-0.3,0.1h-1.6c-0.2,0-0.4-0.1-0.4-0.3V23h-3v3.2C190.3,26.4,190.3,26.4,190.3,26.5z"/>
	<path class="st1" d="M201.3,18c1.2,0,2.2,0.3,2.8,0.9c0.6,0.6,0.9,1.5,0.9,2.7c0,0.6-0.1,0.9-0.3,1.1c-0.2,0.2-0.5,0.3-0.9,0.3
		h-4.1c0,0.3,0.1,0.6,0.2,0.8s0.2,0.4,0.4,0.5c0.2,0.1,0.4,0.2,0.6,0.3c0.2,0.1,0.5,0.1,0.7,0.1c0.3,0,0.6,0,0.9-0.1
		c0.3-0.1,0.6-0.2,0.9-0.3c0.1,0,0.2-0.1,0.3,0c0,0,0.1,0.1,0.1,0.2l0.5,1.1c0,0.1,0.1,0.2,0,0.2c0,0.1-0.1,0.1-0.2,0.2
		c-0.4,0.3-0.8,0.4-1.4,0.5c-0.5,0.1-1,0.2-1.4,0.2c-1.4,0-2.4-0.3-3.1-1s-1-1.8-1-3.3c0-0.7,0.1-1.3,0.3-1.9c0.2-0.5,0.4-1,0.8-1.4
		c0.3-0.4,0.8-0.7,1.2-0.9C200.1,18.1,200.7,18,201.3,18z M201.3,19.9c-0.4,0-0.8,0.2-1.1,0.5s-0.4,0.7-0.5,1.2h3
		c0-0.2,0-0.4-0.1-0.7c0-0.2-0.1-0.4-0.2-0.5c-0.1-0.1-0.2-0.3-0.4-0.3C201.8,19.9,201.6,19.9,201.3,19.9z"/>
	<path class="st1" d="M209,29.5c0,0.1,0,0.2-0.1,0.2s-0.1,0-0.3,0H207c-0.1,0-0.2,0-0.3,0c-0.1,0-0.1-0.1-0.1-0.2V19.1
		c0-0.1,0-0.2,0.1-0.3c0-0.1,0.1-0.1,0.3-0.2c0.5-0.2,1.1-0.4,1.7-0.5s1.2-0.1,1.8-0.1c0.8,0,1.4,0.1,1.9,0.3
		c0.5,0.2,0.9,0.5,1.2,0.9c0.3,0.4,0.5,0.8,0.7,1.4s0.2,1.1,0.2,1.7c0,0.6-0.1,1.2-0.2,1.7s-0.4,1-0.7,1.4c-0.3,0.4-0.7,0.7-1.2,0.9
		c-0.5,0.2-1,0.3-1.7,0.3c-0.3,0-0.6,0-0.9,0c-0.3,0-0.6-0.1-0.9-0.2V29.5z M212.1,22.3c0-0.4,0-0.8-0.1-1.1s-0.2-0.5-0.4-0.7
		c-0.2-0.2-0.4-0.3-0.6-0.4s-0.5-0.1-0.8-0.1c-0.1,0-0.3,0-0.6,0s-0.4,0.1-0.6,0.1v4.3c0.3,0.1,0.5,0.1,0.7,0.1c0.2,0,0.4,0,0.6,0
		c0.5,0,1-0.2,1.3-0.5C211.9,23.8,212.1,23.2,212.1,22.3z"/>
	<path class="st1" d="M218.5,26.5c0,0-0.1,0.1-0.3,0.1h-1.6c-0.2,0-0.3-0.1-0.3-0.3v-7.7c0-0.2,0.1-0.3,0.3-0.3h1.6
		c0.1,0,0.2,0,0.3,0.1c0,0,0.1,0.1,0.1,0.2v2.7h3v-2.7c0-0.2,0.1-0.3,0.4-0.3h1.6c0.1,0,0.2,0,0.3,0.1c0,0,0.1,0.1,0.1,0.2v7.7
		c0,0.1,0,0.2-0.1,0.3c0,0-0.1,0.1-0.3,0.1h-1.6c-0.2,0-0.4-0.1-0.4-0.3V23h-3v3.2C218.6,26.4,218.5,26.4,218.5,26.5z"/>
	<path class="st1" d="M233.6,22.3c0,1.4-0.3,2.5-1,3.2c-0.7,0.8-1.7,1.1-3,1.1c-1.4,0-2.4-0.4-3-1.1c-0.6-0.8-1-1.8-1-3.2
		c0-0.7,0.1-1.3,0.3-1.8c0.2-0.5,0.4-1,0.8-1.4c0.3-0.4,0.8-0.7,1.3-0.9s1.1-0.3,1.7-0.3c1.3,0,2.3,0.4,3,1.2S233.6,21,233.6,22.3z
		 M231.2,22.4c0-0.4,0-0.7-0.1-1c-0.1-0.3-0.1-0.6-0.3-0.8c-0.1-0.2-0.3-0.4-0.5-0.5c-0.2-0.1-0.5-0.2-0.7-0.2c-0.6,0-1,0.2-1.2,0.6
		s-0.4,1-0.4,1.7c0,0.8,0.1,1.4,0.4,1.8c0.2,0.4,0.7,0.6,1.2,0.6c0.3,0,0.5-0.1,0.8-0.2c0.2-0.1,0.4-0.3,0.5-0.5
		c0.1-0.2,0.2-0.5,0.3-0.8C231.2,23,231.2,22.7,231.2,22.4z"/>
	<path class="st1" d="M237.6,26.2c0,0.1,0,0.2-0.1,0.3s-0.1,0.1-0.3,0.1h-1.6c-0.2,0-0.4-0.1-0.4-0.3v-5.6c0-0.3,0-0.6,0.1-0.9
		s0.2-0.6,0.4-0.8c0.2-0.2,0.4-0.4,0.8-0.5c0.3-0.1,0.8-0.2,1.3-0.2h3.7c0.1,0,0.2,0,0.2,0.1c0,0,0.1,0.1,0.1,0.3v1.1
		c0,0.1,0,0.2-0.1,0.3c0,0.1-0.1,0.1-0.2,0.1h-3c-0.4,0-0.6,0.1-0.7,0.2c-0.1,0.1-0.2,0.4-0.2,0.6V26.2z"/>
	<path class="st1" d="M250.8,22.3c0,1.4-0.3,2.5-1,3.2c-0.7,0.8-1.7,1.1-3,1.1c-1.4,0-2.4-0.4-3-1.1c-0.6-0.8-1-1.8-1-3.2
		c0-0.7,0.1-1.3,0.3-1.8c0.2-0.5,0.4-1,0.8-1.4c0.3-0.4,0.8-0.7,1.3-0.9s1.1-0.3,1.7-0.3c1.3,0,2.3,0.4,3,1.2S250.8,21,250.8,22.3z
		 M248.4,22.4c0-0.4,0-0.7-0.1-1c-0.1-0.3-0.1-0.6-0.3-0.8c-0.1-0.2-0.3-0.4-0.5-0.5c-0.2-0.1-0.5-0.2-0.7-0.2c-0.6,0-1,0.2-1.2,0.6
		s-0.4,1-0.4,1.7c0,0.8,0.1,1.4,0.4,1.8c0.2,0.4,0.7,0.6,1.2,0.6c0.3,0,0.5-0.1,0.8-0.2c0.2-0.1,0.4-0.3,0.5-0.5
		c0.1-0.2,0.2-0.5,0.3-0.8C248.4,23,248.4,22.7,248.4,22.4z"/>
	<path class="st1" d="M82.3,41c0,0.1,0,0.2-0.1,0.2c0,0-0.1,0.1-0.3,0.1h-1.7c-0.2,0-0.3-0.1-0.3-0.3v-6.2h-3V41
		c0,0.1,0,0.2-0.1,0.2c0,0-0.1,0.1-0.3,0.1H75c-0.2,0-0.3-0.1-0.3-0.3v-7.1c0-0.3,0.1-0.5,0.2-0.6c0.1-0.2,0.4-0.3,0.7-0.3h5.9
		c0.4,0,0.6,0.1,0.7,0.3c0.1,0.2,0.2,0.4,0.2,0.6V41z"/>
	<path class="st1" d="M86.7,44.3c0,0.1,0,0.2-0.1,0.2s-0.1,0-0.3,0h-1.6c-0.1,0-0.2,0-0.3,0c-0.1,0-0.1-0.1-0.1-0.2V33.9
		c0-0.1,0-0.2,0.1-0.3c0-0.1,0.1-0.1,0.3-0.2c0.5-0.2,1.1-0.4,1.7-0.5s1.2-0.1,1.8-0.1c0.8,0,1.4,0.1,1.9,0.3
		c0.5,0.2,0.9,0.5,1.2,0.9c0.3,0.4,0.5,0.8,0.7,1.4s0.2,1.1,0.2,1.7c0,0.6-0.1,1.2-0.2,1.7s-0.4,1-0.7,1.4c-0.3,0.4-0.7,0.7-1.2,0.9
		c-0.5,0.2-1,0.3-1.7,0.3c-0.3,0-0.6,0-0.9,0c-0.3,0-0.6-0.1-0.9-0.2V44.3z M89.8,37.1c0-0.4,0-0.8-0.1-1.1s-0.2-0.5-0.4-0.7
		c-0.2-0.2-0.4-0.3-0.6-0.4s-0.5-0.1-0.8-0.1c-0.1,0-0.3,0-0.6,0s-0.4,0.1-0.6,0.1v4.3c0.3,0.1,0.5,0.1,0.7,0.1c0.2,0,0.4,0,0.6,0
		c0.5,0,1-0.2,1.3-0.5C89.6,38.6,89.8,37.9,89.8,37.1z"/>
	<path class="st1" d="M97.6,32.8c1.2,0,2.2,0.3,2.8,0.9c0.6,0.6,0.9,1.5,0.9,2.7c0,0.6-0.1,0.9-0.3,1.1c-0.2,0.2-0.5,0.3-0.9,0.3
		h-4.1c0,0.3,0.1,0.6,0.2,0.8s0.2,0.4,0.4,0.5c0.2,0.1,0.4,0.2,0.6,0.3c0.2,0.1,0.5,0.1,0.7,0.1c0.3,0,0.6,0,0.9-0.1
		c0.3-0.1,0.6-0.2,0.9-0.3c0.1,0,0.2-0.1,0.3,0c0,0,0.1,0.1,0.1,0.2l0.5,1.1c0,0.1,0.1,0.2,0,0.2c0,0.1-0.1,0.1-0.2,0.2
		c-0.4,0.3-0.8,0.4-1.4,0.5c-0.5,0.1-1,0.2-1.4,0.2c-1.4,0-2.4-0.3-3.1-1s-1-1.8-1-3.3c0-0.7,0.1-1.3,0.3-1.9c0.2-0.5,0.4-1,0.8-1.4
		c0.3-0.4,0.8-0.7,1.2-0.9C96.4,32.9,97,32.8,97.6,32.8z M97.6,34.7c-0.4,0-0.8,0.2-1.1,0.5s-0.4,0.7-0.5,1.2h3c0-0.2,0-0.4-0.1-0.7
		c0-0.2-0.1-0.4-0.2-0.5c-0.1-0.1-0.2-0.3-0.4-0.3C98.2,34.7,97.9,34.7,97.6,34.7z"/>
	<path class="st1" d="M103.1,39.5c0.3-0.3,0.5-0.6,0.6-1.1c0.1-0.4,0.2-1,0.3-1.5l0.4-3c0-0.3,0.1-0.5,0.3-0.7
		c0.1-0.2,0.4-0.2,0.8-0.2h4.2c0.4,0,0.7,0.1,0.8,0.2s0.2,0.4,0.2,0.7v5.6l0.5,0c0.2,0,0.4,0.1,0.4,0.2c0.1,0.1,0.1,0.3,0.1,0.4
		l-0.2,3.3c0,0.2-0.1,0.2-0.3,0.2h-1.4c-0.1,0-0.2,0-0.2-0.1c0,0-0.1-0.1-0.1-0.2l-0.1-2.2h-5.3c0,0.4,0,0.7-0.1,1.1
		c0,0.4,0,0.7-0.1,1.1c0,0.1,0,0.2-0.1,0.2s-0.1,0.1-0.2,0.1h-1.4c-0.2,0-0.2-0.1-0.2-0.2l-0.2-3.3c0-0.2,0-0.3,0.1-0.4
		c0.1-0.1,0.2-0.2,0.4-0.2L103.1,39.5z M108.4,34.9h-2c-0.1,1.3-0.3,2.3-0.4,3.1c-0.1,0.7-0.3,1.3-0.5,1.6h2.9V34.9z"/>
	<path class="st1" d="M121,41c0,0.1,0,0.2-0.1,0.2c0,0-0.1,0.1-0.3,0.1H119c-0.2,0-0.3-0.1-0.3-0.3v-6.2h-3V41c0,0.1,0,0.2-0.1,0.2
		c0,0-0.1,0.1-0.3,0.1h-1.6c-0.2,0-0.3-0.1-0.3-0.3v-7.1c0-0.3,0.1-0.5,0.2-0.6c0.1-0.2,0.4-0.3,0.7-0.3h5.9c0.4,0,0.6,0.1,0.7,0.3
		c0.1,0.2,0.2,0.4,0.2,0.6V41z"/>
	<path class="st1" d="M125.4,44.3c0,0.1,0,0.2-0.1,0.2s-0.1,0-0.3,0h-1.6c-0.1,0-0.2,0-0.3,0c-0.1,0-0.1-0.1-0.1-0.2V33.9
		c0-0.1,0-0.2,0.1-0.3c0-0.1,0.1-0.1,0.3-0.2c0.5-0.2,1.1-0.4,1.7-0.5s1.2-0.1,1.8-0.1c0.8,0,1.4,0.1,1.9,0.3
		c0.5,0.2,0.9,0.5,1.2,0.9c0.3,0.4,0.5,0.8,0.7,1.4s0.2,1.1,0.2,1.7c0,0.6-0.1,1.2-0.2,1.7s-0.4,1-0.7,1.4c-0.3,0.4-0.7,0.7-1.2,0.9
		c-0.5,0.2-1,0.3-1.7,0.3c-0.3,0-0.6,0-0.9,0c-0.3,0-0.6-0.1-0.9-0.2V44.3z M128.5,37.1c0-0.4,0-0.8-0.1-1.1s-0.2-0.5-0.4-0.7
		c-0.2-0.2-0.4-0.3-0.6-0.4s-0.5-0.1-0.8-0.1c-0.1,0-0.3,0-0.6,0s-0.4,0.1-0.6,0.1v4.3c0.3,0.1,0.5,0.1,0.7,0.1c0.2,0,0.4,0,0.6,0
		c0.5,0,1-0.2,1.3-0.5C128.4,38.6,128.5,37.9,128.5,37.1z"/>
	<path class="st1" d="M132.7,33.2c0-0.2,0.1-0.3,0.3-0.3h1.7c0.1,0,0.2,0,0.2,0c0,0,0.1,0.1,0.1,0.2v4.9h0.1
		c0.2-0.3,0.4-0.6,0.5-0.8c0.1-0.2,0.2-0.4,0.3-0.5c0.1-0.1,0.2-0.3,0.2-0.4s0.1-0.2,0.2-0.3c0.2-0.3,0.4-0.7,0.7-1.1
		c0.3-0.4,0.6-0.9,0.9-1.5c0.1-0.1,0.1-0.2,0.2-0.3c0.1-0.1,0.1-0.1,0.2-0.2c0.1,0,0.1-0.1,0.2-0.1c0.1,0,0.2,0,0.3,0h0.8
		c0.3,0,0.5,0.1,0.7,0.2c0.1,0.1,0.2,0.4,0.2,0.7V41c0,0.1,0,0.2-0.1,0.2c0,0-0.1,0-0.2,0h-1.7c-0.1,0-0.2,0-0.2,0
		c0,0-0.1-0.1-0.1-0.2v-4.8h-0.1c-0.2,0.4-0.5,0.7-0.7,1.1s-0.4,0.7-0.7,1.1c-0.2,0.4-0.5,0.8-0.7,1.2c-0.2,0.4-0.5,0.8-0.7,1.2
		c-0.1,0.2-0.3,0.4-0.4,0.4s-0.3,0.1-0.6,0.1h-0.7c-0.4,0-0.6-0.1-0.7-0.2c-0.1-0.1-0.2-0.4-0.2-0.7V33.2z"/>
	<path class="st1" d="M144.8,41.2c0,0-0.1,0.1-0.3,0.1H143c-0.2,0-0.3-0.1-0.3-0.3v-7.7c0-0.2,0.1-0.3,0.3-0.3h1.6
		c0.1,0,0.2,0,0.3,0.1c0,0,0.1,0.1,0.1,0.2V36h3v-2.7c0-0.2,0.1-0.3,0.4-0.3h1.6c0.1,0,0.2,0,0.3,0.1c0,0,0.1,0.1,0.1,0.2V41
		c0,0.1,0,0.2-0.1,0.3c0,0-0.1,0.1-0.3,0.1h-1.6c-0.2,0-0.4-0.1-0.4-0.3v-3.2h-3V41C144.9,41.1,144.9,41.2,144.8,41.2z"/>
	<path class="st1" d="M152.2,33.2c0-0.2,0.1-0.3,0.3-0.3h1.7c0.1,0,0.2,0,0.2,0c0,0,0.1,0.1,0.1,0.2v4.9h0.1
		c0.2-0.3,0.4-0.6,0.5-0.8c0.1-0.2,0.2-0.4,0.3-0.5c0.1-0.1,0.2-0.3,0.2-0.4s0.1-0.2,0.2-0.3c0.2-0.3,0.4-0.7,0.7-1.1
		c0.3-0.4,0.6-0.9,0.9-1.5c0.1-0.1,0.1-0.2,0.2-0.3c0.1-0.1,0.1-0.1,0.2-0.2c0.1,0,0.1-0.1,0.2-0.1c0.1,0,0.2,0,0.3,0h0.8
		c0.3,0,0.5,0.1,0.7,0.2c0.1,0.1,0.2,0.4,0.2,0.7V41c0,0.1,0,0.2-0.1,0.2c0,0-0.1,0-0.2,0h-1.7c-0.1,0-0.2,0-0.2,0
		c0,0-0.1-0.1-0.1-0.2v-4.8h-0.1c-0.2,0.4-0.5,0.7-0.7,1.1s-0.4,0.7-0.7,1.1c-0.2,0.4-0.5,0.8-0.7,1.2c-0.2,0.4-0.5,0.8-0.7,1.2
		c-0.1,0.2-0.3,0.4-0.4,0.4s-0.3,0.1-0.6,0.1h-0.7c-0.4,0-0.6-0.1-0.7-0.2c-0.1-0.1-0.2-0.4-0.2-0.7V33.2z"/>
	<path class="st1" d="M169.8,36.6l-0.7,1.5l-0.8,1.7c-0.1,0.2-0.2,0.4-0.3,0.4c-0.1,0.1-0.3,0.1-0.5,0.1h-0.8c-0.2,0-0.4,0-0.5-0.1
		c-0.1-0.1-0.2-0.2-0.3-0.4l-0.8-1.7l-0.6-1.5h-0.1V41c0,0.1,0,0.2-0.1,0.3c-0.1,0-0.1,0-0.3,0h-1.6c-0.1,0-0.2,0-0.3,0
		c-0.1,0-0.1-0.1-0.1-0.3v-7.1c0-0.6,0.3-0.9,1-0.9h1c0.2,0,0.4,0,0.6,0.1c0.2,0.1,0.3,0.2,0.4,0.5l1.1,2.4l0.8,1.8h0.1l0.9-2
		l1.1-2.2c0.1-0.3,0.3-0.5,0.4-0.6s0.4-0.2,0.7-0.2h0.9c0.6,0,1,0.3,1,0.9V41c0,0.1,0,0.2-0.1,0.3c0,0-0.1,0-0.3,0h-1.6
		c-0.1,0-0.2,0-0.3,0s-0.1-0.1-0.1-0.3L169.8,36.6L169.8,36.6z"/>
	<path class="st1" d="M181.2,40.3c0,0.1,0,0.3-0.1,0.3c0,0.1-0.1,0.2-0.3,0.3c-0.2,0.1-0.5,0.2-0.8,0.3s-0.6,0.1-0.9,0.2
		c-0.3,0-0.6,0.1-0.9,0.1c-0.3,0-0.6,0-0.8,0c-0.7,0-1.3-0.1-1.8-0.2c-0.5-0.1-0.8-0.3-1.1-0.6c-0.3-0.2-0.5-0.5-0.6-0.8
		c-0.1-0.3-0.2-0.7-0.2-1c0-0.4,0.1-0.8,0.2-1.1c0.1-0.3,0.3-0.6,0.6-0.9c0.3-0.3,0.6-0.5,1-0.6c0.4-0.1,0.9-0.2,1.5-0.2h1.7v-0.3
		c0-0.1,0-0.3,0-0.4c0-0.1-0.1-0.3-0.2-0.4s-0.2-0.2-0.4-0.2c-0.2-0.1-0.4-0.1-0.7-0.1c-0.2,0-0.3,0-0.5,0c-0.2,0-0.4,0-0.6,0.1
		c-0.2,0-0.4,0.1-0.6,0.1c-0.2,0-0.4,0.1-0.5,0.1c-0.1,0-0.2,0-0.3,0c-0.1,0-0.1-0.1-0.1-0.2l-0.3-1.1c0-0.1,0-0.2,0-0.2
		c0,0,0.1-0.1,0.2-0.1c0.5-0.2,1-0.3,1.5-0.4c0.5-0.1,1-0.1,1.6-0.1c1.2,0,2,0.2,2.5,0.7s0.8,1.2,0.8,2.2V40.3z M178.9,37.5h-1.3
		c-0.1,0-0.3,0-0.5,0c-0.2,0-0.3,0.1-0.5,0.2c-0.1,0.1-0.3,0.2-0.4,0.3c-0.1,0.1-0.1,0.3-0.1,0.6c0,0.4,0.1,0.6,0.4,0.8
		c0.2,0.1,0.6,0.2,1,0.2c0.1,0,0.1,0,0.3,0c0.1,0,0.2,0,0.3,0c0.1,0,0.2,0,0.4-0.1c0.1,0,0.2-0.1,0.3-0.1V37.5z"/>
	<path class="st1" d="M187.3,34.8V41c0,0.1,0,0.2-0.1,0.3c0,0-0.1,0.1-0.3,0.1h-1.6c-0.2,0-0.4-0.1-0.4-0.3v-6.1h-2.3
		c-0.2,0-0.3-0.1-0.3-0.3v-1.2c0-0.1,0-0.2,0.1-0.3c0,0,0.1-0.1,0.3-0.1h6.9c0.1,0,0.2,0,0.3,0.1c0,0,0.1,0.1,0.1,0.3v1.2
		c0,0.2-0.1,0.3-0.3,0.3H187.3z"/>
	<path class="st1" d="M194.8,32.8c1.2,0,2.2,0.3,2.8,0.9c0.6,0.6,0.9,1.5,0.9,2.7c0,0.6-0.1,0.9-0.3,1.1c-0.2,0.2-0.5,0.3-0.9,0.3
		h-4.1c0,0.3,0.1,0.6,0.2,0.8s0.2,0.4,0.4,0.5c0.2,0.1,0.4,0.2,0.6,0.3c0.2,0.1,0.5,0.1,0.7,0.1c0.3,0,0.6,0,0.9-0.1
		c0.3-0.1,0.6-0.2,0.9-0.3c0.1,0,0.2-0.1,0.3,0c0,0,0.1,0.1,0.1,0.2l0.5,1.1c0,0.1,0.1,0.2,0,0.2c0,0.1-0.1,0.1-0.2,0.2
		c-0.4,0.3-0.8,0.4-1.4,0.5c-0.5,0.1-1,0.2-1.4,0.2c-1.4,0-2.4-0.3-3.1-1s-1-1.8-1-3.3c0-0.7,0.1-1.3,0.3-1.9c0.2-0.5,0.4-1,0.8-1.4
		c0.3-0.4,0.8-0.7,1.2-0.9C193.6,32.9,194.1,32.8,194.8,32.8z M194.8,34.7c-0.4,0-0.8,0.2-1.1,0.5s-0.4,0.7-0.5,1.2h3
		c0-0.2,0-0.4-0.1-0.7c0-0.2-0.1-0.4-0.2-0.5c-0.1-0.1-0.2-0.3-0.4-0.3C195.3,34.7,195.1,34.7,194.8,34.7z"/>
	<path class="st1" d="M206.6,33c0.4,0,0.6,0.1,0.8,0.2c0.1,0.2,0.2,0.4,0.2,0.7V41c0,0.1,0,0.2-0.1,0.2c0,0-0.1,0.1-0.3,0.1h-1.6
		c-0.1,0-0.2,0-0.3-0.1c0,0-0.1-0.1-0.1-0.2v-6.1h-2l0,0.8c-0.1,0.9-0.1,1.7-0.2,2.4c-0.1,0.7-0.2,1.2-0.4,1.7
		c-0.2,0.5-0.5,0.9-0.9,1.2s-0.9,0.5-1.5,0.7c-0.1,0.1-0.3,0.1-0.3,0c-0.1,0-0.1-0.1-0.2-0.2l-0.4-1.1c-0.1-0.1-0.1-0.2-0.1-0.3
		c0-0.1,0.1-0.1,0.2-0.2c0.3-0.1,0.5-0.3,0.7-0.4c0.2-0.2,0.3-0.4,0.4-0.7c0.1-0.3,0.2-0.7,0.3-1.2s0.1-1.1,0.2-1.9l0.1-1.7
		c0-0.3,0.1-0.6,0.2-0.7c0.1-0.1,0.4-0.2,0.7-0.2H206.6z"/>
	<path class="st1" d="M210.6,41.3c-0.4,0-0.7-0.1-0.8-0.2s-0.2-0.4-0.2-0.7v-7.1c0-0.2,0.1-0.3,0.3-0.3h1.6c0.1,0,0.2,0,0.3,0.1
		c0,0,0.1,0.1,0.1,0.2v2.3h2c0.8,0,1.4,0.1,1.8,0.3c0.4,0.2,0.8,0.5,1,0.8s0.4,0.6,0.4,0.9c0.1,0.3,0.1,0.6,0.1,0.8
		c0,0.4-0.1,0.8-0.2,1.1c-0.2,0.3-0.4,0.7-0.7,0.9c-0.3,0.3-0.6,0.5-1,0.6c-0.4,0.1-0.8,0.2-1.2,0.2H210.6z M214.9,38.4
		c0-0.3-0.1-0.5-0.3-0.8c-0.2-0.2-0.5-0.3-0.8-0.3h-1.9v2.2h1.9c0.2,0,0.4,0,0.6-0.1c0.1-0.1,0.3-0.2,0.3-0.3
		c0.1-0.1,0.1-0.2,0.2-0.4C214.9,38.6,214.9,38.5,214.9,38.4z"/>
	<path class="st1" d="M222.7,39.4c0.3,0,0.7,0,1-0.1c0.3-0.1,0.6-0.2,0.8-0.2c0.1-0.1,0.2-0.1,0.3-0.1c0,0,0.1,0.1,0.1,0.2l0.4,1.2
		c0.1,0.1,0.1,0.2,0.1,0.3c0,0.1-0.1,0.1-0.2,0.2c-0.5,0.3-1,0.4-1.5,0.5c-0.5,0.1-1,0.1-1.4,0.1c-1.2,0-2.2-0.4-2.8-1.1
		c-0.6-0.7-1-1.8-1-3.2c0-0.7,0.1-1.3,0.3-1.8c0.2-0.5,0.4-1,0.8-1.4c0.3-0.4,0.8-0.7,1.2-0.9s1-0.3,1.6-0.3c0.4,0,0.9,0,1.3,0.1
		s0.8,0.2,1.2,0.4c0.1,0.1,0.2,0.1,0.2,0.2c0,0.1,0,0.1-0.1,0.3l-0.4,1.2c-0.1,0.1-0.1,0.2-0.2,0.2s-0.2,0-0.3,0
		c-0.3-0.1-0.5-0.2-0.8-0.2c-0.3-0.1-0.5-0.1-0.8-0.1c-0.3,0-0.6,0.1-0.8,0.2c-0.2,0.1-0.4,0.3-0.5,0.5c-0.1,0.2-0.2,0.5-0.3,0.7
		c-0.1,0.3-0.1,0.6-0.1,0.9c0,0.3,0,0.6,0.1,0.9c0.1,0.3,0.1,0.5,0.3,0.7c0.1,0.2,0.3,0.4,0.5,0.5C222.1,39.4,222.4,39.4,222.7,39.4
		z"/>
	<path class="st1" d="M231,34.8V41c0,0.1,0,0.2-0.1,0.3c0,0-0.1,0.1-0.3,0.1h-1.6c-0.2,0-0.4-0.1-0.4-0.3v-6.1h-2.3
		c-0.2,0-0.3-0.1-0.3-0.3v-1.2c0-0.1,0-0.2,0.1-0.3c0,0,0.1-0.1,0.3-0.1h6.9c0.1,0,0.2,0,0.3,0.1c0,0,0.1,0.1,0.1,0.3v1.2
		c0,0.2-0.1,0.3-0.3,0.3H231z"/>
	<path class="st1" d="M241.2,36.8c0.5,0.2,0.8,0.5,1,0.8c0.2,0.4,0.3,0.7,0.3,1.1c0,0.4-0.1,0.7-0.2,1c-0.2,0.3-0.4,0.6-0.6,0.8
		s-0.6,0.4-1,0.5c-0.4,0.1-0.8,0.2-1.2,0.2h-3.7c-0.4,0-0.6-0.1-0.8-0.2c-0.1-0.1-0.2-0.3-0.2-0.6v-6.6c0-0.3,0.1-0.5,0.2-0.7
		c0.1-0.2,0.4-0.2,0.7-0.2h3.7c0.4,0,0.7,0,1,0.1c0.3,0.1,0.6,0.2,0.9,0.4c0.2,0.2,0.4,0.4,0.6,0.7s0.2,0.6,0.2,1
		c0,0.3-0.1,0.6-0.2,0.9C241.7,36.3,241.5,36.5,241.2,36.8L241.2,36.8z M237.1,36.1h1.9c0.2,0,0.3-0.1,0.5-0.2
		c0.2-0.1,0.2-0.3,0.2-0.5c0-0.2-0.1-0.3-0.2-0.5c-0.1-0.1-0.3-0.2-0.5-0.2h-2V36.1z M240.1,38.6c0-0.3-0.1-0.5-0.2-0.7
		c-0.2-0.2-0.4-0.3-0.8-0.3h-2v1.9h2c0.2,0,0.4,0,0.5-0.1s0.2-0.1,0.3-0.2c0.1-0.1,0.1-0.2,0.2-0.3
		C240.1,38.8,240.1,38.6,240.1,38.6z"/>
	<path class="st1" d="M251.3,40.3c0,0.1,0,0.3-0.1,0.3c0,0.1-0.1,0.2-0.3,0.3c-0.2,0.1-0.5,0.2-0.8,0.3s-0.6,0.1-0.9,0.2
		c-0.3,0-0.6,0.1-0.9,0.1c-0.3,0-0.6,0-0.8,0c-0.7,0-1.3-0.1-1.8-0.2c-0.5-0.1-0.8-0.3-1.1-0.6c-0.3-0.2-0.5-0.5-0.6-0.8
		c-0.1-0.3-0.2-0.7-0.2-1c0-0.4,0.1-0.8,0.2-1.1c0.1-0.3,0.3-0.6,0.6-0.9c0.3-0.3,0.6-0.5,1-0.6c0.4-0.1,0.9-0.2,1.5-0.2h1.7v-0.3
		c0-0.1,0-0.3,0-0.4c0-0.1-0.1-0.3-0.2-0.4s-0.2-0.2-0.4-0.2c-0.2-0.1-0.4-0.1-0.7-0.1c-0.2,0-0.3,0-0.5,0c-0.2,0-0.4,0-0.6,0.1
		c-0.2,0-0.4,0.1-0.6,0.1c-0.2,0-0.4,0.1-0.5,0.1c-0.1,0-0.2,0-0.3,0c-0.1,0-0.1-0.1-0.1-0.2l-0.3-1.1c0-0.1,0-0.2,0-0.2
		c0,0,0.1-0.1,0.2-0.1c0.5-0.2,1-0.3,1.5-0.4c0.5-0.1,1-0.1,1.6-0.1c1.2,0,2,0.2,2.5,0.7s0.8,1.2,0.8,2.2V40.3z M249,37.5h-1.3
		c-0.1,0-0.3,0-0.5,0c-0.2,0-0.3,0.1-0.5,0.2c-0.1,0.1-0.3,0.2-0.4,0.3c-0.1,0.1-0.1,0.3-0.1,0.6c0,0.4,0.1,0.6,0.4,0.8
		c0.2,0.1,0.6,0.2,1,0.2c0.1,0,0.1,0,0.3,0c0.1,0,0.2,0,0.3,0c0.1,0,0.2,0,0.4-0.1c0.1,0,0.2-0.1,0.3-0.1V37.5z"/>
</g>
<g>
	<path class="st2" d="M47.9,0h-33v15.3H0v18.3h20.8c0,5.9,4.7,10.6,10.6,10.6c5.9,0,10.6-4.7,10.6-10.6h20.8V15.3H47.9V0L47.9,0z
		 M20.9,15.3V5.7h21.1v9.5H20.9z"/>
</g>
<g>
	<path class="st0" d="M0,38.8h15.1c0.3,1.1,0.8,2.1,1.4,3.1L14.3,44c-0.4,0.4-0.1,0.9,0.3,1.3l5.1,5.1c0.4,0.4,0.8,0.6,1.2,0.2
		l2.1-2.1c1.2,0.7,2.4,1.2,3.7,1.5v3c0,0.5,0.4,1,1,1h7.4c0.5,0,1-0.4,1-1v-3c1.3-0.4,2.5-0.9,3.7-1.5l2.1,2.1c0.4,0.4,1,0.4,1.4,0
		l5.2-5.2c0.4-0.4,0.4-1,0-1.4l-2.1-2.1c0.6-1,1-2,1.4-3.1h15v24H0V38.8z"/>
</g>
</svg>
